<svg width="272" height="272" viewBox="0 0 272 272" fill="none" xmlns="http://www.w3.org/2000/svg">
<path d="M229.783 31.1667H42.2167C39.2603 31.2406 36.4499 32.4672 34.3853 34.5846C32.3208 36.7021 31.1657 39.5427 31.1667 42.5V230.067C31.1667 233.072 32.3607 235.955 34.4861 238.08C36.6115 240.206 39.4942 241.4 42.5 241.4H230.067C233.072 241.4 235.955 240.206 238.081 238.08C240.206 235.955 241.4 233.072 241.4 230.067V42.2167C241.363 40.7282 241.034 39.2616 240.43 37.9006C239.826 36.5396 238.96 35.3109 237.881 34.2847C236.802 33.2585 235.532 32.455 234.143 31.92C232.753 31.385 231.272 31.129 229.783 31.1667Z" fill="white" stroke="#3D74BD" stroke-width="12" stroke-linecap="round" stroke-linejoin="round"/>
<path d="M119 240.833C119 229.312 116.726 217.904 112.309 207.264C107.891 196.623 101.417 186.959 93.2571 178.826C85.0973 170.692 75.4124 164.249 64.7576 159.866C54.1028 155.483 42.6877 153.246 31.1667 153.283M185.753 240.833C185.738 199.839 169.447 160.528 140.459 131.541C111.472 102.553 72.161 86.2617 31.1667 86.2467M240.833 166.317C229.725 135.184 211.838 106.909 188.464 83.5356C165.091 60.1623 136.816 42.2748 105.683 31.1667" stroke="#3D74BD" stroke-width="12" stroke-linecap="round" stroke-linejoin="round"/>
</svg>
