<svg xmlns="http://www.w3.org/2000/svg" fill="none" viewBox="0 0 260 317">
  <path fill="#008c25" stroke="#000" stroke-width="6" d="M36.6 105h107a12 12 0 0 1 12 12.4l-5.6 177a12 12 0 0 1-12 11.6H43.9a12 12 0 0 1-12-11.5l-7.3-177a12 12 0 0 1 12-12.5Zm2.1-6H142a12 12 0 0 0 11.9-13.5l-2.7-21a12 12 0 0 0-12-10.5h-97a12 12 0 0 0-11.8 10l-3.5 21a12 12 0 0 0 11.8 14Z"/>
  <path fill="#005918" stroke="#000" stroke-width="6" d="M43.8 79h94a4 4 0 0 0 4-5l-1.6-6a4 4 0 0 0-3.9-3H45.9a4 4 0 0 0-3.7 2.7l-2.1 6a4 4 0 0 0 3.7 5.3Z"/>
  <circle cx="35.5" cy="283.5" r="22.5" fill="#465679" stroke="#000" stroke-width="6"/>
  <circle cx="35.5" cy="283.5" r="9.5" fill="#465679" stroke="#000" stroke-width="6"/>
  <mask id="a" fill="#fff">
    <rect width="175" height="26" y="89" rx="4"/>
  </mask>
  <rect width="175" height="26" y="89" fill="#005918" stroke="#000" stroke-width="16" mask="url(#a)" rx="4"/>
  <path fill="#00b430" stroke="#000" stroke-width="6" d="m177.9 83.8 1.2.6 1.2-.4 41.8-15 6.2 90.5a6 6 0 0 1-6 6.4H107.9a6 6 0 0 1-6-7L115 87.5l18.7-3q4.4-.8 7.4-4.2l9.4-11.6z"/>
  <path fill="#008c25" stroke="#000" stroke-width="6" d="m116.3 119.9 104.2 18.4a12 12 0 0 1 9.6 14.6l-18.5 78a12 12 0 0 1-13.8 9l-93.5-16.5a12 12 0 0 1-9.9-13l7.8-79.9a12 12 0 0 1 14-10.6Z"/>
  <rect width="175" height="17.1" x="82.8" y="106.8" fill="#005918" stroke="#000" stroke-width="8" rx="4" transform="rotate(10 82.8 106.8)"/>
  <mask id="b" width="67.2" height="67.2" x="125.6" y="146.7" fill="#000" maskUnits="userSpaceOnUse">
    <path fill="#fff" d="M125.6 146.7h67.2v67.2h-67.2z"/>
    <path d="M182 203a5 5 0 0 1-4.8 1.7l-19.3-3.4 3.5 5a1 1 0 0 1-.2 1.4 1 1 0 0 1-1.4-.2l-4.9-7v-.2h-.1v-.9l.2-.1.1-.2 7-4.8a1 1 0 1 1 1.2 1.6l-5 3.5 19.3 3.4a3 3 0 0 0 3.3-4l-4-11.2a1 1 0 0 1 .5-1.3h.8l.5.6 4 11.2a5 5 0 0 1-.8 5m-36-5.8-11.8-2a3 3 0 0 1-1.7-5l12.6-14.9.5 6a1 1 0 0 0 1.7.6q.3-.3.3-.7l-.8-8.5v-.4h-.1v-.1l-.2-.1-.3-.2h-.4l-8.5.7a1 1 0 0 0-1 1 1 1 0 0 0 1.2 1l6-.6-12.6 15a5 5 0 0 0 3 8.1l11.8 2a1 1 0 0 0 1.2-.7 1 1 0 0 0-.8-1.2m19.8-39.6 6.8 18.3-5.5-2.6a1 1 0 1 0-.9 1.8l7.7 3.6h.1l.1.1h.6l.3-.2.1-.2.1-.1 3.6-7.7a1 1 0 0 0-1.2-1.4l-.6.5-2.6 5.5-6.7-18.3a5 5 0 0 0-8.5-1.5l-7.7 9.1a1 1 0 1 0 1.5 1.3l7.7-9.1a3 3 0 0 1 5.1.9"/>
  </mask>
  <path fill="#000" d="M182 203a5 5 0 0 1-4.8 1.7l-19.3-3.4 3.5 5a1 1 0 0 1-.2 1.4 1 1 0 0 1-1.4-.2l-4.9-7v-.2h-.1v-.9l.2-.1.1-.2 7-4.8a1 1 0 1 1 1.2 1.6l-5 3.5 19.3 3.4a3 3 0 0 0 3.3-4l-4-11.2a1 1 0 0 1 .5-1.3h.8l.5.6 4 11.2a5 5 0 0 1-.8 5m-36-5.8-11.8-2a3 3 0 0 1-1.7-5l12.6-14.9.5 6a1 1 0 0 0 1.7.6q.3-.3.3-.7l-.8-8.5v-.4h-.1v-.1l-.2-.1-.3-.2h-.4l-8.5.7a1 1 0 0 0-1 1 1 1 0 0 0 1.2 1l6-.6-12.6 15a5 5 0 0 0 3 8.1l11.8 2a1 1 0 0 0 1.2-.7 1 1 0 0 0-.8-1.2m19.8-39.6 6.8 18.3-5.5-2.6a1 1 0 1 0-.9 1.8l7.7 3.6h.1l.1.1h.6l.3-.2.1-.2.1-.1 3.6-7.7a1 1 0 0 0-1.2-1.4l-.6.5-2.6 5.5-6.7-18.3a5 5 0 0 0-8.5-1.5l-7.7 9.1a1 1 0 1 0 1.5 1.3l7.7-9.1a3 3 0 0 1 5.1.9"/>
  <path stroke="#000" stroke-width="4" d="M182 203a5 5 0 0 1-4.8 1.7l-19.3-3.4 3.5 5a1 1 0 0 1-.2 1.4 1 1 0 0 1-1.4-.2l-4.9-7v-.2h-.1v-.9l.2-.1.1-.2 7-4.8a1 1 0 1 1 1.2 1.6l-5 3.5 19.3 3.4a3 3 0 0 0 3.3-4l-4-11.2a1 1 0 0 1 .5-1.3h.8l.5.6 4 11.2a5 5 0 0 1-.8 5Zm-36-5.8-11.8-2a3 3 0 0 1-1.7-5l12.6-14.9.5 6a1 1 0 0 0 1.7.6q.3-.3.3-.7l-.8-8.5v-.4h-.1v-.1l-.2-.1-.3-.2h-.4l-8.5.7a1 1 0 0 0-1 1 1 1 0 0 0 1.2 1l6-.6-12.6 15a5 5 0 0 0 3 8.1l11.8 2a1 1 0 0 0 1.2-.7 1 1 0 0 0-.8-1.2Zm19.8-39.6 6.8 18.3-5.5-2.6a1 1 0 1 0-.9 1.8l7.7 3.6h.1l.1.1h.6l.3-.2.1-.2.1-.1 3.6-7.7a1 1 0 0 0-1.2-1.4l-.6.5-2.6 5.5-6.7-18.3a5 5 0 0 0-8.5-1.5l-7.7 9.1a1 1 0 1 0 1.5 1.3l7.7-9.1a3 3 0 0 1 5.1.9Z" mask="url(#b)"/>
  <path fill="#008c25" stroke="#000" stroke-width="6" d="M103.2 210h105.9a12 12 0 0 1 12 12.7l-4.8 80a12 12 0 0 1-12 11.3h-95a12 12 0 0 1-11.9-11l-6.2-80c-.5-7 5-13 12-13Z"/>
  <rect width="175" height="18" x="68" y="202" fill="#005918" stroke="#000" stroke-width="8" rx="4"/>
  <mask id="c" width="58" height="58" x="127" y="233" fill="#000" maskUnits="userSpaceOnUse">
    <path fill="#fff" d="M127 233h58v58h-58z"/>
    <path d="M182.3 280.5a5 5 0 0 1-4.3 2.5h-19.6l4.3 4.3a1 1 0 0 1-1.4 1.4l-6-6-.1-.1v-.1l-.1-.1-.1-.4v-.3l.1-.2.2-.2 6-6a1 1 0 0 1 1-.2 1 1 0 0 1 .4 1.6l-4.3 4.3H178a3 3 0 0 0 2.6-4.5l-6-10.3-.1-.8a1 1 0 0 1 1.6-.5l.2.2 6 10.4a5 5 0 0 1 0 5m-36.3.5h-12a3 3 0 0 1-2.6-4.5l9.8-17 1.6 6a1 1 0 0 0 1.9-.6l-2.2-8.2v-.1l-.1-.1v-.1h-.1l-.1-.2h-.1l-.4-.2h-.4l-8.2 2.2a1 1 0 0 0-.7 1.3 1 1 0 0 0 1.2.7l5.9-1.6-9.8 16.9a5 5 0 0 0 4.3 7.5h12a1 1 0 1 0 0-2m12.6-42.5 9.8 16.9-5.9-1.6a1 1 0 0 0-1.2.7 1 1 0 0 0 .7 1.3l8.2 2.2h.6v-.1h.1l.3-.3.1-.1.1-.2 2.2-8.2v-.8l-.7-.5a1 1 0 0 0-1.2.7l-1.6 6-9.8-17a5 5 0 0 0-8.6 0l-6 10.3a1 1 0 0 0 .3 1.4 1 1 0 0 0 1.4-.4l6-10.3a3 3 0 0 1 4-1.1q.8.4 1.2 1.1"/>
  </mask>
  <path fill="#000" d="M182.3 280.5a5 5 0 0 1-4.3 2.5h-19.6l4.3 4.3a1 1 0 0 1-1.4 1.4l-6-6-.1-.1v-.1l-.1-.1-.1-.4v-.3l.1-.2.2-.2 6-6a1 1 0 0 1 1-.2 1 1 0 0 1 .4 1.6l-4.3 4.3H178a3 3 0 0 0 2.6-4.5l-6-10.3-.1-.8a1 1 0 0 1 1.6-.5l.2.2 6 10.4a5 5 0 0 1 0 5m-36.3.5h-12a3 3 0 0 1-2.6-4.5l9.8-17 1.6 6a1 1 0 0 0 1.9-.6l-2.2-8.2v-.1l-.1-.1v-.1h-.1l-.1-.2h-.1l-.4-.2h-.4l-8.2 2.2a1 1 0 0 0-.7 1.3 1 1 0 0 0 1.2.7l5.9-1.6-9.8 16.9a5 5 0 0 0 4.3 7.5h12a1 1 0 1 0 0-2m12.6-42.5 9.8 16.9-5.9-1.6a1 1 0 0 0-1.2.7 1 1 0 0 0 .7 1.3l8.2 2.2h.6v-.1h.1l.3-.3.1-.1.1-.2 2.2-8.2v-.8l-.7-.5a1 1 0 0 0-1.2.7l-1.6 6-9.8-17a5 5 0 0 0-8.6 0l-6 10.3a1 1 0 0 0 .3 1.4 1 1 0 0 0 1.4-.4l6-10.3a3 3 0 0 1 4-1.1q.8.4 1.2 1.1"/>
  <path stroke="#000" stroke-width="4" d="M182.3 280.5a5 5 0 0 1-4.3 2.5h-19.6l4.3 4.3a1 1 0 0 1-1.4 1.4l-6-6-.1-.1v-.1l-.1-.1-.1-.4v-.3l.1-.2.2-.2 6-6a1 1 0 0 1 1-.2 1 1 0 0 1 .4 1.6l-4.3 4.3H178a3 3 0 0 0 2.6-4.5l-6-10.3-.1-.8a1 1 0 0 1 1.6-.5l.2.2 6 10.4a5 5 0 0 1 0 5Zm-36.3.5h-12a3 3 0 0 1-2.6-4.5l9.8-17 1.6 6a1 1 0 0 0 1.9-.6l-2.2-8.2v-.1l-.1-.1v-.1h-.1l-.1-.2h-.1l-.4-.2h-.4l-8.2 2.2a1 1 0 0 0-.7 1.3 1 1 0 0 0 1.2.7l5.9-1.6-9.8 16.9a5 5 0 0 0 4.3 7.5h12a1 1 0 1 0 0-2Zm12.6-42.5 9.8 16.9-5.9-1.6a1 1 0 0 0-1.2.7 1 1 0 0 0 .7 1.3l8.2 2.2h.6v-.1h.1l.3-.3.1-.1.1-.2 2.2-8.2v-.8l-.7-.5a1 1 0 0 0-1.2.7l-1.6 6-9.8-17a5 5 0 0 0-8.6 0l-6 10.3a1 1 0 0 0 .3 1.4 1 1 0 0 0 1.4-.4l6-10.3a3 3 0 0 1 4-1.1q.8.4 1.2 1.1Z" mask="url(#c)"/>
</svg>
