<svg fill="none" xmlns="http://www.w3.org/2000/svg" viewBox="0 0 168 184">
  <path fill-rule="evenodd" clip-rule="evenodd" d="M22 64H3s-2 0-3 2c0 0 7-1 12 4 0 0 3 1 3 11v51s0 17 12 24c0 0 14 10 33-1 0 0 10-7 10-25V89s-1-18 7-31c0 0 6-11 22-20 0 0 10-5 28-5 0 0 16 1 25-9 0 0 11-9 16-24 0 0-11 10-27 11 0 0-29 0-38 4 0 0-39 6-52 53 0 0-3 7-3 22v37s1 8-7 8c0 0-7 0-7-8V80s1-14-8-15c0 0-2-4 7-3 0 0 10 2 14-3 0 0 4-5 3-12 0 0-2 6-9 7 0 0-11 0-14 2 0 0-4 0-5 8Z" fill="#ED1C24"/>
  <path fill-rule="evenodd" clip-rule="evenodd" d="M23 159s6 8 19 7c0 0 16 2 25-8 0 0 9-7 9-25V91s-1-21 10-33c0 0 7-12 24-16 0 0 3-3 20-3 0 0 14 2 25-9 0 0-2 11-13 20 0 0-5 5-20 6 0 0-14 1-20 10 0 0-8 7-8 24v46s1 18-10 29c0 0-9 11-28 12 0 0-23 0-33-18Z" fill="#ED1C24"/>
  <path fill-rule="evenodd" clip-rule="evenodd" d="M60 183s17 0 29-12c0 0 11-11 11-28v-43s-1-17 13-22c0 0 11-7 25 3 0 0 16 11 8 30 0 0-5 10-17 4 0 0-8-3-8-13 0 0 3 7 8 3 0 0 4-4-1-9 0 0-4-5-10-2 0 0-3 1-3 10 0 0 3 40-4 52 0 0-4 13-18 22 0 0-16 9-33 5Z" fill="#ED1C24"/>
</svg>
