<svg fill="none" width="150px" xmlns="http://www.w3.org/2000/svg" viewBox="0 0 600 184">
  <path fill-rule="evenodd" clip-rule="evenodd" d="M22 64H3s-2 0-3 2c0 0 7-1 12 4 0 0 3 1 3 11v51s0 17 12 24c0 0 14 10 33-1 0 0 10-7 10-25V89s-1-18 7-31c0 0 6-11 22-20 0 0 10-5 28-5 0 0 16 1 25-9 0 0 11-9 16-24 0 0-11 10-27 11 0 0-29 0-38 4 0 0-39 6-52 53 0 0-3 7-3 22v37s1 8-7 8c0 0-7 0-7-8V80s1-14-8-15c0 0-2-4 7-3 0 0 10 2 14-3 0 0 4-5 3-12 0 0-2 6-9 7 0 0-11 0-14 2 0 0-4 0-5 8Z" fill="#ED1C24"/>
  <path fill-rule="evenodd" clip-rule="evenodd" d="M23 159s6 8 19 7c0 0 16 2 25-8 0 0 9-7 9-25V91s-1-21 10-33c0 0 7-12 24-16 0 0 3-3 20-3 0 0 14 2 25-9 0 0-2 11-13 20 0 0-5 5-20 6 0 0-14 1-20 10 0 0-8 7-8 24v46s1 18-10 29c0 0-9 11-28 12 0 0-23 0-33-18Z" fill="#ED1C24"/>
  <path fill-rule="evenodd" clip-rule="evenodd" d="M60 183s17 0 29-12c0 0 11-11 11-28v-43s-1-17 13-22c0 0 11-7 25 3 0 0 16 11 8 30 0 0-5 10-17 4 0 0-8-3-8-13 0 0 3 7 8 3 0 0 4-4-1-9 0 0-4-5-10-2 0 0-3 1-3 10 0 0 3 40-4 52 0 0-4 13-18 22 0 0-16 9-33 5Z" fill="#ED1C24"/>
  <path fill-rule="evenodd" clip-rule="evenodd" d="M373 23c-5 0-10 4-11 9l-7 46c-1 5 2 9 7 9h25c5 0 10-4 10-9l3-16h-15l-2 12h-11l6-38h11l-2 13h15l3-17c1-5-2-9-8-9h-24Zm-152 0s-12 1-14 18l-7 46h14l4-25h13l-3 25h14l10-64h-31Zm45 0-11 64h17l10-64h-16Zm29 0-11 64h14l4-23v1h3l7 22h14l-5-22s11-1 12-17l2-7c4-17-9-18-9-18h-31Zm124 0-11 64h17l4-29h10l-4 29h16l10-64h-16l-4 23h-10l4-23h-16Zm55 0-10 64h18l10-64h-18Zm32 0-11 64h15l5-31 6 31h14l11-64h-15l-5 34-6-34h-14Zm63 0s-13 1-14 18l-7 46h14l4-25h13l-3 25h14l10-64h-31ZM226 36h11l-3 13h-11s-6 2-4-5l1-4c0-3 4-4 6-4Zm91 0c2 0 6 0 6 4l-2 7c-2 7-7 5-7 5h-11l4-16h10Zm257 0h11l-3 13h-11s-6 2-4-5l1-4c0-3 3-4 6-4Z" fill="#000"/>
  <path fill-rule="evenodd" clip-rule="evenodd" d="M572 114c-2 0-3-3-2-4 5-5 11-9 18-11 4-1 7 4 6 8-2 16-1 31-2 47 0 2-1 6-4 4l-7-10c2 0 3 3 6 3l1-2v-43c0-1-1-2-3-2l-10 10h-3Z" fill="#231F20"/>
  <path fill-rule="evenodd" clip-rule="evenodd" d="M581 131c-3-2-6 4-10 6l-1-1c-1-2 1-4 1-5 2-3 4-3 7-4l1-6-1-2-6-1c-1 8-5 16-4 23l2 3h7c1 1 4 0 5-1l1-7-2-5Zm-4 6-2 5c-2 0-3-1-3-2 0-2 3-5 6-4l-1 1Zm-378-14 1 1-2 4h-2c-3-3-7-8-3-10 3-3 3 2 4 4l2 1Zm24-19c-3-1-5 3-8 2-2-2 0-4 0-6l-2-6h-3c0 5 2 10 0 14 0 5-8 6-8 12l8-6 1 1c1 4 2 9-1 10-4 2-8 2-8 7l1 1 7-4 2 2c-1 9-2 17 0 26l1 2c2-11-3-22 2-31 2-4 8-7 12-11 3-4 0-10-4-13Zm-6 16c-5 1-3-6-2-10 0-3 7-3 8 0 1 4-2 9-6 10Zm42 26c1 0 3 0 4-2l1 1v3c-2 1-5 1-7 3-3 2-3-1-3-3l5-2Z" fill="#231F20"/>
  <path fill-rule="evenodd" clip-rule="evenodd" d="M270 122c0-7 3-13 3-20-3-3-8-2-12 0-8 6-8 16-14 25l-1-1c-1-4 0-8 1-12 1-3-1-5-3-6-1 15 2 29 1 44l1 1c4-9-3-19 4-28h3c3 2 0 5 1 7l1 1 2-1v2l-3 3h-1l-2 3h2c3-2 4-5 6-8h1c3 3 0 6-2 8l2-1c2-2 3 2 4 1l-1-3c0-2 0-6 2-7l-1-2-4-1-1-8c-2-4-2 3-5 5-2 0-4 0-4-3l5-9c3-4 6-7 11-8 1-1 3 0 4 1 1 5 0 10-1 16h-5l-1 3c2 2 4 0 4 0h2l1 33c1 3 3 4 3 2 2-12-2-24-3-37Zm-15 5c1 0 2-2 3-1l1 1-1 2-1 2c-1-1-3-2-2-4Zm65 0c0-3-1-6 1-9s-1-6-1-10l-2-4c-10-1-13 10-17 17l-2 6c-1 4-1 9-3 13-2-4-1-9-1-13l2-15s-1-3-1-1c-3 10-2 18-3 27 0 2 0 6 2 8l6-20 1-2c2 0 3 1 3 2l-1 8-3 6v3h2c2-3 4-6 6-6l1 4c-3 4-6 4-9 7v1l9-2-1-3c1-2 2-2 4 0-1-4-2-7-1-9l2-4-4-2c0-3 2-6 0-9h-2c-1 2-2 4-4 4-1 0-3 0-2-2 3-4 5-10 9-13 2-1 4 0 6 1 2 4 2 8 1 11 0 2-4 1-3 3l3 3 2 27h1c1-9-3-18-1-27Zm-11 0 1 7-6 5-1-1 1-1 2-9c-1-1 3-2 3-1Zm56-25c-3 0-3 5-4 6-3-4 2-6 2-10l2-1c1 3 4 2 4 3 1 4 0 7-1 10l-7 16c-1 2-2 6-5 6-2-1-2-3-2-5l7-13-5 12 1 2c6-6 10-16 10-25l-2-1Zm16 0-2 3c-1 2-5 2-4 4 0 4 6 6 10 6 2 0 3 3 2 4h-2l-5-2-6-6c-2-1-5 1-4-1 0-2 4-3 5-5 1-1 0-2-1-3-1-2 1-4 1-6 0-1 1-2 2-1l4 5v2Zm-28 7c1-3 5-5 4-9 0-2-4 0-6 0l-7 5c-3 2-7 2-5 6 1 2 4 1 5-1l4 4v1c-1 2-3 2-3 4 2 2 3 3 2 5l1 13-2 17 2 3c2-11-2-22 1-34l5-4 1-3c-1-2-3-5-2-7Zm-2 10c-2 1-3-1-3-1 0-2 1-4 3-4h1l-1 5Zm1-14-2 5h-3c-2 0-1-2-1-3 1-3 5-7 8-4l-2 2Zm29 33c-1-3-6-1-7-3-4-3 0-8 1-11l-2-1c-2-3-4-5-6-2l1 1c1 2-2 4-3 5v4c2 1 3-2 4-3l2 1c0 3 1 6-2 8l-5 2c-2 1-1 2-1 3 2 4 6 6 8 9h1v-12c0-2 2-3 4-2 3 1 2 4 4 6h1c3-2 0-3 0-5Zm-13 6c-2 0-3-4 0-5h2l1 1c0 3-1 5-3 4Zm0-17c-1 0-2 0-1-1s1-4 4-4l1 2c-1 1-2 3-4 3Zm68-15-2-1-2-1c-1-4 3-8 7-5 1 2 2 5-1 8l-2-1Z" fill="#231F20"/>
  <path fill-rule="evenodd" clip-rule="evenodd" d="m446 143-1-4-1-1c-1 3 1 11-3 8-5-3-3-12-1-19h-3c-1 0-4 2-3 0 0-3 4-6 6-9v-2l-1-1-14 9-1 2h-1l-1-2c1-3 3-6 2-9-1-1-1-5-4-3-2 3-1 9-5 11l-1-1 1-7 1-3-1-1 1-2 1-2 6-5v-2l-4-1c-3 1-5 5-6 9l-1 25c-1 2-6 2-8 4-1 0 0 3 2 3l3-3 2 1c0 5-4 9-3 13l2-1 3-16 2-2 1 2c1 1-4 2 0 3l2-2h1c1 5-2 8-1 13l1 4h2l-1-1 2-1c-4-6-1-13-1-18 0-3 3-4 5-5l6-3v2l-3 11c-2 5-3 9-3 14l2-1c0-5 3-10 3-14 1-2 2-5 4-5h1v15c1 2 4 3 6 4h3c4-2 3-5 1-7Zm-28-16c-1 2 0 6-3 4-1-1-2-4 0-6l3 2Zm2-5c0 2 2 3 0 4-3 0-2-2-3-2 2-3 1-6 4-8 1 0 2 2 1 3l-2 3Zm43 4-1-1c-2-6 2-10 7-13 0 3-1 6-3 8l1 1c8-6 14-14 23-14 6 0 15 7 11 11-2 2-7 1-10 1l6-5v-1c-4-3-8-4-11-3l-14 9c-3 2-3 6-6 8l-3-1Zm19-21c-3-1-5-5-2-6 2-1 3 1 4 3s0 4-2 3Z" fill="#231F20"/>
  <path fill-rule="evenodd" clip-rule="evenodd" d="M483 122c0 2-2 5-3 4-4 0-5 3-8 2l1-1h1l5-6-1-2 1-1c2 0 4 1 4 4Zm4 1c-1-1-2-4 0-4 1-1 2 2 3 3l-1 2-2-1Zm-1 11c-1 2 0 4-2 6l-4 4c0 3 4 0 6 0l1 1c1 3 0 5-2 6h-12c0-2-3-4 0-5 2 0 4-2 4-4l2-1c1-2 3-4 1-6h-4l8-4c1 0 3 0 2 3Zm35-6-2 3c0-3 1-4 3-5 2-5 3-11 7-15h5c2 2 2 4 1 7l-3 1-5 7-6 2Zm10 18c3 0 6-4 8-6v-2l3-1 4 6c1 2 0 5-3 5-2 0-1-4-3-4h-2c-4 3-6 8-11 7v-4l1-4 6-8c3-4 3-10 7-10l2 2c-2 2-4 0-5 2s2 1 1 3l-9 12c-1 2 1 2 1 2Zm14-28h-1l1-8 4 4c1 2-1 4-2 5l-2-1Z" fill="#231F20"/>
</svg>
