<svg width="1781" height="1385" viewBox="0 0 1781 1385" fill="none" xmlns="http://www.w3.org/2000/svg">
<path d="M1776.5 3L1242 1382H7L1389.5 3H1776.5Z" fill="white"/>
<path d="M1743.43 81.7688C1487.43 343.386 710.487 1135.24 514.877 1334.56C483.157 1366.89 421.191 1380 421.191 1380H518C518 1380 579.966 1366.89 611.691 1334.56C775.696 1167.44 1348.35 583.809 1680 245.377L1743.43 81.7688Z" fill="#1E1D4B"/>
<path d="M1613.85 415.992C1283.41 753.021 851.639 1193.07 712.79 1334.56C681.064 1366.89 619.098 1380 619.098 1380H645.276C645.276 1380 707.242 1366.89 738.968 1334.56C871.828 1199.18 1272.88 790.433 1596.73 460.153L1613.85 415.992Z" fill="#1E1D4B"/>
<path d="M1524.03 647.667C1245.96 931.198 958.645 1224.01 850.154 1334.56C818.429 1366.89 756.463 1380 756.463 1380H965.808C965.808 1380 1027.77 1366.89 1059.5 1334.56C1121.73 1271.15 1242.8 1147.76 1387.22 1000.55L1524.03 647.667Z" fill="#C30017"/>
<path d="M206.691 1334.56C174.966 1366.89 113 1380 113 1380H322.345C322.345 1380 384.311 1366.89 416.037 1334.56C640.668 1105.66 1631.97 95.336 1720.54 4H1511.19C1422.62 95.336 431.329 1105.66 206.691 1334.56Z" fill="#1E1D4B"/>
</svg>
