<svg xmlns="http://www.w3.org/2000/svg" width="1781" height="1385" fill="none">
  <path fill="#fff" d="m1777 3-535 1379H7L1390 3h387Z"/>
  <mask id="a" width="682" height="748" x="774" y="459" maskUnits="userSpaceOnUse" style="mask-type:luminance">
    <path fill="#fff" d="M1456 460H774v747h682V460Z"/>
  </mask>
  <g fill="#ED1C24" fill-rule="evenodd" clip-rule="evenodd" mask="url(#a)">
    <path d="M863 720h-77s-8 0-12 8c0 0 28-4 49 16 0 0 12 4 12 45v207s0 69 49 97c0 0 56 41 134-4 0 0 40-28 40-102V821s-4-73 29-126c0 0 24-44 89-81 0 0 40-20 114-20 0 0 65 4 101-37 0 0 45-36 65-97 0 0-45 40-110 44 0 0-117 0-154 17 0 0-158 24-211 215 0 0-12 28-12 89v150s4 33-29 33c0 0-28 0-28-33V784s4-56-32-60c0 0-9-17 28-13 0 0 41 9 57-12 0 0 16-20 12-48 0 0-8 24-37 28 0 0-44 0-56 8 0 0-17 0-21 33Z"/>
    <path d="M867 1105s25 33 77 29c0 0 65 8 102-33 0 0 37-28 37-101V829s-5-85 40-134c0 0 29-49 98-65 0 0 12-12 81-12 0 0 57 8 101-36 0 0-8 44-53 81 0 0-20 20-81 24 0 0-57 4-81 41 0 0-32 28-32 97v187s4 73-41 118c0 0-37 44-114 48 0 0-93 0-134-73Z"/>
    <path d="M1018 1203s69 0 117-49c0 0 45-45 45-114V866s-4-69 53-90c0 0 44-28 101 13 0 0 65 44 33 121 0 0-21 41-69 17 0 0-33-13-33-53 0 0 12 28 33 12 0 0 16-16-4-37 0 0-17-20-41-8 0 0-12 4-12 41 0 0 12 162-16 211 0 0-17 53-73 89 0 0-65 37-134 21Z"/>
  </g>
</svg>
