<svg xmlns="http://www.w3.org/2000/svg" fill="none" viewBox="0 0 1770 1379">
  <path fill="#00416A" d="m1770 0-535 1379H0L1383 0h387Z"/>
  <mask id="a" width="1770" height="1379" x="0" y="0" maskUnits="userSpaceOnUse" style="mask-type:alpha">
    <path fill="#00416A" d="m1770 0-535 1379H0L1383 0h387Z"/>
  </mask>
  <g mask="url(#a)">
    <path fill="#B1D78A" d="M1633 652c-21-172-86-169-127-231-42-63-235-162-338-202-76-30-138-10-205 4 103 12 276 61 322 98 12 11 23 24 32 37 47 15 90 43 122 81l33 35c8 8 18 13 26 21l65 67a21 21 0 0 1 8 16c0 2-1 7-5 4-3-3-9-5-11-2-3 6 3 14 9 21l14 32c12 23 21 47 27 72 8 24 16 47 26 70 20 48 27 100 20 151l-14 97c5-23 12-51 23-88 29-98-5-112-26-283m-770 896c-30 4-50 8-69 6-83-10-241-46-301-143s-165-179-183-302c-18-120-40-228-17-320 0 26 1 51 3 77 4 36 19 70 32 172 6 51 27 88 57 129 12 16 25 32 36 50l8 25c15 34 44 90 82 102 7 2 14 5 20 9 5 6 10 12 13 19 11 13 23 23 36 32l8 12c71 103 191 122 275 132Z"/>
    <path fill="#46A8C6" d="M406 1148c-4-11-10-21-16-32l-3-7c-18-33-32-67-42-102-11-38-12-79-4-117 9-28 19-56 31-83 17-46 23-95 37-142 16-41 39-78 68-110 46-55 101-102 162-139 10-2 20-5 29-10 23-13 34-38 57-51 30-17 62-47 97-53l40-5c19-6 38-14 58-19 8-4 17-6 27-7 19 0 39 4 59 3 21-3 42-12 63-15a6 6 0 0 1 6 1c2 3 0 5-1 7-6 8-12 20-6 28a20 20 0 0 0 17 5c23 0 46-8 68-1 12 3 25 4 38 5l42 5 8 2a7 7 0 0 1 4 6c0 5-6 7-7 12a8 8 0 0 0 4 8c19 8 39 14 60 17l14 5-1-2c-9-13-19-24-31-35-50-41-254-97-350-101-97-5-198 41-313 85-114 43-171 162-252 241-80 78-81 238-73 320 4 36 19 70 32 172 6 51 27 88 57 129 13 16 25 32 36 50-3-24-8-47-16-69"/>
    <path fill="#0F7BB6" d="M1630 775c-10-22-19-46-26-70-6-25-15-49-27-72-4-11-9-22-15-32-5-7-11-14-8-20 2-4 8-2 11 1s5-1 5-4a20 20 0 0 0-8-15l-66-67c-8-9-18-14-26-22l-32-35c-36-43-85-73-140-87 25 8 22 19 34 39 13 21 42 40 62 56 13 9 25 20 36 31 17 18 25 41 37 63 4 8 5 18 12 25 7 6 19 8 24 16 5 9 0 20 0 30 1 21 90 80 31 100l-4 2a6 6 0 0 0 0 5c1 15 13 27 23 39 18 23 28 51 30 80 0 9-1 59-12 73-1 2 0 3 2 4 8 2 19 10 18 17-2 21-15 39-18 60-3 31 19 63 12 94-6 27-33 48-33 76 1 7 1 14-1 20-4 5-9 9-15 12-31 19-45 55-72 79-16 13-36 21-53 34-19 14-45 55-70 57l-25-4c-13-1-26 3-38 10-24 11-47 17-72 26-27 12-52 32-75 49-49 34-97 70-154 90-9 3-21 3-24-5s12-17 13-27c-9-2-16 5-24 11a93 93 0 0 1-54 14c-36 3-72 0-107-9-20-5-39-13-57-24-42-29-91-41-128-77l-17-14 7 12c79 114 219 126 300 134 37 3 74-5 175 3 102 8 109-28 270-86 61-21 118-51 153-107l56-93c9-14 19-28 26-43s20-37 25-32c3 1 2 9 5 11s3-1 4-2c24-38 26-75 29-119 4-54 12-104 20-156 8-51 1-103-18-151"/>
    <path fill="#00416A" d="M1496 1078c-4 2-7 8-9 12l-13 18c-4 7-10 11-14 18l-3 6c-2 5-3 11-3 16s2 10 3 14c1 10-4 17-8 26-6 14-14 28-22 42 16-17 32-34 46-53 6-11 12-23 16-35 7-18 2-39 10-57 2-5 2-11-4-8m-59-397c29 55 43 117 42 179 0 9 1 20 10 23 10 3 9-100 8-109l-8-43c-2-17-12-29-18-44-5-14-12-28-21-40-7-8-12-18-14-29l1-12c0-24-34-33-41-55-2-12-7-23-14-33-14-15-30-29-47-42-17-12-46-14-66-18a21 21 0 0 0-19 3c8 10 18 17 30 23 22 14 42 32 59 53s27 46 45 66c21 24 39 50 54 77m-638 381c-3-6-8-1-12 1l-23 16c-6 5-11 12-13 20-2 7-2 16 3 19a15 15 0 0 0 12-1c4-2 8-3 11-6l13-10c5-5 9-11 11-17a21 21 0 0 0-2-22Zm79 54c46 7 94 10 141 11 14-1 27-5 40-10 10-5 14-7 15-11 1-8 1-16-2-24-3-7-8-12-13-17l-15-11c-5-4-11-4-46-2-23 2-45 7-65 16-12 6-22 13-31 23-9 7-21 11-27 18-4 6 0 7 3 7Zm385-217c-9-7-20-11-31-15l-23-2c-1 1 1 3 5 5l18 12c5 5 10 10 7 15s-13 4-20 0l-22-14c-4-2-7-2-6 2s3 9 0 11a18 18 0 0 1-20-4l-22-21-19-12c-6-5-12-9-19-12-20-4-41-5-61-1-32 5-39 11-49 10-6-1-7-3-9-8-1-6-3-7-6-8l-12-4c-13-5-24-14-31-26l-19-31c-5-7-8-8-14-8-9 0-13 12-17 30-3 18-4 34-13 39a27 27 0 0 1-22 1c-6-2-12-3-19-3-10 0-19 3-27 9-10 6-21 11-32 14-13 3-17 3-21 3-3 1-5 0-7 9-3 8-7 17-12 18-5 0-9-1-12-4l-18-12a23 23 0 0 0-26 4c-16 20-27 44-30 70-5 36-9 70 0 74 10 3 25-41 39-34 14 5 7 111 7 134-1 23-6 58 3 81 9 24 18 35 54 65 18 14 35 29 51 44 11 10 23 18 35 25a16 16 0 0 0 19-2l4-6c3-14 12-27 23-37 16-12 19-23 15-30s-10-7-21-5c-18 5-38 6-57 3-28-4-70-15-74-35-2-14 9-28 12-39 3-12 9-33-3-43-8-6-14 3-18 9-4 5-15 11-15-4 1-15 1-29 3-43l-3-36a28 28 0 0 1 9-26l32-18c7-4 14-8 14-18 2-14 7-28 13-40 4-7 7-14 9-22 0-5 3-10 12-12 8-1 11-1 9 6-3 7-5 15-6 23a16 16 0 0 0 10 14 29 29 0 0 0 29 2 89 89 0 0 1 91 0l32 8 7-2a10 10 0 0 0 3-11c-1-6-8-20-2-23 7-3 14 6 19 19 5 14 12 27 21 39 9 8 19 13 30 15 13 5 21 4 26 25 3 12 5 25 6 38 0 21-4 25-4 40 0 17 2 22-4 30-3 3-5 5-8 3-2-2 0-4 1-8v-20l-1-8c0-4-2-6-5-5-6 0-10 6-20 6l-46 3-66 3c-20 1-41 1-61-1l-31-4c-4 0-25 2-28 16-2 7-1 10 4 11 5 2 27 3 38 4l46 6 35-2c9 0 29 2 29 30 0 10 1 18 8 23 17 10 35 19 54 26 17 9 37 12 56 7 11-5 15-12 12-23-4-10-5-19 0-22 4-4 10-8 31-7 12 1 29 7 36-4 7-12 17-22 29-29 18-13 28-21 27-52-3-40-2-80 0-120 5-32 25-48 37-71 10-20 15-30 0-38M650 498l-6 3-17 9c-13 6-23 11-25 26v6l1 2c3 4 16-3 19-5 5-3 8-8 10-13l8-11 8-12c1-2 2-4 1-5m91 326c1 5 6 11 18 7l49-15c12-2 24-3 36-2 7 1 7-6 4-7l-40-12c-7-2-14-2-21 0l-36 12c-10 3-14 9-10 18m22-119c2 5 8 8 23 6 17-1 75-10 91 2 9 7 10 9 11 25 2 17 3 16 6 16 2 1 9-3 17-17 8-13 40-27 83-31s79-4 123 19 91 59 114 48c11-5 19-24 7-70-7-31-20-59-40-83-7-8-18-17-25-13-8 5 2 29 9 41 7 11 8 18-6 13-15-5-29-14-40-25-14-14-35-53-47-47-11 7 4 33-2 36-7 3-19-12-30-27-12-16-20-34-34-39-15-5-54-9-110 15-47 22-89 51-125 86-26 28-27 40-25 45Zm440 152c0-2-5-3-8-2-14-2-28-7-39-16-14-13-27-29-34-37a40 40 0 0 0-38-15c-22 3-42 9-40 19 1 5 13 3 25 1 12-3 30-5 35 2 7 14 16 26 28 35 14 13 33 21 53 21 21 0 18-7 18-8Zm25-36-34 5c-3 0-9 0-8 4 0 4 13 9 33 7 19-3 28-5 27-12-1-6-10-5-19-4M557 612c3-12 15-20 14-32 0-1 0-2-3-1-15 7-29 30-40 41-30 30-57 63-81 98-20 45-27 95-22 145 2 26 7 52 14 78 5 22 5 47 12 67 2 7 6 12 11 15 2 1 6 1 6-6 0-62 2-125 6-187 4-35 13-70 27-103s58-60 57-96v-18m1028 474c-6 27-33 48-33 76 1 6 1 13-1 19-4 6-9 10-15 12-31 19-45 56-72 79-16 14-36 22-53 34-19 14-45 56-70 57-9 0-17-2-25-4-13 0-26 3-38 10-24 12-47 17-72 27-26 11-51 32-75 48-48 34-97 70-154 90-8 3-21 4-24-5-3-8 12-16 14-27-9-2-17 5-25 11-16 10-35 15-54 15-36 2-72-1-107-10-20-4-39-12-57-23-41-29-90-42-127-77-16-15-42-30-53-46-4-8-8-14-14-20-6-4-13-6-20-8-37-13-68-68-81-102-13-31-12-64-24-94l-16-33-3-7c-18-33-32-67-42-102-11-38-12-79-4-117 9-28 19-56 31-82 17-46 23-96 37-142 16-41 39-78 68-110 46-55 100-103 162-140 10-2 20-5 29-9 23-14 34-39 57-52 29-16 62-47 97-53l40-5 57-19c9-3 18-6 27-7 20 0 40 5 59 3 21-2 42-12 64-15a6 6 0 0 1 6 2c1 2 0 4-2 6-6 9-12 20-5 28a20 20 0 0 0 16 5c23 0 46-8 68-1 13 3 26 4 38 5l42 5 8 2a7 7 0 0 1 4 7c0 4-6 6-7 11a8 8 0 0 0 5 8c17 7 35 12 54 16 27 7 24 19 36 39s42 40 62 56c13 9 25 20 36 31 17 18 25 41 37 63 4 8 5 18 12 25 7 6 19 8 24 16 5 9 0 20 0 31 2 21 90 79 31 99l-4 2-1 5c2 15 14 27 24 39 17 23 28 51 29 81 1 8-1 59-11 73-2 2-1 3 1 4 9 2 19 9 18 16-2 21-15 40-17 60-3 32 18 63 11 94m-466-30c-5 0-6 0-8 3s-2 4 0 12c8 30 8 62 0 92-4 10 5 10 7 10h8c4 0 5-3 7-8 2-17 3-34 2-50 1-17-3-34-10-49-3-7-3-11-6-10ZM842 887l-11-7c-3-2-4-1-7 0-8 7-19 12-29 15l-32 6c-4 0-8-2-10 4-3 6-2 9 2 10 9 4 19 5 29 4 13-1 24-4 35-9 9-3 17-7 25-13 4-3 3-8-2-11m251 16c-13 7-27 10-41 9-13 0-26-1-38-3-5 0-7-5-7-11-1-12 7-9 14-9 8 0 15-2 26-1h41c7-1 13-4 18-9 3-2 4-1 7 5 2 6-7 11-20 18"/>
    <path fill="#7FA9C8" d="M1457 1131c-2 6-3 11-3 17 0 5 2 9 3 14 1 10-4 16-8 26-6 14-14 28-22 41 16-17 32-34 46-53 6-11 12-22 16-34 7-19 2-40 10-57 2-5 2-11-3-8-4 3-7 9-10 13l-12 18c-4 6-10 11-14 18l-3 5Zm21-272c0 10 1 21 10 24s9-100 7-109l-7-43c-2-17-12-29-18-44-6-14-13-28-21-40-7-8-12-18-14-29l1-12c0-24-34-34-41-55-2-12-7-23-14-33-14-15-30-30-47-42s-46-14-66-18a21 21 0 0 0-19 3c8 9 18 17 29 23 23 14 43 32 60 53 16 21 27 46 45 66 21 24 39 50 54 77l13 27c20 48 30 100 29 152M603 543c4 5 16-3 20-4 4-4 8-8 10-13l7-11 9-12 1-4c-1-1-4 1-5 2l-18 9c-13 6-23 11-25 26v6l1 1ZM474 830l-3 39-3 148c0 7-4 7-6 6-5-4-10-9-11-15-7-21-7-46-12-67-7-26-12-52-14-79-5-49 2-99 22-145 9-16 20-32 33-46 15-18 32-35 49-52 10-10 24-34 39-41 3-1 3 0 3 1 1 13-11 20-13 33v17c1 37-44 64-57 96-13 34-22 68-26 104"/>
    <path fill="#fff" d="M1022 889c7 0 14-2 25-1h41c7-1 13-4 18-9 3-2 5-1 7 5 3 6-7 11-20 18-12 7-27 10-41 9-13 0-25-1-38-3-5 0-6-5-7-11 0-11 7-9 15-9m-259 12c11 0 22-2 32-6 11-2 21-7 30-14 3-2 3-3 7 0 3 3 6 3 11 6a7 7 0 0 1 1 11c-7 6-15 10-24 13-11 5-23 8-35 9-10 1-20 0-29-4-4-1-5-5-3-10 3-5 7-5 10-5Zm356 273c-2 0-12 0-7-10 8-30 8-61 0-92-2-8-2-9 0-12 3-2 3-3 8-3 2 0 3 3 6 11 7 16 11 33 10 50 1 16 0 33-2 49-2 5-3 9-7 9h-8M911 786c-9 0-14 13-17 30-3 18-5 34-13 40a27 27 0 0 1-23 1c-6-2-12-4-18-3-10 0-20 3-28 8-9 7-20 12-31 14l-21 4c-4 0-6 0-8 8s-7 18-12 18c-4 1-8-1-11-3l-18-12a23 23 0 0 0-26 4c-17 20-27 44-30 70-5 36-9 70 0 73 10 3 25-41 40-34 13 6 6 112 6 135-1 23-6 57 3 81s18 35 54 65c18 14 35 28 51 44 11 9 23 18 35 25a16 16 0 0 0 23-8c3-15 12-28 23-38 16-12 19-22 15-29s-10-8-21-6c-18 5-38 6-57 4-28-5-70-16-74-35-2-14 9-28 12-40 3-11 9-32-3-42-8-6-14 3-18 8-4 6-15 12-15-3 1-15 1-30 3-43l-3-36a27 27 0 0 1 10-26l32-18c7-4 14-8 14-19 2-14 7-27 13-40 5-6 7-14 9-22 0-5 3-9 12-11 8-2 11-1 9 6-3 7-5 15-6 23a16 16 0 0 0 10 14 29 29 0 0 0 29 1 89 89 0 0 1 91 1l32 8 8-2a10 10 0 0 0 2-12c-1-6-8-19-2-22 7-3 14 6 19 18 5 14 12 27 21 39 9 8 19 13 30 16 13 4 21 3 26 24 3 13 6 26 6 39 0 21-3 24-3 39 0 18 1 23-5 31-2 2-5 5-8 2-2-2 0-4 1-7v-21l-1-8c0-3-2-5-5-5-6 1-10 6-20 7l-46 2c-42 3-85 4-127 2l-31-4c-4 0-24 3-28 16-2 8-1 11 4 12l38 4c10 1 34 5 46 5l35-1c9-1 29 1 30 29 0 10 0 18 7 23 17 10 36 19 54 27 17 9 37 11 56 6 11-5 16-12 12-22-4-11-5-19 0-23 4-4 10-8 32-7 12 1 28 7 35-4 7-12 17-22 29-29 19-12 28-21 27-52-2-40-2-80 1-120 4-32 24-48 36-71 10-19 15-30 0-37-9-7-20-12-31-15l-23-2c-1 1 1 3 5 5l18 12c5 5 10 10 7 15s-13 4-20 0l-22-14c-4-2-7-2-6 2s3 9 0 11a18 18 0 0 1-20-4c-8-7-11-12-22-21-6-4-12-9-19-12-6-5-12-9-19-12-20-5-41-5-61-1-32 5-39 11-49 10-6-1-7-3-9-8-1-6-3-7-6-8l-12-4c-13-5-24-14-31-26l-19-31c-5-7-8-9-14-8m109 339c14-2 27-5 40-10 10-5 13-7 15-11 1-8 0-17-2-25-3-6-8-11-13-16l-15-11c-5-4-11-5-46-2-23 1-45 7-66 16-11 5-21 13-30 23-9 7-21 11-27 18-5 7 0 7 3 7 47 7 94 11 141 12m-253-11 11-5 12-11c5-5 9-11 12-17a21 21 0 0 0-2-22c-3-6-9-1-13 1l-22 16c-6 5-11 12-13 20-2 7-2 16 3 19a13 13 0 0 0 11-1m419-283c0 4 14 8 33 6 19-3 28-5 27-11-1-7-10-6-18-5l-34 5c-4 0-9 1-9 5m-141-26c2 6 14 4 26 2 12-3 30-6 34 2 7 14 16 25 28 35 14 13 33 20 53 21 21-1 18-7 18-9-1-2-5-2-9-2-14-1-28-7-39-16-13-12-26-28-34-37a40 40 0 0 0-38-14c-21 2-41 9-39 18Zm-286 25 49-15c12-2 24-3 36-2 7 1 7-6 3-7l-40-11c-6-3-14-3-20 0l-36 11c-11 3-14 9-10 18 1 5 5 11 18 7m358-105c-43-22-80-22-123-19s-75 17-83 31-15 17-17 17-4 1-6-16c-1-17-2-18-11-24-16-13-73-4-91-3-15 2-21-1-23-6s-1-17 26-44c36-36 79-65 125-86 56-25 95-21 110-16s22 24 34 39c11 16 23 30 30 27 6-3-9-29 3-35 11-6 33 33 46 46 11 12 25 20 41 26 13 4 12-3 5-14s-16-36-9-40c7-5 18 5 25 13 20 24 33 52 40 82 12 46 5 65-7 71-23 10-71-27-113-49"/>
  </g>
</svg>
