<svg xmlns="http://www.w3.org/2000/svg" viewBox="0 0 122.31 119.15"><title>Alaska Airlines Eskimo logo</title><path d="M569.84,492c-1.9-15.14-7.63-14.91-11.27-20.39s-20.71-14.24-29.79-17.81c-6.7-2.64-12.18-.87-18.07.35,9.12,1.06,24.38,5.38,28.44,8.7a20.59,20.59,0,0,1,2.71,3.12s.06.1.1.13a23.29,23.29,0,0,1,10.73,7.09c1,1,1.9,2.09,2.9,3.09.71.71,1.58,1.19,2.29,1.9,1.93,2,3.83,3.93,5.77,5.93a1.88,1.88,0,0,1,.68,1.35c0,.23-.1.61-.39.35s-.81-.42-1-.1c-.26.48.26,1.16.74,1.8a17.49,17.49,0,0,1,1.32,2.83,32.08,32.08,0,0,1,2.38,6.35,48.87,48.87,0,0,0,2.29,6.15,26.63,26.63,0,0,1,1.74,13.34c-.45,2.87-.9,5.7-1.22,8.54.45-2,1.06-4.51,2-7.7,2.58-8.7-.45-9.89-2.32-25M502,571c-2.61.35-4.41.74-6.12.55-7.31-.87-21.26-4-26.54-12.56s-14.53-15.78-16.11-26.64c-1.55-10.6-3.51-20.1-1.51-28.25a59.82,59.82,0,0,0,.29,6.76c.32,3.19,1.67,6.25,2.77,15.17.55,4.51,2.38,7.83,5.06,11.4,1.1,1.45,2.22,2.87,3.19,4.41a11.43,11.43,0,0,0,.71,2.25c1.29,3,3.9,7.92,7.22,9a4.67,4.67,0,0,1,1.74.74,7.06,7.06,0,0,1,1.19,1.71,14.67,14.67,0,0,0,3.19,2.83c.23.32.45.64.64,1C484,568.46,494.63,570.2,502,571" transform="translate(-450.85 -452.42)" style="fill:#b1d78a"/><path d="M461.61,535.8c-.39-1-.9-1.93-1.39-2.9-.1-.19-.19-.39-.32-.61a44.44,44.44,0,0,1-3.64-9,21.09,21.09,0,0,1-.35-10.31,65.38,65.38,0,0,1,2.71-7.25c1.48-4.06,2-8.41,3.25-12.53a25,25,0,0,1,2.38-4.83,30.9,30.9,0,0,1,3.61-4.9,57.28,57.28,0,0,1,11.21-10.4,13.32,13.32,0,0,1,3.09-1.9,10.85,10.85,0,0,0,2.58-.81c2-1.19,3-3.38,5-4.51,2.64-1.48,5.51-4.19,8.57-4.7a32.71,32.71,0,0,0,3.51-.45c1.71-.52,3.35-1.19,5.09-1.67a9,9,0,0,1,2.38-.61c1.71,0,3.48.39,5.19.23,1.87-.19,3.7-1,5.6-1.29a.56.56,0,0,1,.55.13c.13.19,0,.42-.13.58-.55.74-1.06,1.77-.48,2.45a1.78,1.78,0,0,0,1.45.48c2,0,4.06-.74,6-.13a19.48,19.48,0,0,0,3.35.45c1.22.16,2.48.29,3.7.45a2.81,2.81,0,0,1,.71.16.62.62,0,0,1,.35.58c0,.39-.55.58-.64,1a.67.67,0,0,0,.39.71,23.25,23.25,0,0,0,4.77,1.39c.06,0,.1,0,.16.06a2.7,2.7,0,0,0,.32.06c.45.13.87.29,1.29.42,0,0-.06-.1-.1-.13a20.58,20.58,0,0,0-2.71-3.12c-4.41-3.64-22.42-8.5-30.92-8.92s-17.43,3.67-27.54,7.51-15.14,14.3-22.23,21.23-7.18,21-6.44,28.22c.32,3.19,1.67,6.25,2.77,15.17.55,4.51,2.38,7.83,5.06,11.4,1.1,1.45,2.22,2.87,3.19,4.41a31.79,31.79,0,0,0-1.39-6.06" transform="translate(-450.85 -452.42)" style="fill:#46a8c6"/><path d="M569.55,502.88a48.87,48.87,0,0,1-2.29-6.15,30.19,30.19,0,0,0-2.38-6.35,15.13,15.13,0,0,0-1.32-2.83c-.48-.64-1-1.29-.74-1.8.23-.32.74-.19,1,.1s.39-.13.39-.35a1.75,1.75,0,0,0-.68-1.35c-1.93-2-3.83-3.93-5.77-5.93-.71-.74-1.58-1.19-2.29-1.9-1-1-1.93-2.06-2.9-3.09-4.19-4.67-7.51-6.12-12-7.57a1.81,1.81,0,0,0-.32-.06c2.22.64,2,1.67,3,3.38,1.16,1.9,3.74,3.58,5.48,4.93a28.61,28.61,0,0,1,3.19,2.74c1.51,1.61,2.22,3.64,3.25,5.54.39.74.48,1.64,1.06,2.22s1.67.71,2.13,1.45,0,1.77,0,2.67c.1,1.84,7.92,7,2.74,8.76a.56.56,0,0,0-.35.19.55.55,0,0,0-.06.45c.16,1.32,1.22,2.35,2.06,3.41a12.64,12.64,0,0,1,2.61,7.09c.06.77-.06,5.22-1,6.44-.13.19-.06.29.13.35.77.19,1.67.87,1.61,1.48-.19,1.84-1.35,3.48-1.55,5.28-.32,2.8,1.61,5.57,1,8.34-.52,2.38-2.87,4.25-2.87,6.7a3.92,3.92,0,0,1-.13,1.74,3,3,0,0,1-1.29,1.06c-2.71,1.64-4,4.86-6.38,6.93-1.39,1.19-3.12,1.93-4.61,3-1.74,1.26-4,4.93-6.22,5.06a10.72,10.72,0,0,1-2.22-.39,6,6,0,0,0-3.29.9c-2.13,1-4.22,1.48-6.38,2.35-2.35,1-4.57,2.83-6.64,4.28-4.28,3-8.57,6.18-13.59,7.92-.74.26-1.84.32-2.09-.42s1.06-1.48,1.19-2.42c-.81-.16-1.48.48-2.16,1a9,9,0,0,1-4.77,1.29,30.12,30.12,0,0,1-9.44-.87,16.2,16.2,0,0,1-5-2.06c-3.7-2.54-8-3.64-11.27-6.8a12.47,12.47,0,0,0-1.51-1.22c.23.32.45.64.64,1,6.89,10.08,19.23,11.14,26.44,11.85,3.22.29,6.47-.42,15.43.26S529,569,543.2,563.92c5.35-1.9,10.37-4.54,13.43-9.5,1.67-2.71,3.35-5.41,5-8.18.74-1.26,1.61-2.48,2.25-3.77s1.74-3.25,2.25-2.87c.26.16.13.84.39,1s.29-.06.39-.19c2.13-3.29,2.32-6.6,2.58-10.5.32-4.7,1-9.12,1.77-13.72a25.74,25.74,0,0,0-1.67-13.3" transform="translate(-450.85 -452.42)" style="fill:#0f7bb6"/><path d="M557.7,529.55c-.35.19-.55.77-.81,1.1a17.27,17.27,0,0,0-1.1,1.58c-.35.58-.87,1-1.22,1.61a3.52,3.52,0,0,0-.26.48,3,3,0,0,0-.26,1.48c0,.42.19.81.23,1.19.13.9-.35,1.48-.68,2.29a34,34,0,0,1-2,3.7c.19.1.39-.06.52-.23a52.72,52.72,0,0,0,3.54-4.48,14.41,14.41,0,0,0,1.48-3c.61-1.64.19-3.51.87-5.06.13-.45.16-1-.35-.68m-5.19-35.08c.42.77.77,1.58,1.13,2.38a32.32,32.32,0,0,1,2.58,13.37c0,.84.06,1.87.87,2.13s.77-8.86.64-9.63c-.26-1.29-.48-2.54-.64-3.83-.19-1.48-1.06-2.54-1.61-3.87a18.22,18.22,0,0,0-1.84-3.51,4.94,4.94,0,0,1-1.22-2.54c0-.35.1-.74.1-1.1,0-2.09-3-2.93-3.67-4.83a6.87,6.87,0,0,0-1.22-2.87,23.71,23.71,0,0,0-4.12-3.7c-1.51-1.13-4.06-1.26-5.86-1.61a1.89,1.89,0,0,0-1.67.26,8.51,8.51,0,0,0,2.61,2,20.66,20.66,0,0,1,5.22,4.67c1.48,1.87,2.42,4.09,4,5.86a37.79,37.79,0,0,1,4.73,6.8M496.3,528c-.29-.52-.77-.1-1.1.1s-1.29.9-2,1.42a3.39,3.39,0,0,0-1.13,1.77c-.19.58-.19,1.42.26,1.64a1.38,1.38,0,0,0,1.06-.1,4.26,4.26,0,0,0,.93-.48,8.62,8.62,0,0,0,1.13-.9,4.68,4.68,0,0,0,1-1.55,1.85,1.85,0,0,0-.19-1.9m6.93,4.73a91.92,91.92,0,0,0,12.5,1,11,11,0,0,0,3.51-.9c.9-.39,1.19-.58,1.35-.93a5.73,5.73,0,0,0-.19-2.16,4.63,4.63,0,0,0-1.19-1.45,12.41,12.41,0,0,0-1.29-1c-.45-.32-1-.39-4.06-.13a16.09,16.09,0,0,0-5.77,1.39,8,8,0,0,0-2.67,2c-.81.61-1.9,1-2.38,1.61-.42.48-.06.58.19.61m34-19.17a9.6,9.6,0,0,0-2.71-1.26,9.93,9.93,0,0,0-1.51-.19c-.39-.06-.48-.06-.55,0s.06.23.45.45a9.69,9.69,0,0,1,1.58,1.06c.45.42.9.87.61,1.32s-1.16.29-1.8-.06-1.55-1.06-1.9-1.22-.61-.16-.52.19.26.77,0,1a1.62,1.62,0,0,1-1.8-.39c-.71-.61-.93-1-1.87-1.8a19.07,19.07,0,0,0-1.74-1.13,5,5,0,0,0-1.61-1,13,13,0,0,0-5.41-.13c-2.8.48-3.45,1-4.32.9-.52-.06-.61-.23-.77-.74s-.26-.58-.55-.71-.58-.06-1.06-.29a5.57,5.57,0,0,1-2.77-2.29c-.9-1.32-1.22-2.13-1.64-2.74s-.74-.77-1.26-.74c-.74,0-1.16,1.06-1.45,2.64s-.42,3-1.16,3.48a2.36,2.36,0,0,1-2,.1,3.69,3.69,0,0,0-1.61-.29,4.43,4.43,0,0,0-2.45.74,8.65,8.65,0,0,1-2.77,1.26c-1.16.26-1.51.26-1.84.32s-.48,0-.68.71-.61,1.55-1.06,1.61a1.39,1.39,0,0,1-1-.32,13.22,13.22,0,0,0-1.58-1.06,2,2,0,0,0-2.29.35,11.71,11.71,0,0,0-2.64,6.18c-.48,3.16-.81,6.18,0,6.47s2.13-3.58,3.45-3c1.16.48.61,9.86.55,11.89s-.48,5.06.32,7.15,1.55,3.09,4.77,5.73a54.73,54.73,0,0,1,4.48,3.87,17.94,17.94,0,0,0,3.06,2.19,1.4,1.4,0,0,0,2-.68,6.6,6.6,0,0,1,2.06-3.32c1.39-1.06,1.71-2,1.35-2.61s-.93-.64-1.87-.48a12.57,12.57,0,0,1-5,.32c-2.48-.39-6.22-1.39-6.54-3.12-.23-1.22.74-2.45,1-3.45s.81-2.9-.23-3.74c-.68-.55-1.26.26-1.61.74s-1.29,1-1.26-.32.06-2.61.19-3.77a14.45,14.45,0,0,0-.23-3.19,2.5,2.5,0,0,1,.81-2.29c.74-.48,2.25-1.22,2.83-1.58s1.19-.71,1.22-1.64a10.9,10.9,0,0,1,1.16-3.54,5.29,5.29,0,0,0,.74-1.93c.06-.45.32-.84,1.06-1s1-.1.84.52a6.78,6.78,0,0,0-.58,2,1.37,1.37,0,0,0,.93,1.22,2.56,2.56,0,0,0,2.54.16,7.81,7.81,0,0,1,8.05.06c.74.23.84.26,2.19.61a1.42,1.42,0,0,0,1.26-.1.89.89,0,0,0,.26-1c-.13-.55-.77-1.74-.19-2s1.19.55,1.64,1.64a14.75,14.75,0,0,0,1.87,3.48,6.16,6.16,0,0,0,2.67,1.35c1.1.39,1.8.29,2.25,2.16a14.65,14.65,0,0,1,.55,3.38c0,1.87-.32,2.16-.32,3.48,0,1.55.16,2-.42,2.71-.19.23-.42.42-.64.23s0-.39.06-.68a5.36,5.36,0,0,0,0-1.8,3.6,3.6,0,0,0-.06-.71c0-.32-.19-.48-.45-.45-.58.06-.93.52-1.8.58s-2.83.1-4.06.19-3.77.26-5.77.32a38.07,38.07,0,0,1-5.41-.13c-2-.23-2.38-.32-2.74-.32s-2.16.19-2.48,1.42c-.16.64-.1.9.35,1s2.42.23,3.35.35,3,.42,4.06.45,2.35-.1,3.12-.1,2.51.13,2.58,2.61c0,.84.06,1.58.64,2a41.75,41.75,0,0,0,4.8,2.35,7,7,0,0,0,4.9.58c1-.42,1.39-1.06,1.06-2s-.39-1.67,0-2,.87-.68,2.8-.58c1.06.06,2.48.58,3.12-.35a7,7,0,0,1,2.58-2.58c1.61-1.1,2.42-1.84,2.35-4.57a82.8,82.8,0,0,1,.06-10.57c.39-2.87,2.19-4.28,3.22-6.28.93-1.74,1.32-2.61,0-3.32M483.1,478.47c-.06-.06-.32.13-.48.23-.48.29-1,.52-1.55.77-1.1.52-2,1-2.19,2.32a.94.94,0,0,0,0,.52c0,.06,0,.1.06.16.29.39,1.42-.23,1.74-.42a2.67,2.67,0,0,0,.9-1.1c.19-.32.45-.68.64-1s.48-.71.74-1.06c.06-.16.16-.35.1-.42m8,28.76c.13.39.52.93,1.61.55s3.22-1,4.32-1.29a10.4,10.4,0,0,1,3.19-.19c.58.06.61-.52.29-.64s-2.54-.71-3.54-1a2.57,2.57,0,0,0-1.8,0c-.39.1-2.29.71-3.19,1s-1.19.81-.87,1.64M493,496.76c.16.45.71.71,2.06.58,1.51-.13,6.6-.87,8,.19.77.58.9.71,1,2.19s.26,1.35.48,1.39.84-.29,1.51-1.48,3.51-2.45,7.31-2.77,7-.32,10.89,1.71,8,5.15,10,4.22c1-.48,1.67-2.13.64-6.22a17.34,17.34,0,0,0-3.51-7.28c-.64-.71-1.61-1.51-2.25-1.13s.16,2.58.81,3.58.71,1.58-.48,1.16a9.3,9.3,0,0,1-3.58-2.22c-1.19-1.19-3.06-4.64-4.09-4.09s.29,2.87-.26,3.12-1.64-1-2.64-2.38-1.71-3-3-3.45-4.7-.81-9.7,1.39a38.51,38.51,0,0,0-11,7.57c-2.29,2.42-2.38,3.48-2.22,3.93m38.85,13.4c0-.16-.45-.23-.74-.19a6.77,6.77,0,0,1-3.45-1.39c-1.19-1.1-2.32-2.51-3-3.22a3.49,3.49,0,0,0-3.32-1.32c-1.9.19-3.7.77-3.51,1.61.1.45,1.16.32,2.22.1s2.64-.45,3.06.23a11,11,0,0,0,2.42,3.09,7.23,7.23,0,0,0,4.7,1.8c1.87,0,1.61-.58,1.58-.71M534,507c-.68.1-2.71.42-3,.42s-.77.06-.74.42,1.22.77,2.93.55,2.45-.42,2.38-1-.9-.48-1.61-.39m-59-18.49c.23-1.1,1.29-1.77,1.19-2.87,0-.06,0-.19-.29-.06-1.26.58-2.54,2.67-3.45,3.58-1.48,1.48-2.93,3-4.32,4.61a17.81,17.81,0,0,0-2.87,4.06,25.07,25.07,0,0,0-1.93,12.76,41.5,41.5,0,0,0,1.19,6.93c.52,1.93.48,4.12,1.06,5.93a2.44,2.44,0,0,0,1,1.32c.16.1.55.1.55-.55,0-4.35,0-8.7.23-13q.1-1.74.29-3.48A34.23,34.23,0,0,1,470,498.6c1.19-2.87,5.12-5.25,5-8.47a5.23,5.23,0,0,1,0-1.58m90.64,41.81c-.52,2.38-2.87,4.25-2.87,6.7a3.92,3.92,0,0,1-.13,1.74,3,3,0,0,1-1.29,1.06c-2.71,1.64-4,4.86-6.38,6.93-1.39,1.19-3.12,1.93-4.61,3-1.74,1.26-4,4.93-6.22,5.06a10.72,10.72,0,0,1-2.22-.39,6,6,0,0,0-3.29.9c-2.13,1-4.22,1.48-6.35,2.35-2.35,1-4.57,2.83-6.64,4.28-4.28,3-8.57,6.18-13.59,7.92-.74.26-1.84.32-2.09-.42s1.06-1.48,1.19-2.42c-.81-.16-1.48.48-2.16,1a9,9,0,0,1-4.77,1.29,30.12,30.12,0,0,1-9.44-.87,16.2,16.2,0,0,1-5-2.06c-3.7-2.54-8-3.64-11.27-6.8-1.35-1.29-3.7-2.61-4.67-4.06a7.06,7.06,0,0,0-1.19-1.71,6,6,0,0,0-1.74-.74c-3.32-1.1-6-6-7.22-9-1.13-2.67-1-5.6-2.09-8.31-.39-1-.9-1.93-1.39-2.9-.1-.19-.19-.39-.32-.61a44.44,44.44,0,0,1-3.64-9,21.09,21.09,0,0,1-.35-10.31,65.38,65.38,0,0,1,2.71-7.25c1.48-4.06,2-8.41,3.25-12.53a25,25,0,0,1,2.38-4.83,30.9,30.9,0,0,1,3.61-4.9,56.21,56.21,0,0,1,11.18-10.4,13.32,13.32,0,0,1,3.09-1.9,10.85,10.85,0,0,0,2.58-.81c2-1.19,3-3.38,5-4.51,2.64-1.48,5.51-4.19,8.57-4.7a32.71,32.71,0,0,0,3.51-.45c1.71-.52,3.35-1.19,5.09-1.67a9,9,0,0,1,2.38-.61c1.71,0,3.48.39,5.19.23,1.87-.19,3.7-1,5.6-1.29a.56.56,0,0,1,.55.13c.13.19,0,.42-.13.58-.55.74-1.06,1.77-.48,2.45a1.78,1.78,0,0,0,1.45.48c2,0,4.06-.74,6-.13a19.07,19.07,0,0,0,3.35.45c1.22.16,2.48.29,3.7.45a2.81,2.81,0,0,1,.71.16.62.62,0,0,1,.35.58c0,.39-.55.58-.61,1a.67.67,0,0,0,.39.71,23.25,23.25,0,0,0,4.77,1.39c2.42.64,2.09,1.67,3.16,3.45s3.74,3.58,5.48,4.93a28.61,28.61,0,0,1,3.19,2.74c1.51,1.61,2.22,3.64,3.25,5.54.39.74.48,1.64,1.06,2.22s1.67.71,2.13,1.45,0,1.77,0,2.71c.13,1.84,7.92,7,2.74,8.76a.56.56,0,0,0-.35.19.72.72,0,0,0-.1.45c.16,1.32,1.22,2.35,2.06,3.41a12.64,12.64,0,0,1,2.61,7.09c.06.77-.06,5.22-1,6.44-.13.19-.06.29.13.35.77.19,1.67.87,1.61,1.48-.19,1.84-1.35,3.48-1.55,5.28-.29,2.77,1.61,5.54,1,8.31m-41.13-2.71c-.39,0-.48.06-.68.29s-.16.35,0,1.06a16.16,16.16,0,0,1,.48,3.45,15.22,15.22,0,0,1-.48,4.64c-.35.9.45.9.58.9h.77c.32,0,.42-.29.55-.74a27.82,27.82,0,0,0,.23-4.38,9.11,9.11,0,0,0-.93-4.32c-.23-.64-.26-.93-.52-.9M500.1,512.71c-.42-.26-.68-.32-1-.55s-.35-.16-.61,0a6.27,6.27,0,0,1-2.61,1.26,12,12,0,0,1-2.83.52c-.32,0-.64-.1-.87.39s-.13.77.19.9a5.66,5.66,0,0,0,2.61.35,9.24,9.24,0,0,0,3.09-.81,7.87,7.87,0,0,0,2.13-1.1c.35-.35.29-.71-.13-1m22.13,1.42a7.34,7.34,0,0,1-3.64.77,20.34,20.34,0,0,1-3.38-.23c-.39,0-.55-.45-.58-1-.06-1.06.58-.84,1.26-.81s1.29-.13,2.25-.1a14.72,14.72,0,0,0,3.61,0,3,3,0,0,0,1.61-.77c.26-.19.39-.1.61.42s-.61,1-1.74,1.64" transform="translate(-450.85 -452.42)" style="fill:#00416a"/><path d="M554.31,534.29a3,3,0,0,0-.26,1.48c0,.39.19.77.23,1.19.13.9-.35,1.48-.68,2.29a34,34,0,0,1-2,3.7c.19.1.39-.06.52-.23a52.72,52.72,0,0,0,3.54-4.48,15.25,15.25,0,0,0,1.48-3c.61-1.64.19-3.51.87-5.06.16-.39.19-.93-.32-.64-.35.19-.55.77-.81,1.1a17.27,17.27,0,0,0-1.1,1.58c-.35.58-.87,1-1.22,1.61a1.35,1.35,0,0,0-.29.45m1.9-24c0,.84.06,1.87.87,2.13s.77-8.86.64-9.63c-.26-1.29-.48-2.54-.64-3.83-.19-1.48-1.06-2.54-1.61-3.87a18.22,18.22,0,0,0-1.84-3.51,4.94,4.94,0,0,1-1.22-2.54c0-.35.1-.74.1-1.1,0-2.09-3-2.93-3.67-4.83a6.87,6.87,0,0,0-1.22-2.87,23.71,23.71,0,0,0-4.12-3.7c-1.51-1.13-4.06-1.29-5.86-1.61a1.89,1.89,0,0,0-1.67.26,8.51,8.51,0,0,0,2.61,2,20.66,20.66,0,0,1,5.22,4.67c1.48,1.87,2.42,4.09,4,5.86a35.8,35.8,0,0,1,4.77,6.8c.42.77.77,1.58,1.13,2.38a32.29,32.29,0,0,1,2.54,13.37M479,482.43c.29.39,1.42-.26,1.74-.42a2.67,2.67,0,0,0,.9-1.1c.19-.35.45-.68.64-1s.48-.71.74-1.06c.06-.1.16-.29.1-.35s-.32.13-.48.23c-.48.29-1,.52-1.55.77-1.1.52-2,1-2.19,2.32a.94.94,0,0,0,0,.52.46.46,0,0,0,.06.1m-11.34,25.25a31.66,31.66,0,0,0-.29,3.48c-.19,4.38-.26,8.7-.23,13,0,.64-.39.64-.55.55a2.29,2.29,0,0,1-1-1.32c-.58-1.8-.55-4-1.06-5.93a38.44,38.44,0,0,1-1.19-6.93,25.07,25.07,0,0,1,1.93-12.76,17.81,17.81,0,0,1,2.87-4.06c1.39-1.58,2.83-3.12,4.32-4.61.93-.9,2.19-3,3.45-3.58.26-.13.29,0,.32.06.1,1.13-1,1.77-1.19,2.87a8.26,8.26,0,0,0,0,1.55c.1,3.22-3.83,5.6-5,8.47a36.07,36.07,0,0,0-2.35,9.15" transform="translate(-450.85 -452.42)" style="fill:#7fa9c8"/><path d="M515.89,512.9c.68,0,1.29-.13,2.25-.1a14.72,14.72,0,0,0,3.61,0,3,3,0,0,0,1.61-.77c.26-.19.39-.1.61.42s-.61,1-1.74,1.64a7.34,7.34,0,0,1-3.64.77,20.34,20.34,0,0,1-3.38-.23c-.39,0-.55-.45-.58-1-.06-1,.58-.81,1.26-.81m-22.8,1.1a12,12,0,0,0,2.83-.52,5.87,5.87,0,0,0,2.61-1.26c.26-.23.32-.26.61,0s.55.26,1,.52a.61.61,0,0,1,.13,1,8.41,8.41,0,0,1-2.13,1.1,10.32,10.32,0,0,1-3.09.81,5.76,5.76,0,0,1-2.61-.35c-.32-.13-.42-.48-.19-.9s.58-.39.87-.39m31.34,24.06c-.13,0-1,0-.58-.9a16.8,16.8,0,0,0,0-8.08c-.16-.71-.23-.84,0-1.06s.29-.26.68-.32c.23,0,.26.26.52,1A9.11,9.11,0,0,1,526,533a27.82,27.82,0,0,1-.23,4.38c-.13.45-.23.74-.55.74a6,6,0,0,0-.77,0M506.1,503.88c-.74,0-1.16,1.06-1.45,2.64s-.42,3-1.16,3.48a2.36,2.36,0,0,1-2,.1,3.69,3.69,0,0,0-1.61-.29,4.43,4.43,0,0,0-2.45.74,8.65,8.65,0,0,1-2.77,1.26,13.18,13.18,0,0,1-1.84.32c-.32,0-.48,0-.68.71s-.61,1.55-1.06,1.61a1.39,1.39,0,0,1-1-.32,13.22,13.22,0,0,0-1.58-1.06,2,2,0,0,0-2.29.35,11.49,11.49,0,0,0-2.61,6.18c-.48,3.16-.81,6.18,0,6.47s2.13-3.58,3.45-3c1.16.48.61,9.86.55,11.89s-.48,5.06.32,7.15,1.55,3.09,4.77,5.73a54.73,54.73,0,0,1,4.48,3.87,17.94,17.94,0,0,0,3.06,2.19,1.4,1.4,0,0,0,2-.68,6.6,6.6,0,0,1,2.06-3.32c1.39-1.06,1.71-2,1.35-2.61s-.93-.64-1.87-.48a12.57,12.57,0,0,1-5,.32c-2.48-.39-6.22-1.39-6.54-3.12-.23-1.22.74-2.45,1-3.45s.81-2.9-.23-3.74c-.68-.55-1.26.26-1.61.74s-1.29,1-1.26-.32.06-2.61.19-3.77a14.45,14.45,0,0,0-.23-3.19A2.42,2.42,0,0,1,491,528c.74-.48,2.25-1.22,2.83-1.58s1.19-.71,1.22-1.64a10.9,10.9,0,0,1,1.16-3.54,5.29,5.29,0,0,0,.74-1.93c.06-.45.32-.84,1.06-1s1-.1.84.52a6.78,6.78,0,0,0-.58,2,1.37,1.37,0,0,0,.93,1.22,2.56,2.56,0,0,0,2.54.16,7.81,7.81,0,0,1,8.05.06c.74.23.84.26,2.19.61a1.42,1.42,0,0,0,1.26-.1.89.89,0,0,0,.26-1c-.13-.55-.77-1.74-.19-2s1.19.55,1.64,1.61a14.75,14.75,0,0,0,1.87,3.48,6.16,6.16,0,0,0,2.67,1.35c1.1.39,1.8.29,2.25,2.16a14.65,14.65,0,0,1,.55,3.38c0,1.87-.32,2.16-.32,3.48,0,1.55.16,2-.42,2.71-.19.23-.42.42-.64.23s0-.39.06-.68a5.36,5.36,0,0,0,0-1.8,3.6,3.6,0,0,0-.06-.71c0-.32-.19-.48-.45-.45-.58.06-.93.52-1.8.58s-2.83.1-4.06.19-3.77.26-5.77.32a38.07,38.07,0,0,1-5.41-.13c-2-.23-2.38-.32-2.74-.32s-2.16.19-2.48,1.42c-.16.64-.1.9.35,1s2.42.23,3.35.35,3,.42,4.06.45,2.35-.06,3.12-.1,2.51.13,2.58,2.61c0,.84.06,1.58.64,2a41.75,41.75,0,0,0,4.8,2.35,7,7,0,0,0,4.9.58c1-.42,1.39-1.06,1.06-2s-.39-1.67,0-2,.87-.68,2.8-.58c1.06.06,2.48.58,3.12-.35a7,7,0,0,1,2.58-2.58c1.61-1.1,2.42-1.84,2.35-4.57a82.8,82.8,0,0,1,.06-10.57c.39-2.87,2.19-4.28,3.22-6.28.9-1.74,1.29-2.64,0-3.32a9.6,9.6,0,0,0-2.71-1.26,9.93,9.93,0,0,0-1.51-.19c-.39-.06-.48-.06-.55,0s.06.23.45.45a9.69,9.69,0,0,1,1.58,1.06c.45.42.9.87.61,1.32s-1.16.29-1.8-.06-1.55-1.06-1.9-1.22-.61-.16-.52.19.26.77,0,1a1.62,1.62,0,0,1-1.8-.39c-.71-.61-.93-1-1.87-1.8a19.07,19.07,0,0,0-1.74-1.13,5,5,0,0,0-1.61-1,13,13,0,0,0-5.41-.13c-2.8.48-3.45,1-4.32.9-.52-.06-.61-.23-.77-.74s-.26-.58-.55-.71-.58-.06-1.06-.29a5.57,5.57,0,0,1-2.77-2.29c-.9-1.32-1.22-2.13-1.64-2.74s-.71-.77-1.26-.74m9.63,29.89a11.9,11.9,0,0,0,3.51-.9c.9-.39,1.19-.58,1.35-.93a5.73,5.73,0,0,0-.19-2.16,4.63,4.63,0,0,0-1.19-1.45,12.41,12.41,0,0,0-1.29-1c-.45-.32-1-.39-4.06-.13a16.09,16.09,0,0,0-5.77,1.39,8,8,0,0,0-2.67,2c-.81.61-1.9,1-2.38,1.61s0,.61.23.64a101.78,101.78,0,0,0,12.47,1m-22.32-.93a4.26,4.26,0,0,0,.93-.48,8.62,8.62,0,0,0,1.13-.9,4.68,4.68,0,0,0,1-1.55,1.83,1.83,0,0,0-.16-1.93c-.29-.52-.77-.1-1.1.1s-1.29.9-2,1.42a3.39,3.39,0,0,0-1.13,1.77c-.19.58-.19,1.42.26,1.64a1.17,1.17,0,0,0,1-.06m36.91-25c0,.42,1.22.77,2.93.55s2.45-.42,2.38-1-.9-.52-1.61-.39-2.71.42-3,.42-.74.06-.74.42m-12.43-2.22c.1.45,1.16.32,2.22.1s2.64-.45,3.06.23a10.39,10.39,0,0,0,2.42,3.09,7.23,7.23,0,0,0,4.7,1.8c1.84-.06,1.58-.58,1.55-.74s-.42-.23-.74-.19a6.61,6.61,0,0,1-3.45-1.42c-1.19-1.1-2.32-2.51-3-3.22a3.49,3.49,0,0,0-3.32-1.32c-1.87.23-3.67.81-3.48,1.67m-25.22,2.16c1.13-.39,3.22-1,4.32-1.29a10.4,10.4,0,0,1,3.19-.19c.58.06.61-.52.29-.64s-2.54-.71-3.54-1a2.57,2.57,0,0,0-1.8,0c-.39.1-2.29.71-3.19,1s-1.19.77-.87,1.61c.13.39.48.93,1.61.58m31.6-9.21c-3.87-2-7.09-2-10.89-1.71s-6.64,1.55-7.31,2.77-1.32,1.51-1.51,1.48-.35.1-.48-1.39-.26-1.61-1-2.19c-1.39-1.06-6.47-.32-8-.19-1.35.13-1.9-.13-2.06-.58s-.1-1.51,2.29-3.87a38.51,38.51,0,0,1,11-7.57c5-2.22,8.37-1.84,9.7-1.39s2,2.06,3,3.45,2.06,2.64,2.64,2.38-.77-2.58.26-3.12,2.9,2.9,4.09,4.09a9.08,9.08,0,0,0,3.58,2.22c1.19.42,1.13-.19.48-1.16s-1.45-3.19-.81-3.58,1.58.42,2.25,1.13a18.2,18.2,0,0,1,3.51,7.28c1,4.06.39,5.73-.64,6.22-2,.87-6.28-2.32-10-4.28" transform="translate(-450.85 -452.42)" style="fill:#fff"/></svg>