<svg fill="none" xmlns="http://www.w3.org/2000/svg" viewBox="0 0 103 95">
  <path d="m42 68.7 10.8 18c3.4 5.4 9 7.9 15.9 7.9h28L63.8 55l-4.6-2.7-12.3 4-6.2 9 1.2 3.4Z" fill="url(#a)"/>
  <path d="M63.9 55 57 46.6l-18 9.7 1.8 9.8 1 2.5c-.4-6.7 11-14.4 22-13.8Z" fill="url(#b)"/>
  <path d="m42 68.7-9.8-16.2a9 9 0 0 1-1.5-5.3c0-2 .9-3.2 4.2-5a55 55 0 0 1 20-2.6c13.2 0 16.4 4.2 17.7 8.8 0 0-1.8-.7-6.2-.7-14 0-25.1 6.7-25.1 17 0 2 .7 4 .7 4Z" fill="url(#c)"/>
  <path d="M0 0h13.1c5.6 0 7.9 2.3 10.1 4.5C25.8 6.8 33.6 17.3 50 37.9H32.2c-7.3 0-9.6-1.3-12.4-5.5L0 0Z" fill="url(#d)"/>
  <path d="m99 85.2.8 3.2 1-3.2h.8l.6 4h-.6l-.4-3.4-1 3.4h-.6l-1-3.4-.4 3.4h-.6l.6-4h.8Zm-2 0v.4h-1.2v3.6h-.6v-3.6H94v-.4h3Z" fill="#334357"/>
  <defs>
    <linearGradient id="a" x1="40.8" y1="55.3" x2="40.8" y2="94.5" gradientUnits="userSpaceOnUse">
      <stop stop-color="#EB2023"/>
      <stop offset=".1" stop-color="#E92026"/>
      <stop offset=".2" stop-color="#E31E27"/>
      <stop offset=".3" stop-color="#E01E26"/>
      <stop offset=".4" stop-color="#D81F27"/>
      <stop offset=".5" stop-color="#CF2027"/>
      <stop offset=".6" stop-color="#C62127"/>
      <stop offset=".7" stop-color="#B92025"/>
      <stop offset=".8" stop-color="#AE1F23"/>
      <stop offset=".9" stop-color="#A01D22"/>
      <stop offset="1" stop-color="#901C1C"/>
    </linearGradient>
    <linearGradient id="b" x1="41.9" y1="68.6" x2="63.6" y2="54.6" gradientUnits="userSpaceOnUse">
      <stop stop-color="#6C221F"/>
      <stop offset=".2" stop-color="#7F2620"/>
      <stop offset=".5" stop-color="#982B24"/>
      <stop offset=".7" stop-color="#B53125"/>
      <stop offset="1" stop-color="#CB3327"/>
    </linearGradient>
    <linearGradient id="c" x1="40.1" y1="64.9" x2="72.1" y2="46.4" gradientUnits="userSpaceOnUse">
      <stop stop-color="#E7EBEE"/>
      <stop offset=".2" stop-color="#DFE4E8"/>
      <stop offset=".5" stop-color="#CAD1D7"/>
      <stop offset=".7" stop-color="#A8B5BD"/>
      <stop offset="1" stop-color="#93A6AD"/>
    </linearGradient>
    <linearGradient id="d" x1="22" y1="0" x2="22" y2="37.9" gradientUnits="userSpaceOnUse">
      <stop stop-color="#05AEE9"/>
      <stop offset=".1" stop-color="#00A9E0"/>
      <stop offset=".2" stop-color="#07A3DC"/>
      <stop offset=".3" stop-color="#089DD5"/>
      <stop offset=".4" stop-color="#0A92CC"/>
      <stop offset=".5" stop-color="#0F87C3"/>
      <stop offset=".6" stop-color="#127CB8"/>
      <stop offset=".7" stop-color="#0E70AD"/>
      <stop offset=".8" stop-color="#0F63A3"/>
      <stop offset=".9" stop-color="#135393"/>
      <stop offset="1" stop-color="#184485"/>
    </linearGradient>
  </defs>
</svg>
