<svg fill="none" xmlns="http://www.w3.org/2000/svg" viewBox="0 0 925 236">
  <path d="M887 0 751 235h38L925 0h-38Z" fill="#00B3F0"/>
  <path d="M751 235 887 0H736L600 235h151ZM263 78c1-2 3-4 5-4l4 3 43 158h71l36-205h-31l-28 158c0 2-2 3-4 3s-4-1-4-3L311 30h-70l-36 205h31l27-157Zm-120 87-6-91-4-5c-2 0-4 1-5 3L35 235H0L116 30h68l14 205h-51l-1-23c-1-4-4-8-9-8H61l17-31h57c4 0 8-3 8-8Zm384 1-8-91c0-3-2-4-4-4l-4 2-83 162h-35L498 30h68l18 205h-51l-2-23c0-4-3-8-8-8h-72l16-31h53c4 0 8-3 7-7Z" fill="#223F9A"/>
</svg>
