<svg xmlns="http://www.w3.org/2000/svg" fill="none" viewBox="0 0 1770 1379">
  <path fill="#223F9A" d="m1770 0-535 1379H0L1383 0h387Z"/>
  <path fill="#fff" d="M814 761c-1-3-1-7 1-10 3-2 7-3 9-1l257 146 90-91-215-307-40 39 166 237a8 8 0 0 1-10 11L815 639l-91 90 216 307 39-39-165-236Zm-42 266L647 918c-3-3-7-4-10-2-4 2-5 7-4 11l90 326-45 45-113-410 87-87 279 244-65 65-30-27c-6-6-16-6-22 0l-98 98-17-61 74-73c5-6 5-15-1-20Zm492-491-126-105c-4-3-8-3-12 0-2 2-2 5-2 8l101 313-44 44-128-396 87-87 285 238-65 66-31-26c-7-6-16-6-22 0l-92 91-19-59 68-68c6-5 5-14 0-19Z"/>
  <path fill="#00B3F0" d="M1752 0h18l-535 1379h-157L1752 0Z"/>
</svg>
