<svg xmlns="http://www.w3.org/2000/svg" width="1046.3" height="576.1"><defs><style>@font-face{font-family:&quot;Virgil&quot;;src:url(&quot;https://excalidraw.com/FG_Virgil.woff2&quot;)}@font-face{font-family:&quot;Cascadia&quot;;src:url(&quot;https://excalidraw.com/Cascadia.woff2&quot;)}</style></defs><path d="M171 469l199 1-1 30-196-2" stroke-width="0" fill="#fa5252"/><path d="M171 473c58-1 117-3 199-1m-199-1c47 0 93-1 201 1m1 0c-3 5-1 12-2 25m-1-27l2 30m1 0c-62 1-124-1-203 1m201-2c-71-1-144 0-201 1m2 1c1-9-2-18 1-29m-3 28l2-30" stroke="#000" fill="none"/><text y="18" font-family="Virgil, Segoe UI Emoji" font-size="16" style="white-space:pre" transform="translate(154 499)">8:30</text><text y="18" font-family="Virgil, Segoe UI Emoji" font-size="16" style="white-space:pre" transform="translate(363 498)">12</text><path d="M370 471l57-1v27l-55 1" stroke-width="0" fill="#12b886"/><path d="M372 471c16-2 34-1 58 0m-59-2l58 1m-2 0c1 7 0 12 3 29m-1-30c-1 13 0 24-2 29m0 1c-18-1-34-1-57 2m57-2h-55m-1-1c0-7 2-16-1-28m2 29l-2-29" stroke="#000" fill="none"/><text y="18" font-family="Virgil, Segoe UI Emoji" font-size="16" style="white-space:pre" transform="translate(425 499)">1</text><path d="M430 469h270v29l-272 3" stroke-width="0" fill="#fa5252"/><path d="M428 472c70-3 140-2 272-3m-272 2h272m1 1l-2 27m1-29l-1 29m2 1c-106 1-215 3-272-1m271 1H428m0-2l2-27m-2 29v-30" stroke="#000" fill="none"/><text y="18" font-family="Virgil, Segoe UI Emoji" font-size="16" style="white-space:pre" transform="translate(695 501)">5</text><path d="M371 442l57-1v30l-58-2" stroke-width="0" fill="#fab005"/><path d="M372 444c12-3 29-2 55-1m-56 0c22-2 46-2 57 0m-2-1c2 8 3 16 2 29m1-29c-2 9 0 16-1 29m1-2c-14 2-27 0-59 2m58 0c-15-1-30-1-57 1m-1 0c2-9-1-21 1-31m0 30l1-29" stroke="#000" fill="none"/><path d="M114 472l57-1-1 28-56-1" stroke-width="0" fill="#fd7e14"/><path d="M115 472c13 0 25-4 58-2m-58 0l56 1m1-1c0 9-3 20 0 29m-1-29v29m1 0c-15 1-29-2-58-1m58 1h-59m3-1v-28m-2 29l-1-29" stroke="#000" fill="none"/><text y="18" font-family="Virgil, Segoe UI Emoji" font-size="16" style="white-space:pre" transform="translate(94 499)">7:30</text><text y="18" font-family="Virgil, Segoe UI Emoji" font-size="16" style="white-space:pre" transform="translate(755 501)">6:30</text><path d="M771 472l56-1 2 26-59 1" stroke-width="0" fill="#fd7e14"/><path d="M770 472c17-2 34-2 59-1m-58 0h56m1 2c-1 7 1 18 1 28m-1-31l-1 29m1-1c-21 0-43 3-58 1m58 0l-57 1m1 0l-1-29m0 27v-28" stroke="#000" fill="none"/><path d="M700 471l71-1-2 28h-70" stroke-width="0" fill="#4c6ef5"/><path d="M697 471c28-1 55-3 73-1m-70 0l70 1m2-1c-1 10-1 21 1 32m-3-30v28m2 1h-74m73-1l-72-1m0 0l1-28m-2 30l1-31" stroke="#000" fill="none"/><text y="18" font-family="Virgil, Segoe UI Emoji" font-size="16" style="white-space:pre" transform="translate(815 501)">7:30</text><path d="M828 473l59-3v28l-60 1" stroke-width="0" fill="#12b886"/><path d="M828 471l58-1m-58 1c17-2 31-1 57-1m2-1l-1 29m-1-27l1 29m-2-1c-17 1-31-1-57 2m58-1l-56-1m-2-2l3-28m-1 29c0-6 0-14-2-27" stroke="#000" fill="none"/><text y="18" font-family="Virgil, Segoe UI Emoji" font-size="16" style="white-space:pre" transform="translate(868 501)">8:30</text><path d="M887 470h83v31l-86-3" stroke-width="0" fill="#15aabf"/><path d="M885 469c33 3 64 2 84 0m-83 1h85m0 2c1 9 1 21-1 26m2-26l-1 28m2-3c-21 3-37 4-86 1m84 1l-86-1m2 3c-3-10-1-18-3-32m1 30v-29" stroke="#000" fill="none"/><text y="18" font-family="Virgil, Segoe UI Emoji" font-size="16" style="white-space:pre" transform="translate(965 501)">10</text><path d="M973 469l25 1 1 29h-28" stroke-width="0" fill="#fd7e14"/><path d="M971 473c9-3 19-2 26-1m-26-1h28m0 2c2 3 1 9-1 27m1-30v31m1 0c-13-2-22 0-27-2m25 1h-27m-1-1c0-4 2-16 0-27m1 28v-29" stroke="#000" fill="none"/><text y="18" font-family="Virgil, Segoe UI Emoji" font-size="16" style="white-space:pre" transform="translate(993 498)">10:30</text><path d="M827 442l60-1v31h-59" stroke-width="0" fill="#15aabf"/><path d="M827 442c14-1 28 1 58-1m-56 2c13-2 25-1 56-2m2-1c-2 7 0 13-2 29m0-27v28m0 2c-20-3-44-2-58-3m58 2l-57-1m0-1v-29m-1 30l1-27" stroke="#000" fill="none"/><text y="14.5" font-family="Virgil, Segoe UI Emoji" font-size="13.1" style="white-space:pre" transform="translate(119 473)">reading</text><text y="18" font-family="Virgil, Segoe UI Emoji" font-size="16" style="white-space:pre" transform="translate(958 442)">reading</text><text y="18" font-family="Virgil, Segoe UI Emoji" font-size="16" style="white-space:pre" transform="translate(247 471)">work</text><text y="18" font-family="Virgil, Segoe UI Emoji" font-size="16" style="white-space:pre" transform="translate(542 471)">work</text><text y="12.2" font-family="Virgil, Segoe UI Emoji" font-size="11" style="white-space:pre" transform="translate(375 444)">podcasts</text><text y="18" font-family="Virgil, Segoe UI Emoji" font-size="16" style="white-space:pre" transform="translate(843 442)">TV</text><text y="15.3" font-family="Virgil, Segoe UI Emoji" font-size="12.4" style="white-space:pre" transform="translate(374 475)">walk\run</text><text y="14.5" font-family="Virgil, Segoe UI Emoji" font-size="13.1" style="white-space:pre" transform="translate(776 474)">reading</text><text y="12.3" font-family="Virgil, Segoe UI Emoji" font-size="10" style="white-space:pre" transform="translate(702 475)">cooking\eating</text><text y="13.1" font-family="Virgil, Segoe UI Emoji" font-size="11.6" style="white-space:pre" transform="translate(832 476)">10km row</text><text y="18" font-family="Virgil, Segoe UI Emoji" font-size="16" style="white-space:pre" transform="translate(913 471)">TV</text><path d="M118 153l144 2-3 26H117" stroke-width="0" fill="#fd7e14"/><path d="M120 152c36 2 73 2 142 0m-145 1h144m0 0l-1 27m0-27l2 29m0 1c-33 0-66-2-143-2m142 0c-55 2-111 3-143 1m1 0v-30m-1 29l-1-28" stroke="#000" fill="none"/><text y="15" font-family="Virgil, Segoe UI Emoji" font-size="13.1" style="white-space:pre" transform="translate(63 155)">reading</text><path d="M117 285l60-2-2 30h-55" stroke-width="0" fill="#fab005"/><path d="M118 285c17-1 35 0 59-2m-57 2h56m0-1c-2 10 0 22 0 28m0-28c1 6-1 13-1 29m1-2c-12 0-26 2-56 0m55 2h-56m-1-2l2-28m-1 30c1-8 0-17-1-29" stroke="#000" fill="none"/><text y="15" font-family="Virgil, Segoe UI Emoji" font-size="13.1" style="white-space:pre" transform="translate(50 287)">podcasts</text><path d="M115 241l114 1-1 28-112-2" stroke-width="0" fill="#12b886"/><path d="M118 241c22 1 47-2 112-2m-115 0l114 1m2 0c-3 8-2 20-1 30m0-29l-1 28m2 0c-33 1-69 1-117-1m116 1H115m1 0c2-7-1-18 1-30m0 30c-2-7-1-15-1-29" stroke="#000" fill="none"/><text y="15" font-family="Virgil, Segoe UI Emoji" font-size="13.1" style="white-space:pre" transform="translate(54 243)">exercise</text><path d="M120 195h138v31l-141-1" stroke-width="0" fill="#15aabf"/><path d="M120 197l139-3m-141 2h139m-1 1c0 11 3 20 4 28m-2-28v28m0-1H116m141 1H119m-1 0c-2-11 0-25 0-29m1 28l-2-29" stroke="#000" fill="none"/><text y="15" font-family="Virgil, Segoe UI Emoji" font-size="13.1" style="white-space:pre" transform="translate(89 197)">TV</text><path d="M116 110l472 2-1 26H117" stroke-width="0" fill="#fa5252"/><path d="M117 111c142-2 284-1 472 0m-471 0h471m1 0c-2 8 0 15-2 28m0-28v28m2 1H117m472-1c-138-1-275 0-472 1m2-2c-2-6-4-16-2-28m0 30v-29" stroke="#000" fill="none"/><text y="15" font-family="Virgil, Segoe UI Emoji" font-size="13.1" style="white-space:pre" transform="translate(79 115)">work</text><text y="76" font-family="Virgil, Segoe UI Emoji" font-size="28" style="white-space:pre" transform="translate(102 10)">The Anatomy of a lockdown weekday</text><text y="15" font-family="Virgil, Segoe UI Emoji" font-size="13.1" style="white-space:pre" transform="translate(536 114)">8.5 hrs</text><text y="15" font-family="Virgil, Segoe UI Emoji" font-size="13.1" style="white-space:pre" transform="translate(206 156)">2.5 hrs</text><text y="15" font-family="Virgil, Segoe UI Emoji" font-size="13.1" style="white-space:pre" transform="translate(204 198)">2.5 hrs</text><text y="15" font-family="Virgil, Segoe UI Emoji" font-size="13.1" style="white-space:pre" transform="translate(188 243)">2 hrs</text><text y="15" font-family="Virgil, Segoe UI Emoji" font-size="13.1" style="white-space:pre" transform="translate(148 287)">1 hr</text><path d="M158 542l8-8 4-2 4 2 9 8 2 5-2 4-9 8-4 2-4-2-10-10v-2l2-5" stroke-width="0" fill="#40c057"/><path d="M158 542l8-8m-8 8l8-8m0 0c3-3 6-3 8 0m-8 0c3-3 6-3 8 0m0 0l9 8m-9-8l9 8m0 0c3 3 3 6 0 9m0-9c3 3 3 6 0 9m0 0l-9 8m9-8l-9 8m0 0c-2 3-5 3-8 0m8 0c-2 3-5 3-8 0m0 0l-8-8m8 8l-8-8m0 0c-3-3-3-6 0-9m0 9c-3-3-3-6 0-9" stroke="#000" fill="none"/><g><path d="M160 546l9-10h2l1 1v2l-10 9h-1l-1-1v-1" stroke-width="0" fill="#fff"/><path d="M160 546l9-10m-9 10l9-10m0 0h2m-2 0h2m0 0l1 1m-1-1l1 1m0 0v2m0-2v2m0 0l-10 9m10-9l-10 9m0 0h-1m1 0h-1m0 0l-1-1m1 1l-1-1m0 0v-1m0 1v-1" stroke="#000" fill="none"/></g><g><path d="M163 549l5-4 2 2-5 5-2-1v-2" stroke-width="0" fill="#fff"/><path d="M163 549l5-4m-5 4l5-4m0 0h1m-1 0h1m0 0l1 1m-1-1l1 1m0 0v1m0-1v1m0 0l-5 5m5-5l-5 5m0 0h-1m1 0h-1m0 0l-1-1m1 1l-1-1m0 0v-2m0 2v-2" stroke="#000" fill="none"/></g><g><path d="M167 553l2-2 2 2-3 3-1-2v-1" stroke-width="0" fill="#fff"/><path d="M167 553l1-2m-1 2l1-2m0 0h2m-2 0h2m0 0l1 2m-1-2l1 2m0 0v1m0-1v1m0 0l-2 2m2-2l-2 2m0 0h-1m1 0h-1m0 0l-1-2m1 2l-1-2m0 0v-1m0 1v-1" stroke="#000" fill="none"/></g><g><path d="M120 336l8-8 3-2 4 2 8 8 2 4-2 3-8 8-4 2-3-2-9-10-1-1 2-4" stroke-width="0" fill="#40c057"/><path d="M120 336l8-8m-8 8l8-8m0 0c2-2 5-2 7 0m-7 0c2-2 5-2 7 0m0 0l8 8m-8-8l8 8m0 0c2 2 2 5 0 7m0-7c2 2 2 5 0 7m0 0l-8 8m8-8l-8 8m0 0c-2 2-5 2-7 0m7 0c-2 2-5 2-7 0m0 0l-8-8m8 8l-8-8m0 0c-3-2-3-5 0-7m0 7c-3-2-3-5 0-7" stroke="#000" fill="none"/></g><g><path d="M122 339l9-9 2 1v1l-9 9h-1l-1-2" stroke-width="0" fill="#fff"/><path d="M122 339l9-9m-9 9l9-9m0 0h1m-1 0h1m0 0l1 1m-1-1l1 1m0 0v1m0-1v1m0 0l-9 9m9-9l-9 9m0 0h-1m1 0h-1m0 0l-1-1m1 1l-1-1m0 0v-1m0 1v-1" stroke="#000" fill="none"/></g><g><path d="M125 342l5-4 2 2-5 5-2-2v-1" stroke-width="0" fill="#fff"/><path d="M125 342l4-4m-4 4l4-4m0 0h1m-1 0h1m0 0l1 1m-1-1l1 1m0 0v1m0-1v1m0 0l-4 4m4-4l-4 4m0 0h-1m1 0h-1m0 0l-1-1m1 1l-1-1m0 0v-1m0 1v-1" stroke="#000" fill="none"/></g><g><path d="M128 346l2-2 2 2-2 2-2-1v-1" stroke-width="0" fill="#fff"/><path d="M128 346l2-2m-2 2l2-2m0 0h1m-1 0h1m0 0l1 1m-1-1l1 1m0 0v1m0-1v1m0 0l-2 2m2-2l-2 2m0 0h-1m1 0h-1m0 0l-1-1m1 1l-1-1m0 0v-1m0 1v-1" stroke="#000" fill="none"/></g><g><text y="15" font-family="Virgil, Segoe UI Emoji" font-size="13.1" style="white-space:pre" transform="translate(10 326)">News via Feedly</text></g><g><path d="M414 539l8-9 5-2 4 2 8 9 2 4-2 4-8 8-4 2-5-2-10-10v-2l2-4" stroke-width="0" fill="#40c057"/><path d="M414 539l8-9m-8 9l8-9m0 0c3-3 6-3 9 0m-9 0c3-3 6-3 9 0m0 0l8 9m-8-9l8 9m0 0c3 2 3 5 0 8m0-8c3 2 3 5 0 8m0 0l-8 8m8-8l-8 8m0 0c-3 3-6 3-9 0m9 0c-3 3-6 3-9 0m0 0l-8-8m8 8l-8-8m0 0c-3-3-3-6 0-8m0 8c-3-3-3-6 0-8" stroke="#000" fill="none"/></g><g><path d="M416 542l10-10h1l1 2v1l-10 10h-1l-1-2v-1" stroke-width="0" fill="#fff"/><path d="M416 542l10-10m-10 10l10-10m0 0h1m-1 0h1m0 0l1 2m-1-2l1 2m0 0v1m0-1v1m0 0l-10 10m10-10l-10 10m0 0h-1m1 0h-1m0 0l-1-2m1 2l-1-2m0 0v-1m0 1v-1" stroke="#000" fill="none"/></g><g><path d="M419 546l6-5 2 2-6 5-2-1v-1" stroke-width="0" fill="#fff"/><path d="M419 546l5-5m-5 5l5-5m0 0h1m-1 0h1m0 0l1 1m-1-1l1 1m0 0v1m0-1v1m0 0l-4 5m4-5l-4 5m0 0h-1m1 0h-1m0 0l-2-1m2 1l-2-1m0 0v-1m0 1v-1" stroke="#000" fill="none"/></g><g><path d="M423 549l2-2 2 2-2 3-2-1v-2" stroke-width="0" fill="#fff"/><path d="M423 549l2-1m-2 1l2-1m0 0h1m-1 0h1m0 0l1 1m-1-1l1 1m0 0v1m0-1v1m0 0l-2 2m2-2l-2 2m0 0h-1m1 0h-1m0 0l-1-1m1 1l-1-1m0 0v-2m0 2v-2" stroke="#000" fill="none"/></g><g><path d="M686 545l9-8 4-2 4 2 9 8 2 4-2 5-9 8-4 2-4-2-10-11-1-2 2-4" stroke-width="0" fill="#40c057"/><path d="M686 545l9-8m-9 8l9-8m0 0c3-3 5-3 8 0m-8 0c3-3 5-3 8 0m0 0l9 8m-9-8l9 8m0 0c2 3 2 6 0 9m0-9c2 3 2 6 0 9m0 0l-9 8m9-8l-9 8m0 0c-3 3-5 3-8 0m8 0c-3 3-5 3-8 0m0 0l-9-8m9 8l-9-8m0 0c-2-3-2-6 0-9m0 9c-2-3-2-6 0-9" stroke="#000" fill="none"/></g><g><path d="M688 549l10-10h1l2 1v1l-10 10h-1l-2-1v-1" stroke-width="0" fill="#fff"/><path d="M688 549l10-10m-10 10l10-10m0 0h1m-1 0h1m0 0l2 1m-2-1l2 1m0 0v1m0-1v1m0 0l-10 10m10-10l-10 10m0 0h-1m1 0h-1m0 0l-2-1m2 1l-2-1m0 0v-1m0 1v-1" stroke="#000" fill="none"/></g><g><path d="M692 552l5-5 2 2-5 6-2-2v-1" stroke-width="0" fill="#fff"/><path d="M692 552l5-4m-5 4l5-4m0 0h1m-1 0h1m0 0l1 1m-1-1l1 1m0 0v1m0-1v1m0 0l-5 5m5-5l-5 5m0 0h-1m1 0h-1m0 0l-1-2m1 2l-1-2m0 0v-1m0 1v-1" stroke="#000" fill="none"/></g><g><path d="M695 556l3-2 2 2-3 3-2-2v-1" stroke-width="0" fill="#fff"/><path d="M695 556l2-2m-2 2l2-2m0 0h1m-1 0h1m0 0l2 1m-2-1l2 1m0 0v2m0-2v2m0 0l-2 1m2-1l-2 1m0 0h-1m1 0h-1m0 0l-2-1m2 1l-2-1m0 0v-1m0 1v-1" stroke="#000" fill="none"/></g></svg>