<svg width="1770" height="1379" viewBox="0 0 1770 1379" fill="none" xmlns="http://www.w3.org/2000/svg">
<path d="M1769.5 0L1235 1379H0L1382.5 0H1769.5Z" fill="white"/>
<path d="M997.996 1181.5C862.496 1151.5 738.996 1141 655.496 1134C571.996 1127 525.996 1111 464.996 1072.5C403.996 1034 377.5 1002.5 377.5 1002.5L240 1140C240 1140 267 1175.5 291 1204C315 1232.5 379.996 1275 416 1304C452.004 1333 496 1379 496 1379H1213C1213 1379 1133.5 1211.5 997.996 1181.5Z" fill="#EC3535"/>
<path d="M1535.5 108.563C1386 145.125 1088.5 277 985.5 396.019L554.5 826.062C554.5 826.062 861 631.563 1026 556.563C1191 481.563 1316 454.063 1418.5 478.563C1521 503.063 1518.5 647.062 1518.5 647.062L1727.5 108.563C1727.5 108.563 1685 72 1535.5 108.563Z" fill="#EC3535"/>
<path d="M920.254 896.516C838.882 918.704 651 918.704 651 918.704C651 918.704 749.997 1014.01 825.249 1020.26C900.5 1026.5 946 1006.6 982.456 1006.6C1018.91 1006.6 1128.16 1019.4 1187.38 1059.09C1246.6 1098.77 1314.34 1176 1314.34 1176L1443 830.379C1443 830.379 1359 776 1336.07 769.362C1313.13 762.723 1267.05 759.548 1207.83 769.362C1148.61 779.176 1113 787.5 1079.17 805.204C1045.33 822.908 1001.63 874.328 920.254 896.516Z" fill="#0C0E4E"/>
</svg>
