<svg fill="none" xmlns="http://www.w3.org/2000/svg" viewBox="0 0 332 83">
  <path d="M309 30.6c-9.3 9.3-29.7 17.3-39.6 21-13.7 5.1-19.7 7-27.4 9.5-8.6 2.8-26 8-26 8A425 425 0 0 0 277.2 83s11.8-3.6 30.4-13.6c10.1-5.1 15-8.6 18.6-11.9a18 18 0 0 0 5.5-9.2c.1-.3.3-1.2.3-2v-1.1l-.2-1s-.2-1.1-.5-1.8a12 12 0 0 0-3.3-4.6c-1.2-1-3.4-3.6-11.2-6.3-2.6-1-7-1.8-7-1.8l-.7.9Z" fill="url(#a)"/>
  <path d="M332 46s0-1-.3-1.8c-.2-.8-.5-1.5-1-2.3a23.4 23.4 0 0 0-5.8-5.6c-4.9-3.1-11.2-5-16.8-5.7-8.7-1.1-18.6-1-19.5-1a4320.5 4320.5 0 0 1-89.1.8c-77.9.3-111.8-1.3-149.6-8.9A461.4 461.4 0 0 1 0 9.1c28.3-1 193.6-7.8 223.8-8.6a509 509 0 0 1 45 0c5.7.3 11 .7 17.8 1.9 6 1 11.5 2.8 14.7 4a34.7 34.7 0 0 1 17.1 12l3.2 4.7c4.1 6.2 6 10.1 6.7 11.5.8 1.4 1.4 2.9 2 4.3.7 1.5 1 2.3 1.1 3 .4 1.5.5 2.8.6 3.2v.9Z" fill="#EE3224"/>
  <defs>
    <linearGradient id="a" x1="297.1" y1="19.3" x2="255.3" y2="91.7" gradientUnits="userSpaceOnUse">
      <stop stop-color="#E6EFF6"/>
      <stop offset=".3" stop-color="#4085BF"/>
      <stop offset=".4" stop-color="#4085BF"/>
      <stop offset=".9" stop-color="#005DAA"/>
      <stop offset="1" stop-color="#005DAA"/>
    </linearGradient>
  </defs>
</svg>
