<svg fill="none" xmlns="http://www.w3.org/2000/svg" viewBox="0 0 1781 1385">
  <path d="m1777 3-535 1379H7L1390 3h387Z" fill="#008DD2" />
  <mask id="a" maskUnits="userSpaceOnUse" x="772" y="610" width="681" height="360" fill="#000">
    <path fill="#fff" d="M772 610h681v360H772z"/>
    <path d="M1441 725c0-56-39-103-118-103-53 0-115 45-115 158v167c23-16 53-29 70-29V762c0-59 44-77 64-77a51 51 0 0 0-18 40c0 32 27 59 58 59 32-1 57-24 59-59m-657 0c0-56 39-103 118-103 54 0 116 45 116 158v167c-23-16-55-29-72-29V762c0-59-43-77-63-77a54 54 0 0 1 18 40c0 32-27 59-58 59-33-1-57-24-59-59Z"/>
  </mask>
  <path d="M1441 725c0-56-39-103-118-103-53 0-115 45-115 158v167c23-16 53-29 70-29V762c0-59 44-77 64-77a51 51 0 0 0-18 40c0 32 27 59 58 59 32-1 57-24 59-59m-657 0c0-56 39-103 118-103 54 0 116 45 116 158v167c-23-16-55-29-72-29V762c0-59-43-77-63-77a54 54 0 0 1 18 40c0 32-27 59-58 59-33-1-57-24-59-59Z" fill="#ED1B2F"/>
  <path d="M1208 947h-12v23l19-13-7-10Zm70-29 1 12h11v-12h-12Zm64-233 8 9 25-21h-33v12Zm-18 40h12-12Zm58 59v12-12Zm-598-59h-12v1l12-1Zm234 222-6 10 18 12v-22h-12Zm-72-29h-12v12h12v-12Zm-63-233v-12h-31l23 21 8-9Zm18 40h-12 12Zm-58 59v12-12Zm610-59c0-31-11-60-33-81-23-21-55-34-97-34v24c37 0 63 11 80 27s26 39 26 64h24Zm-130-115c-30 0-62 13-86 41-25 28-41 70-41 129h24c0-54 15-91 35-113 19-23 45-33 68-33v-24Zm-127 170v167h24V780h-24Zm19 177c11-7 23-14 35-19s23-8 29-8l-1-24c-11 0-24 4-37 10-13 5-27 13-39 21l13 20Zm75-39V762h-24v156h24Zm0-156c0-26 10-42 21-52s24-13 31-13v-24c-13 0-31 5-47 19a90 90 0 0 0-29 70h24Zm44-86c-7 6-13 13-16 22l21 10c3-6 6-10 11-14l-16-18Zm-16 22c-4 9-6 18-6 27h24c0-6 1-12 3-17l-21-10Zm-6 27c0 39 32 71 70 71v-24c-25 0-46-21-46-47h-24Zm70 71c39-1 69-29 71-70l-24-1c-1 29-21 46-47 47v24Zm-586-71c0-25 9-48 26-64s43-27 80-27v-24c-42 0-74 13-97 34-22 21-33 50-33 81h24Zm106-91c24 0 49 10 69 33 20 22 35 59 35 113h24c0-59-16-101-41-129-24-28-57-41-87-41v24Zm104 146v167h24V780h-24Zm19 157c-12-8-27-16-40-21-14-6-28-10-39-10v24c6 0 17 3 29 8 13 5 26 12 37 19l13-20Zm-67-19V762h-24v156h24Zm0-156c0-33-12-55-28-70a74 74 0 0 0-47-19v24c7 0 20 3 31 13 10 10 20 26 20 52h24Zm-83-68c4 4 8 8 10 14l22-10c-4-8-9-16-16-22l-16 18Zm10 14c3 5 4 11 4 17h24c0-9-2-18-6-27l-22 10Zm4 17c0 26-21 47-46 47v24c38 0 70-32 70-71h-24Zm-46 47c-26-1-45-18-47-47l-24 1c2 41 32 69 71 70v-24Z" fill="#fff" mask="url(#a)"/>
  <path d="M1262 1038c16-27 23-57 23-88v-22l-7 1c-38 9-72 29-98 58-11-34-33-64-63-84l-3-2-4 2c-30 20-53 50-64 84-26-29-61-49-99-58l-8-1v22c0 35 11 70 31 99 25 36 69 69 144 69 81 0 125-41 148-80Zm-86-424 4-3-2-4a68 68 0 0 0-50-41v-36a49 49 0 0 0 34-46 49 49 0 1 0-64 45v37a71 71 0 0 0-50 40l-2 5 5 3c26 17 46 44 56 74l6 18 6-18c10-30 30-56 57-74Z" fill="#ED1B2F" stroke="#fff" stroke-width="12"/>
  <path d="m943 614-2-5-13 5 13 5c56 19 89 79 89 138v205l1 1 7 8 6 6 2-8c9-26 34-56 61-71l2-2V737c0-57-40-120-99-134v-41a47 47 0 0 0 33-46 48 48 0 0 0-48-48c-26 0-48 22-48 48a48 48 0 0 0 34 46v39a136 136 0 0 0-40 8l2 5Zm341-5-2 5 2-5h-1a227 227 0 0 0-13-4l-25-4v-39a47 47 0 0 0 32-46c0-26-21-48-46-48a48 48 0 0 0-15 94v41c-29 7-53 26-70 49-18 25-29 56-29 85v159l2 2a142 142 0 0 1 61 71l2 8 6-6 7-8 1-1V757c0-59 32-119 87-138l13-5-12-5Z" fill="#ED1B2F" stroke="#fff" stroke-width="10"/>
</svg>
