<svg fill="none" width="150px" xmlns="http://www.w3.org/2000/svg" viewBox="0 0 829 182">
  <path d="M752 0 571.7 181.1h182.9L828.2 0H752Z" fill="#00ADEF"/>
  <path d="M704.4 60.6a8 8 0 1 1 16 0 8 8 0 0 1-16 0Z" fill="#fff" stroke="#fff" stroke-width=".6" stroke-miterlimit="3.9"/>
  <path d="M720.6 56.2a8 8 0 1 1 16 0 8 8 0 0 1-16 0Z" fill="#fff"/>
  <path d="M737 60.6a8 8 0 1 1 16 0 8 8 0 0 1-16 0Z" fill="#fff" stroke="#fff" stroke-width=".6" stroke-miterlimit="3.9"/>
  <path d="M728.6 146.4c-11.1 0-26-10.4-26-23V92s-2.6 7.9-9.7 8.1c-7.2.3-11.8-6.8-11.8-11.9 0-3.4 2.4-11.1 11.4-14.5 1.2-.4 8-1 9.8-.9 1.7.2 6.2-1.9 6.4-1.9v-6.6h7.3v7.1l2.2.4s4.2-4.7 7-4.7v-7.7h6.8v7.7c2.8 0 7 4.7 7 4.7l2.1-.4v-7.2h7.4c0 .1-.2 6.7 0 6.7.1 0 4.6 2.1 6.4 2 1.7-.2 8.6.4 9.7.9 9 3.3 11.2 10.5 11.5 14.5.3 5.7-4.7 12-11.8 11.8-7.1-.2-9.2-8.1-9.2-8.1v31.4c0 12.6-15.4 23-26.5 23Z" fill="#fff" stroke="#fff" stroke-width=".6" stroke-miterlimit="3.9"/>
  <path d="M751.4 74s-1-1.6-4.6-1.6v-7.5h-3.6v7.7s-3.7.2-6.6 2.5c-3.8 2.9-7 8.3-7 12.6V112s3 2.1 5 4.7c2.1 2.6 3.2 5.8 3.2 5.8h2v-30s-.4-3 .9-6.3c.5-1.3.8-4 3-7a12 12 0 0 1 6.8-4.7c.6-.2 1-.6 1-.6Zm-29.6-3.9s1.4-1.8 5-2.2v-7.5h3.7V68c2.1.3 5.4 2.1 6.5 5l-2.7 1.7c-3.4 2.5-4 6-5.8 9.3-1.9-3.1-3.5-7.2-6-9.3-1.1-.8-2.6-1.7-2.8-1.7-.3-.1 2.1-2.8 2.1-2.8Z" fill="#ED1C24"/>
  <path d="M705.5 74s1-1.6 4.7-1.6v-7.5h3.7v7.7s3.5.4 6.6 2.5a17 17 0 0 1 7 12.6V112s-3 2-5 4.7a21.8 21.8 0 0 0-3.2 5.8l-1.9-1.4V92.4s1-2.5-.7-6.2c-.6-1.5-1.6-4.8-3.4-7-1.3-1.5-2.6-3.6-6.8-4.8l-1-.5Zm16.9-17.8a6.2 6.2 0 1 1 12.3 0 6.2 6.2 0 0 1-12.3 0Zm16.4 4.4a6.2 6.2 0 1 1 12.4 0 6.2 6.2 0 0 1-12.4 0Z" fill="#ED1C24"/>
  <path d="M715.6 120s-6.6-4.7-9.9-4.7c-.2 0 .2-21.6 0-22.8-.7-4.4-3-6.5-3-6.5s-3-2.2-3.7-2c-.4.2 1.5 1.6 1.6 5 .1 1.8-1.5 7.5-8.7 8-7.2.5-9.6-8.2-7.4-13.1 1.8-4.3 5.9-11.3 19.1-9 7.6 1.3 11.7 11 12 15.2.2 3.5 0 22.3 0 23.5v6.4Zm26.2 0s6.9-4.7 10.2-4.7c.2 0 0-20.1 0-23.5 0-3.9 2.7-5.8 2.7-5.8s2.9-2.3 3.6-2c.5.1-1.5 1.5-1.6 4.8 0 2 1.6 7.6 8.8 8 7.2.6 9.7-8.2 7.4-13-2-4.3-6-11.3-19.2-9-7.5 1.3-11.9 10.7-12 16.3V120Z" fill="#ED1C24"/>
  <path d="M705.7 117.4s8.2 1.2 13.3 7.5c0 0 4.4-8.8 9.6-11 5.2 2.2 9.5 11 9.5 11a24.5 24.5 0 0 1 13.9-7.6c0 .4 0-.4 0 0 0 12.8-10.4 24.8-23.2 24.8a23.1 23.1 0 0 1-23-23c0-.7-.2-1.2 0-1.7Zm.6-56.8a6.2 6.2 0 1 1 12.3 0 6.2 6.2 0 0 1-12.3 0Z" fill="#ED1C24"/>
  <path d="M35.9 157.3a14.6 14.6 0 0 1-10.4 4.7C19 162 12 157 12 143.8c0-13.5 6.9-19.4 13-19.4 4 0 7 1.8 9.8 5.7h.8a26 26 0 0 1 1.3-6.5 23.7 23.7 0 0 0-11.6-3.1c-12 0-22.7 6.7-22.7 24.3 0 12 7.8 21.2 21 21.2 4.8 0 8.7-1 11.8-2.8a21 21 0 0 1 1.2-5.4l-.7-.5Zm33.3-9.7c0 7-.1 12-.5 17.5 1.3 0 2.8-.3 4.7-.3 1.9 0 3.4.2 4.7.3-.4-5.5-.5-10.4-.5-17.5v-8.7c0-7.1.1-12 .5-17.6a30.9 30.9 0 0 1-9.4 0c.4 5.5.5 10.4.5 17.5a254.8 254.8 0 0 1-17.4 0c0-7 .1-12 .5-17.5a30.9 30.9 0 0 1-9.4 0c.3 5.6.4 10.5.4 17.6v8.7c0 7 0 12-.4 17.5 1.2 0 2.8-.3 4.7-.3 1.9 0 3.4.2 4.7.3a272 272 0 0 1-.5-17.5v-3.7l8.7-.2 8.7.2v3.7Zm18.3 0c0 7 0 12-.4 17.5 1.2 0 2.8-.3 4.7-.3 1.9 0 3.4.2 4.7.3a272 272 0 0 1-.5-17.5v-8.7c0-7.1.1-12 .5-17.6a30.9 30.9 0 0 1-9.4 0c.3 5.6.4 10.5.4 17.6v8.7Zm18.9-13.6c0 13-.9 29.3-1.2 31.1a12.5 12.5 0 0 1 5.3 0c-.1-2.3-.3-5.9-.3-16l.1-14.8a697.5 697.5 0 0 1 25 30.8 8.3 8.3 0 0 1 4.6 0c0-16.9 0-25.3.9-43.8a11.9 11.9 0 0 1-5.1 0c.3 2.9.3 20.2.3 30.3-8.4-10.1-16.5-20.2-24.8-30.3-.8.2-1.7.3-2.5.3-.9 0-1.8 0-2.6-.3 0 3 .3 7 .3 12.7Zm58.8-13-2.2.3c-.8 0-1.4-.2-2.2-.3a1151 1151 0 0 1-16.3 44.1c1.1 0 2-.3 2.9-.3l2.7.3c1-4.3 2.3-8.7 3.9-13l5.9-.1 7.3.1c1.4 4.3 2.8 8.7 4 13l4.8-.3 5 .3a798 798 0 0 1-15.8-44.1Zm-9.8 27.4c1.7-5.2 3.5-10.2 5.4-15.1l5.1 15h-10.5Zm69.5-18.5c.7-2.8 1.1-4.3 1.8-6.3a13.8 13.8 0 0 0-9.4-3.1c-6.8 0-12.8 4.8-12.8 13.6 0 14.4 17 11.9 17 21.5 0 3.5-2.2 6.4-6.7 6.4a7.7 7.7 0 0 1-7.9-6.8h-1a71 71 0 0 1-1.7 8c1.6 1.4 5 2.8 9.2 2.8 9 0 15.1-5.9 15.1-14.4 0-14.4-17.4-12-17.4-21.4 0-3 2.5-5.8 6-5.8s5.7 1.9 6.9 5.5h.9Zm7.3 13.3c0 16 9.7 22.8 21.7 22.8 12.8 0 21.9-10.3 21.9-22.8 0-15.3-9.6-22.7-21.7-22.7-13.3 0-22 10.2-22 22.7Zm34.2-1.4c0 13.9-6 20.2-12.9 20.2-6.4 0-12-4.7-12-18.2 0-11 4.6-19.7 12.4-19.7 7.4 0 12.5 6.8 12.5 17.7Zm33.4 24.2c11 0 16.9-6.1 16.9-20.9 0-11 .4-20 .7-23.8a14.6 14.6 0 0 1-5.8 0c.3 5.9.5 11.6.5 17.5 0 11.8-.7 22.8-9.8 22.8-7.4 0-11.4-2.6-11.4-18 0-7.4 0-14 .8-22.3a38.7 38.7 0 0 1-9.4 0c.1 2.1.2 6.4.2 13.1v14.9c0 12 7.5 16.7 17.3 16.7Zm33.2-18.4c0 7 0 12-.4 17.5 1.3 0 2.8-.3 4.7-.3 1.9 0 3.4.2 4.7.3-.3-5.5-.5-10.4-.5-17.5v-16c0-2.3 0-4.6.2-5.5 2.2 0 7 .4 10.1.8a15 15 0 0 1 0-5.6c-4.8.2-7.4.3-14.5.3-7 0-9.6 0-14.9-.3a15.1 15.1 0 0 1 0 5.6c3.5-.4 8.3-.8 10.5-.8.2.9.2 3.2.2 5.6v15.9Zm50.5 0c0 7-.1 12-.5 17.5 1.3 0 2.8-.3 4.7-.3 1.9 0 3.4.2 4.7.3-.4-5.5-.5-10.4-.5-17.5v-8.7c0-7.1.1-12 .5-17.6a30.9 30.9 0 0 1-9.4 0c.4 5.5.5 10.4.5 17.5a254.6 254.6 0 0 1-17.4 0c0-7 .1-12 .4-17.5a29.5 29.5 0 0 1-9.3 0c.3 5.6.4 10.5.4 17.6v8.7c0 7 0 12-.4 17.5 1.2 0 2.8-.3 4.7-.3 1.8 0 3.4.2 4.6.3-.3-5.5-.4-10.4-.4-17.5v-3.7l8.7-.2 8.7.2v3.7Zm17.6 0c0 7-.1 12-.5 17.5 1.3 0 2.8-.3 12.2-.3 5.2 0 8 .3 10 .3-.2-.7-.3-1.4-.3-2.7 0-1.3.1-2 .3-2.8-4.4.5-8.8.8-13.1.8l-.2-8v-8c4.4 0 8.7.1 13 .5l-.3-2.6.3-2.9c-4.3.3-8 .4-13 .5 0-4.6 0-9.2.3-13.8 1.8 0 8.6.4 13 .8a12.6 12.6 0 0 1 0-5.6c-1.6.2-6.4.3-12 .3l-10.2-.3c.4 5.6.5 10.5.5 17.6v8.7Zm47.9 17.5 5.1-.3 5.2.3c-4.2-7.1-8.6-14.4-12.2-21.5 5.6-1.6 8.9-5.6 8.9-11.7 0-3.8-1.5-6.6-3.8-8.4-2-1.6-4-2.2-9.8-2.2-4 0-6.4.3-8.4.3s-3.5-.1-4.7-.3c.3 5.6.4 10.5.4 17.6v8.7c0 7-.1 12-.4 17.5 1.2 0 2.8-.3 4.6-.3 2 0 3.5.2 4.7.3-.3-5.5-.4-10.4-.4-17.5v-2.7h.5l10.2 20.2Zm-1.8-31.8c0 6-2.7 9-7.8 9h-1.2l.1-17.4c6.3 0 9 .9 9 8.4Zm17.5.7c0 13-.9 29.3-1.2 31.1a12.5 12.5 0 0 1 5.3 0c-.1-2.3-.3-5.9-.3-16l.1-14.8a692.5 692.5 0 0 1 25 30.8 8.4 8.4 0 0 1 4.6 0c0-16.9 0-25.3.9-43.8a12 12 0 0 1-5.1 0c.3 2.9.3 20.2.3 30.3a3860 3860 0 0 1-24.8-30.3c-.8.2-1.7.3-2.5.3a12 12 0 0 1-2.6-.3c0 3 .3 7 .3 12.7Z" fill="#000"/>
  <path fill-rule="evenodd" clip-rule="evenodd" d="M67.3 77.6H57v-2.4H38.4c0 13.4.2 22 .5 26H28.1c.3-4.2.5-12.8.6-26H10.6v2.4H.4a271.2 271.2 0 0 0 0-36.1c5.8.4 15.2.6 28.2.6 0-7.7-.3-12.7-.5-15l10.8.5c-.2 2.2-.3 7-.4 14.5 14.5 0 24.1-.2 28.8-.5a294.2 294.2 0 0 0 0 36Zm-29-11.4H57v-15H38.4v15Zm-27.7 0h18.1v-15H10.6v15ZM154 99.3h-9v-1.8H96.2v1.8h-9a848 848 0 0 0 0-69.3 732 732 0 0 0 66.8 0 868.4 868.4 0 0 0 0 69.3Zm-57.8-9H145V38H96.2v52.4Zm46.4-4.8c-3.9-.4-11.1-.6-21.7-.6a286 286 0 0 0-22.2.6v-9c4.5.3 10.6.5 18 .5V65.6l-15 .6v-7.8c3.9.4 9 .5 15 .5v-9.5c-7.2 0-13 .2-17.4.5v-7.7c4.3.3 11.4.5 21.1.5 9.7 0 16.7-.2 21-.5V50c-3.8-.3-9.4-.6-16.9-.6v9.5c6.7 0 11.7-.2 15.1-.5v7.8c-1.4-.1-3.5-.3-6.2-.3 2.3 2 4.6 4.4 6.8 7-1.7 1.6-3 3-3.8 3.9l6.2-.3v9Zm-9.7-8.6-6-6.5 4.6-4.6-7-.2V77h8.4Zm79.4-3.5v5.4c6.1 0 10.7-.3 13.8-.6v8c-3.4-.5-8-.7-13.7-.7.1 5.9.3 10.2.5 13.2h-9.6c.2-3 .3-7.5.4-13.2-6.2 0-11.1.2-14.9.6v-8c3.4.4 8.4.6 15 .7v-5.4c-6.3 0-11.3.2-15 .6v-7.8c2 .2 5.2.3 9.2.4l-5-5.9 3.8-3h-11.6V100h-9.6c.3-5.3.5-13.8.5-25.7a472 472 0 0 0-.5-25c3.9.5 13.1.7 27.7.7l.2-6c-18 0-28.6.2-31.6.6v-9.7c.5.3 11 .5 31.7.7 0-3.2-.1-6-.3-8.4l10.8.5-.6 7.8a419 419 0 0 0 29.5-.6v9.7a460 460 0 0 0-30.1-.6l-.5 6c13.4 0 22.4-.2 27-.6a489 489 0 0 0-.6 34.3l.1 7.7-.1 4c-.1.8-.6 1.7-1.4 2.6-.8 1-2.3 1.7-4.5 2-2.2.4-5.3.6-9.2.6-.4-2-1.4-5.3-3-9.7 2 .5 3.7.7 5 .7 1.3 0 2.3-.2 3-.7.7-.5 1-.8 1-1.1v-32h-11.4l4.3 1.8-4.4 7.1c2.7 0 5.3-.2 8-.4V74c-3.2-.3-7.8-.5-14-.6Zm1.4-6.7-3.2-1.8 3-7.2h-13l5.2 6-3.8 3h11.8Z" fill="#000"/>
  <path d="M330.2 48c-3-.3-13.6-.5-31.9-.5h-4.2c0 3-.1 6.5-.4 10.2 15 0 24.4-.2 28-.6a216 216 0 0 0-.3 14.8c0 7-.3 12-.8 15a15 15 0 0 1-3.3 7.7c-1.7 2-4 3.5-6.7 4.4-2.8 1-6.5 1.6-11 2-.9-3.2-1.9-6.3-3-9.3 7.4 0 11.8-1.1 13.3-3.5 1.6-2.3 2.3-9.9 2.3-22.7H293a47.2 47.2 0 0 1-8 20.9c-3.9 5-10.6 10-20.2 14.6a75.7 75.7 0 0 0-6.4-9 84 84 0 0 0 13.4-6.6 24 24 0 0 0 9.2-12.7 76.2 76.2 0 0 0 3.6-25.2c-12.3 0-20.6.2-24.7.6v-9c2 .3 13 .5 33 .5l-6.5-9.6 9-4.2c3 4.7 5.3 8.3 6.7 10.8l-5.2 3a539 539 0 0 0 33.4-.5v9Z" fill="#000"/>
  <path fill-rule="evenodd" clip-rule="evenodd" d="M418.4 45a291 291 0 0 0-41 0v-8.4c5.9.5 11.3.7 16.3.7l-4.2-7.9 7.9-3.6 5.4 9.7-3 1.8c7 0 13.2-.2 18.6-.7v8.5Zm.8 42.8c-.5 3-1 5.4-1.8 7.6-.7 2.1-1.7 3.5-3 4.1-1.2.7-2 1-2.2 1h-8.4c-1 0-1.9-.5-2.7-1.4a4.1 4.1 0 0 1-1.2-2.8v-38h-8l.2 12.7c0 6.5-.6 12-2 16.5a39.8 39.8 0 0 1-8.4 14.2 134 134 0 0 0-6.8-6.3c-.7 2-1.8 3.3-3.4 4-1.6.7-4.6 1-8.9 1a96 96 0 0 0-2.5-8.3h4.1c1.2-.1 2-.4 2.5-.8.4-.5.6-1 .6-1.4V83l-7.2 3a159 159 0 0 0-3.2-11.3c-.2 5.7-.6 10.2-1.3 13.6-.8 3.3-2.5 7.8-5 13.3a49.7 49.7 0 0 0-7.4-6 41 41 0 0 0 6.3-20.8l-.2-7.2c-2.1.1-3.8.2-4.9.4v-8.4c1.6.2 3.2.2 4.9.2 0-13-.3-21.5-.6-25.5l7.8.5a71 71 0 0 0 1.8-9l9 1.8-2.4 7.2c2.6 0 6.2-.2 10.9-.6-.4 4.6-.5 12-.5 22.4 0 8.4 0 21.1-.2 38a25 25 0 0 0 7.2-10.2c1.3-3.6 2-9.6 2-18.1 0-4.3-.2-9.6-.7-15.8a187 187 0 0 0 24.8-.1 398.7 398.7 0 0 0-.5 41c.2.8.6 1.2 1.3 1.2 1.4 0 2.1-2.6 2.1-7.7 2.5 1.2 5.2 2.2 7.9 3Zm-52-46.4H357v6.4l6.7-2.2 3 10.3c-3 1.4-5.1 2.4-6.7 3l-3-9.1V60h10.2V41.5Zm0 41.6V67.3h-10.3v3.2l6.8-1.4 3.5 13.9Zm136.6-29h-9v-9h-53.6v9H432a55.2 55.2 0 0 0 0-17.4c5.4.4 16.7.6 33.9.6l-5-8.4 8.5-3 4.8 9.6-3 1.8c17.1 0 28-.2 32.4-.7a65 65 0 0 0 0 17.6Zm0 45.3a776.7 776.7 0 0 0-71.6 0v-9.1c4.7.3 15.1.6 31.3.6v-15c-8.8 0-15.8.1-21 .5v-8.8l-3.7 2.2a61.2 61.2 0 0 0-4.8-7.9 74.1 74.1 0 0 0 22.9-15l6.6 6c-5.3 4.4-12.3 9.2-20.9 14.5 4.6.4 21.4.7 50.4.7v8.4a356 356 0 0 0-20.4-.7v15c16.7 0 27.2-.2 31.3-.5v9Zm-3.1-37.4a113 113 0 0 0-4.1 8.4A398 398 0 0 0 471.3 54l5.9-6 23.5 13.8Z" fill="#000"/>
</svg>
