<svg fill="none" width="150px" xmlns="http://www.w3.org/2000/svg" viewBox="0 0 600 132">
  <path fill-rule="evenodd" clip-rule="evenodd" d="M158.3 47.3C105.5 48.7 54.5 60.7 49.7 77.7c-.4 1.5-.5 3-.5 4.6 0 16.7 34.9 22.4 72.7 27.2.6 0 .6-.5.4-.9l-1.1-2c-.2-.2-.3-.4-.9-.5-20.6-5.3-41.6-13-41.6-20.1 0-13.6 35.1-27 75.2-33.2 1.3-.2 2-.5 2.9-1.2l4.6-3.7c.6-.5.4-.7.1-.7h-3.2Z" fill="#1B1D80"/>
  <path fill-rule="evenodd" clip-rule="evenodd" d="M100 129.1C72.4 122.3 45.2 99.3 49.5 78 56 47 97.7 16.7 150 2.6c1.2-.4 1.6-1.2.1-1.2H78.8c-12.4 0-15 1.6-19.8 8L25.5 55.7a7.8 7.8 0 0 1-6.9 3.3H1.4c20.4 57.5 42.3 71 64.2 71h34.6c.5 0 1-.4-.3-.8M428.2 13.4v5h-21.7a3.7 3.7 0 1 0 0 7.3l10.6-.1v9a44 44 0 0 1-10 26.6l-.8 1c-.9.7-1.4 1.7-1.4 3 0 2 1.7 3.6 3.7 3.6 1.1 0 2.4-.5 3-1.3 2.7-2.1 11.3-10.2 13-28.6H448c0 3.7-.1 8.1-.4 13.5-.3 9.2-6.7 9-9.8 8.9h-.2c-2.7-.3-6.7-1.3-6.8-1.3l-1-.1a3.7 3.7 0 0 0-.8 7.2s3.9 1.4 7.5 1.5h.7c4.6 0 9.8.1 13.5-3.4 3.1-3 4.6-8.2 4.7-15.7.2-3.1.3-8.1.3-11v-1.9c-.2-2.9-2.4-5-5.1-5H425v-6l32.8.1a3.7 3.7 0 0 0 0-7.4h-21.9v-5c0-2-1.8-3.6-3.9-3.6-2 0-3.8 1.7-3.8 3.7m119.5 30.7a3.7 3.7 0 1 0 0 7.4h18.2v9.3h-21.7c-2 0-3.7 1.7-3.7 3.7s1.7 3.7 3.7 3.7h50.7c2 0 3.7-1.7 3.7-3.7s-1.7-3.7-3.7-3.7h-21.4v-9.3h18.2a3.7 3.7 0 0 0 0-7.4h-44Zm18.2-30.6V16h-19a5 5 0 0 0-5 5.1v7.5a3.7 3.7 0 1 0 7.3 0v-5.3h8.6v1.2c0 .8 0 1.8-.3 2.9-1 3.7-4.9 6.3-11.3 7.7h-.2a3.6 3.6 0 0 0-3.3 3.6c0 2 1.8 3.6 4 3.6h.3c14.3-1.3 18-8.7 18.8-14.8l.2-4.2h7.2v13.4a5 5 0 0 0 5 5h10.6c5.6 0 8-3.8 8-3.8a5 5 0 0 0 .6-2.3c.1-1.8-.6-2.2-1.5-2.8l-.2-.1c-1.3-.8-2.7-.6-4.3.8-1.8 1.5-3.3 1.3-3.3 1.3h-6.3s-.6 0-1-.4c-.2-.2-.3-.5-.3-1v-10h10a44594.2 44594.2 0 0 0-1 3.8c0 .6.2 1.2.5 1.8.5.8 1.4 1.4 2.3 1.6 2 .5 4.3-.9 4.8-2.8 0-.2 1.5-4.1 1.4-6.4 0-3.5-1.8-5.3-5.3-5.4h-19.9v-2.5c0-2-1.7-3.6-3.8-3.6-2 0-3.6 1.6-3.6 3.6m-267.9 7c-.5.5-.7 1.3-.6 2.3V24h-16.9c-1.5 0-3.2 1.3-3.2 3a3 3 0 0 0 3 2.9h18c1 6.8 2.5 12.4 4.3 17.3a89.6 89.6 0 0 1-5.4 7.6c-.4.4-.7 1.8-.7 2.8l.1 1c.5.8 1.3 1.4 2.1 1.5 1 .1 2-.3 2.9-1.1.8-.8 1.2-1.6 2-2.8l1.8-2.8c1.8 3.3 3.3 5.6 3.3 5.6a3 3 0 0 0 2.6 1.5 3 3 0 0 0 2.7-1.8l.2-.2c.5-1 1.8-3.6 2.7-9 .1-1-.2-2-.7-2.7-.5-.5-1.1-.8-2-.9-1 0-2.4.7-2.7 2l-.8 3.4-1.5-3.4c2.8-4.7 4.8-9 6-13.2v-1.1a3 3 0 0 0-1-2c-.6-.6-1.3-.9-2.1-.8a3 3 0 0 0-2.7 2.1s-1.5 4.7-2.9 7.6c-.8-2.8-1.6-6.2-2.3-10.6h9.8a3 3 0 0 0 3-3 3 3 0 0 0-3-2.9h-1.5v-.3c0-.8-.3-1.5-.7-2l-.4-.5a3 3 0 0 0-2.1-1c-.9-.2-1.7.1-2.3.7-.4.3-.6.7-.7 1.3 0 .6.4 1.2.8 1.7h-3.6l-.2-1.2c-.3-2-1.3-3-3-3a3 3 0 0 0-2.3.9" fill="#DF0011"/>
  <path fill-rule="evenodd" clip-rule="evenodd" d="M317.8 60.3c0 .6-.3.9-1 .9h-16.2l-23.2-.1c-.6 0-.8-.3-.8-.9V20.1c0-.3 0-.5.2-.7l.6-.2H317c.3 0 .5.1.7.3l.2.6-.1 40.2Zm2-48h-45.1a5 5 0 0 0-5 5V63c0 2.8 2.2 5 5 5.1h45.1c2.8 0 5.1-2.3 5.1-5.1V17.4c0-2.9-2.3-5.2-5-5.2Z" fill="#DF0011"/>
  <path fill-rule="evenodd" clip-rule="evenodd" d="M283.8 42.9h8.6V37h-8.6v6Zm13.8-9.6c-.4-1-1.4-1.7-2.5-1.7h-14c-.8 0-1.6.3-2.1 1-.4.5-.6 1.1-.6 1.8v11.8a2.7 2.7 0 0 0 2.7 2.2h14.8a3 3 0 0 0 2-2.7V34.4c0-.4-.2-.8-.3-1.1Zm-4.7 16.3s-7.1 2.3-12 2.3c-2.3 0-3.4 1.5-3.5 3 0 .6.2 1.3.8 1.9a4 4 0 0 0 2.6 1.2c8.3.1 14.6-2.7 14.7-2.7 1.5-.7 2.8-2.5 2.1-4.3-1-2.7-4.7-1.4-4.7-1.4M249.2 45c0 .2 0 .6-.2.8l-.6.3H232V25.5h16.2c.3 0 .5.1.7.3.2.2.2.4.2.5V45Zm-24.5 1h-16.3s-.8 0-.8-.9V26.4c0-.1 0-.4.2-.6l.6-.3h16.3v20.6Zm27-27.8h-19.5v-5.3c0-2-1.7-3.8-3.8-3.8-2 0-3.7 1.7-3.7 3.8v5.3h-19.5a5 5 0 0 0-5 5.1v25a5 5 0 0 0 5 5.1h19.5v12a3.7 3.7 0 1 0 7.5 0v-12l19.6.1a5 5 0 0 0 5-5.1V23.3a5 5 0 0 0-5-5.1Zm117.8 25v-3.6h14.7v3.6h-14.7Zm0-13h14.7V34h-14.7v-3.6ZM362 34h-15v-3.6h15V34Zm0 9.3h-15v-3.6h15v3.6Zm31.1 17s-10-4.2-19.5-10.8h12.2a5 5 0 0 0 5.1-5V29.4a5 5 0 0 0-4.9-5h-16.7V21h21.8c2 0 3.7-1.6 3.7-3.6s-1.7-3.6-3.7-3.6h-21.8v-.7a3.7 3.7 0 0 0-7.3 0v.7h-21.8c-2 0-3.7 1.6-3.7 3.6s1.7 3.6 3.7 3.6H362v3.4h-16.8c-3.2.2-5 2-5 5.1v14.8a5 5 0 0 0 5 5h12.1a113.9 113.9 0 0 1-19.6 10.6 3.7 3.7 0 0 0 1.6 7l1-.1c.1 0 13.5-4 21.6-12.9v12.2c0 2 1.7 3.7 3.7 3.7s3.7-1.7 3.7-3.7V53.6a77.2 77.2 0 0 0 20.4 13.2c.6.4 2.1.6 2.8.6 1.9 0 3.4-1.7 3.4-3.8 0-1.5-1.4-2.8-2.8-3.4ZM509 28h-1c-2.5 0-4.6 2.2-4.7 5v17.6a22.1 22.1 0 0 1-4 12.5l-.2.1v.2a4 4 0 0 0-.7 2 3.6 3.6 0 0 0 6.4 2.2s6.2-6.4 6.2-16.5V35.3h6.1v27c0 3 2 6 5.4 6h4.4c.1 0 3.7.3 5.7-6.3l.1-.6.2-1.3v-.3c.1-.7.2-2.3-2.4-3-1.6-.5-2.8.1-3.5 1.8l-.3 1c-.3 1-.5 1.4-1 1.5h-1.4V33s-.1-4.7-5-5H509m.6-14.8v4.3H503c-2.1 0-3.8 1.6-3.8 3.6s1.7 3.6 3.8 3.6h22.8c2 0 3.8-1.7 3.8-3.6 0-2-1.7-3.6-3.8-3.6h-8.9v-4.3a3.6 3.6 0 1 0-7.2 0Zm-18.9 24h-3.3a3.1 3.1 0 0 0 .8-2.6l-.8-5A2.9 2.9 0 0 0 484 27a3.2 3.2 0 0 0-2.6 3.1v.5l.9 5c0 .6.3 1.1.5 1.5h-3.1V24.7h11v12.5Zm7.7 0h-.3V20.9c0-2-1.7-3.6-3.6-3.6h-6l.7-2.5.2-.6.1-.9a4 4 0 0 0-.5-1.8 3.6 3.6 0 0 0-5-1.2c-.7.5-1.3 1.2-1.5 2.2l-1.2 4.8H476c-2 0-3.6 1.7-3.6 3.7v16.2c-2 0-3.6 1.6-3.6 3.6s1.6 3.5 3.6 3.5v2.5c0 2.9-.3 5.5-.5 7.8v.4c-.9 7-2.3 9.7-2.3 9.7l-.2 1.5a3.6 3.6 0 0 0 6.8 1.5c.2-.3 1.8-3.3 2.7-11.9v-.5c.3-2.6.5-5.5.6-8.6v-2.4h2.7V53c0 2 1.2 3.4 2.8 3.4 1.7 0 3-1.5 3-3.4v-8.8h2.8v17c0 .4 0 .6-.3.7-.7.7-2.7.3-3.4.2h-.4c-2 0-3.3 1.4-3.3 3.4 0 1.5.6 2 1.3 2.6l.1.1c1 .8 2.4.8 2.5.8 4.7.2 7.2-.4 8.7-1.9 1.4-1.3 2-3.3 2-6.7V44.2h.3c2 0 3.4-1.4 3.4-3.5 0-2-1.4-3.5-3.4-3.5Z" fill="#DF0011"/>
  <path fill-rule="evenodd" clip-rule="evenodd" d="M311 86.4c-.7.7-1 1.8-1 3.4v19.4l-11.3-19c-2-3.3-4-5-6-5-1.6 0-2.8.5-3.5 1.3-.7.8-1 2.3-1 4.5v26.2c0 1.5.3 2.7.9 3.4.6.7 1.6 1.1 2.9 1.1 1.2 0 2.2-.4 2.8-1.1.7-.7 1-1.9 1-3.4V97.8l11.8 19.9a9 9 0 0 0 2.7 3.3 6 6 0 0 0 3.1.7c1.5 0 2.6-.4 3.3-1.3.6-.8.9-2.2.9-4.3V89.8c0-1.6-.3-2.7-1-3.4-.6-.8-1.5-1.2-2.8-1.2-1.3 0-2.3.4-2.9 1.2m-36.5-.1c-.7.6-1 1.7-1 3v28.3c0 1.4.4 2.4 1 3 .6.8 1.6 1.1 2.9 1.1 1.2 0 2.2-.3 2.9-1 .6-.7 1-1.7 1-3V89.2c0-1.3-.4-2.3-1-3-.7-.7-1.7-1-3-1-1.2 0-2.2.3-2.8 1m-14.8.1c-.6.6-1 1.7-1 3v9.5h-14v-9.5c0-1.3-.3-2.3-1-3-.6-.7-1.5-1-2.8-1-1.3 0-2.2.3-2.9 1-.6.6-1 1.7-1 3v28.3c0 1.4.4 2.4 1 3 .7.8 1.6 1.1 2.9 1.1 1.3 0 2.3-.3 2.9-1 .6-.7 1-1.7 1-3v-12h14v12c0 1.3.3 2.3 1 3 .6.7 1.6 1 2.8 1 1.3 0 2.3-.3 3-1 .6-.7.9-1.7.9-3V89.2c0-1.3-.3-2.3-1-3-.6-.7-1.6-1-2.9-1-1.3 0-2.2.3-2.9 1m-54.9 3.7c-3 3.4-4.5 8.1-4.5 14.2 0 5.6 1.5 10 4.4 13.3 3 3.2 7 4.9 12.2 4.9a16.3 16.3 0 0 0 11.7-4.2c1-.9 1.9-2 2.5-3 .6-1 1-2.1 1-3 0-1-.5-1.8-1.2-2.5s-1.6-1-2.6-1c-.7 0-1.3.1-1.9.5-.5.3-1 .8-1.7 1.6l-.6 1-.7 1.2c-.7.8-1.5 1.3-2.6 1.8-1 .4-2.2.6-3.5.6-3 0-5.2-1-6.8-3-1.6-2.1-2.4-5-2.4-8.8 0-3.7.8-6.6 2.4-8.7a8 8 0 0 1 6.5-3.1 9 9 0 0 1 3.5.6 7 7 0 0 1 2.7 2l.6 1a5.7 5.7 0 0 0 2.6 2.3 4 4 0 0 0 1.8.4c1.1 0 2-.3 2.7-1a4 4 0 0 0 1-2.7c0-1-.4-2-1-3.1-.6-1-1.5-2-2.6-2.8a16.5 16.5 0 0 0-11-3.6 16 16 0 0 0-12.5 5m128.1 17.9 4.5-14 4.6 14h-9.1Zm20.3 9.7-.3-1-9.9-27.3c-.6-1.6-1.2-2.6-2-3.1-.7-.5-1.9-.7-3.4-.7-1.7 0-3 .2-3.6.7-.8.5-1.4 1.6-2 3.2l-9.7 27.2-.3 1v1a3 3 0 0 0 1 2.4c.7.7 1.6 1 2.7 1a4 4 0 0 0 2.3-.7 6 6 0 0 0 1.4-2l1.5-5h13.3l1.6 5c.3.9.8 1.6 1.4 2 .6.5 1.4.7 2.3.7 1.1 0 2-.3 2.7-1a3 3 0 0 0 1-2.4v-1Zm238.8-31c-.6.7-1 1.8-1 3.4v19.4l-11.2-19c-2-3.3-4-5-6-5-1.6 0-2.8.5-3.5 1.3-.7.8-1 2.3-1 4.5v26.2c0 1.6.3 2.7.9 3.4.6.7 1.5 1.1 2.8 1.1a4 4 0 0 0 3-1.1c.5-.8.9-1.9.9-3.4V97.8l11.8 19.9a9 9 0 0 0 2.7 3.3c.8.5 1.8.7 3.1.7 1.5 0 2.6-.4 3.2-1.3.7-.8 1-2.2 1-4.3V89.8c0-1.6-.4-2.7-1-3.4-.6-.8-1.5-1.2-2.8-1.2-1.3 0-2.3.4-2.9 1.2m-85.2-.7c-1.7 0-2.9.4-3.6 1.3-.6.8-1 2.3-1 4.5v24c0 2.3.4 3.7 1 4.5.7.9 2 1.3 3.6 1.3h18.6c1.3 0 2.4-.3 3-.9.8-.6 1.1-1.4 1.1-2.6 0-1.1-.3-2-1-2.6-.7-.5-1.8-.8-3.1-.8h-15.6v-8.6H523c1.3 0 2.3-.3 3-.8a3 3 0 0 0 1-2.4c0-1.1-.3-2-1-2.5s-1.7-.8-3-.8h-13.2v-7h14.7a5 5 0 0 0 3-.8c.7-.6 1.1-1.4 1.1-2.5 0-1-.4-1.9-1-2.4a5 5 0 0 0-3.1-.9h-17.7Zm-34.5.1c-1.2 0-2.2.3-2.8.8-.7.6-1 1.4-1 2.5s.3 2 1 2.5c.6.6 1.5.8 2.8.8h7v25.2c0 1.4.4 2.4 1 3 .7.8 1.6 1.1 3 1.1 1.2 0 2.2-.3 2.8-1 .6-.7 1-1.7 1-3V92.3h7c1.3 0 2.2-.2 2.8-.8.7-.6 1-1.4 1-2.5 0-1-.3-1.9-1-2.5-.6-.5-1.5-.8-2.8-.8h-21.8Zm-95.4-.1c-1.7 0-2.9.4-3.6 1.3-.7.8-1 2.3-1 4.5v24c0 2.3.3 3.7 1 4.5.7.9 1.9 1.3 3.6 1.3h18.5c1.4 0 2.4-.3 3.1-.9.7-.6 1-1.4 1-2.6 0-1.1-.3-2-1-2.5-.7-.6-1.7-1-3-1h-15.6v-8.5h13.1c1.3 0 2.3-.3 3-.8a3 3 0 0 0 1.1-2.4c0-1.1-.4-2-1-2.5-.7-.5-1.8-.8-3-.8h-13.2v-7h14.6a5 5 0 0 0 3-.8c.8-.6 1.1-1.4 1.1-2.5 0-1-.3-1.9-1-2.4-.7-.6-1.8-.9-3-.9h-17.7Zm65.2 1.9a9.6 9.6 0 0 0-3.5 8c0 3 .8 5.3 2.4 6.9 1.6 1.5 4.8 2.8 9.4 3.9l.4.1c5.8 1.3 8.7 3 8.7 5 0 1.4-.5 2.4-1.6 3.2a9 9 0 0 1-5 1c-1.3 0-2.5-.1-3.5-.5-1-.5-1.8-1-2.5-1.9l-1-1.4c-1.1-1.7-2.4-2.6-3.7-2.6-1 0-2 .4-2.6 1a4 4 0 0 0-1 2.8 7 7 0 0 0 1 3.2c.7 1 1.6 2 2.6 2.8 1.6 1.1 3.2 2 5 2.4 1.6.5 3.6.8 5.9.8 4.3 0 7.7-1 10.2-3.1 2.5-2 3.7-5 3.7-8.5 0-2-.3-3.6-1-5a8.2 8.2 0 0 0-3.4-3.3l-3-1.2c-1.1-.4-3-1-5.5-1.6l-2.3-.5c-3.8-1-5.8-2.2-5.8-4 0-1.2.5-2.2 1.5-3 1-.6 2.4-1 4.2-1 1.3 0 2.4.2 3.3.5.9.4 1.6 1 2.2 1.6l.7.9c1.2 1.6 2.5 2.4 3.8 2.4 1 0 2-.3 2.5-1 .7-.6 1-1.4 1-2.4s-.3-2-1-3a9 9 0 0 0-2.5-2.6 14 14 0 0 0-4.3-2c-1.6-.5-3.4-.7-5.3-.7-4.2 0-7.6 1-10 2.8M554.2 100c-.8.7-2.2 1-4 1H542v-8.8h8.6c1.6 0 2.8.4 3.6 1.1.8.8 1.2 1.9 1.2 3.4s-.4 2.6-1.2 3.3Zm8.2 14.8-.2-2.1-.1-2.6a8 8 0 0 0-1.3-4 6 6 0 0 0-2.6-1.9 7 7 0 0 0 3.5-2.8c1-1.5 1.4-3.3 1.4-5.5 0-3.4-1-6-2.9-7.7-1.8-1.6-4.8-2.5-8.6-2.5h-12.7c-1.7 0-2.9.4-3.6 1.3-.6.8-1 2.3-1 4.5v26.2c0 1.3.3 2.3 1 3 .6.7 1.6 1 2.9 1 1.2 0 2.2-.3 2.9-1 .6-.7.9-1.7.9-3v-10h7.4c1.8 0 3 .2 3.7.9.7.6 1.1 2.3 1.3 5 .3 3.7.7 5.9 1.4 6.8.7.9 1.8 1.4 3.4 1.4a4 4 0 0 0 2.8-1c.7-.6 1-1.5 1-2.5 0-.4 0-1-.2-1.7l-.4-1.8Zm-147.9-7.1 4.5-14 4.6 14h-9.1Zm20.3 9.7-.3-1-9.9-27.3c-.6-1.6-1.2-2.6-2-3.1-.7-.5-1.8-.7-3.4-.7-1.7 0-2.9.2-3.6.7a7 7 0 0 0-2 3.2l-9.7 27.2-.2 1-.1 1a3 3 0 0 0 1 2.4c.7.7 1.6 1 2.7 1a4 4 0 0 0 2.3-.7c.6-.5 1.1-1.2 1.4-2l1.6-5h13.2l1.7 5c.3.9.7 1.6 1.3 2 .6.5 1.4.7 2.3.7 1.1 0 2-.3 2.7-1a3 3 0 0 0 1.1-2.4v-1Z" fill="#1B1D80"/>
</svg>
