<svg xmlns="http://www.w3.org/2000/svg" width="1781" height="1385" fill="none"><path fill="#fff" d="m1777 3-535 1379H7L1390 3h387Z"/><path fill="#1B1D80" fill-rule="evenodd" d="M1419 757c-274 6-538 68-563 156v26c0 87 181 113 372 139l5-5-5-10h-5c-109-31-217-68-217-104 0-72 181-139 388-176l15-5 26-21h-16Z" clip-rule="evenodd"/><path fill="#DF0011" fill-rule="evenodd" d="M1114 1182c-139-37-279-156-258-264 31-166 248-321 517-393 10 0 10-5 5-5h-372c-62 0-78 10-99 41L731 799c-5 10-15 15-36 15h-88c104 300 218 373 331 373h181s6-5-5-5Z" clip-rule="evenodd"/></svg>