<svg fill="none" xmlns="http://www.w3.org/2000/svg" viewBox="0 0 134 137">
  <g clip-path="url(#a)" fill="#ED1B2F">
    <path d="M134 58c0-11.5-8-21-24.1-21-10.8 0-23.3 9.2-23.3 32.2v34a33.3 33.3 0 0 1 14.3-5.9V65.6c0-12.2 9-15.8 13-15.8a10.5 10.5 0 0 0-3.8 8.3 12 12 0 0 0 12 11.9c6.5 0 11.6-4.8 11.9-12M0 58c0-11.5 8-21 24.2-21 10.8 0 23.6 9.2 23.6 32.2v34A35.2 35.2 0 0 0 33 97.3V65.6c0-12.2-8.8-15.8-12.8-15.8a11 11 0 0 1 3.7 8.3A12 12 0 0 1 12 70C5.4 70 .4 65.2 0 58Z"/>
    <path d="M67.2 137c16.1 0 24.7-8 29.3-15.8A34 34 0 0 0 101 104v-3.1A36.6 36.6 0 0 0 80.3 114a32.3 32.3 0 0 0-13-18.8A31.4 31.4 0 0 0 54 114a36.6 36.6 0 0 0-21-13.2v3A32.4 32.4 0 0 0 67.2 137M69 17.2v9.4a12.7 12.7 0 0 1 10.2 7.6c-5.7 3.8-10 9.4-12.1 15.8-2-6.5-6.3-12-12-15.8a13.3 13.3 0 0 1 10.1-7.6v-9.5a8.6 8.6 0 0 1-4.1-14.5 8.7 8.7 0 0 1 14.8 6.1 8.8 8.8 0 0 1-6.9 8.5"/>
    <path d="M45 24v10c12 2.4 20.3 15 20.3 26.5v31.8a30 30 0 0 0-12.7 15.1l-1.5-1.5V64.6c0-12.5-6.8-25.1-18.7-29.2 0 0 4-1.6 8.7-1.6V24a8.7 8.7 0 1 1 10-11.9c.4 1.1.6 2.2.6 3.4a8.5 8.5 0 0 1-6.6 8.5m47.8 0v9.8a25 25 0 0 1 8.6 1.6c-11.7 4-18.4 17-18.4 29.2v41.3l-1.4 1.5c-1.8-5.5-7.2-12-12.8-15v-32c0-11.5 8.5-24 20.3-26.4V24a8.8 8.8 0 0 1 2-17.3c4.5 0 8.3 3.9 8.3 8.8A8.6 8.6 0 0 1 93 24"/>
  </g>
  <defs>
    <clipPath id="a">
      <path fill="#fff" d="M0 0h134v137H0z"/>
    </clipPath>
  </defs>
</svg>
