<svg width="156" height="135" fill="none" xmlns="http://www.w3.org/2000/svg">
  <path d="M138.2 38.4c.5 0 1 .3 1.3.8l15.6 27c.2.4.1.8-.3 1l-.4.1H78.1L61.6 38.6l.7-.2h75.9Z" fill="#E5004B"/>
  <path d="m94.1 94.9-16-27.7L61.5 96h32c.4 0 .7-.3.7-.8l-.1-.3Z" fill="#00BDA2"/>
  <path d="M78.1 67.2H44.9L28.3 96.1h33.2l16.6-28.9Zm-54.7 39.6 15.6 27 .5.5L56 105.6H23.1c0 .4.1.9.3 1.2Z" fill="#3B4444"/>
  <path d="M33.8 67.2 17.3 95.9l.6.2h10.4l16.6-28.8H33.8v-.1Z" fill="#00BDA2"/>
  <path d="M117.4.8c-.3-.5-.8-.8-1.3-.8h-76l-.6.2L56 28.9h76.3c.4 0 .7-.3.7-.8l-.1-.4L117.4.8Z" fill="#E5004B"/>
  <path d="M44.9 67.2h33.2L61.6 38.6l-.5.5-16.2 28.1Z" fill="#FFC62D"/>
  <path d="M33.8 67.2H.9c0 .4.1.9.3 1.3l15.5 26.9.5.5 16.6-28.7Z" fill="#3B4444"/>
  <path d="m56 105.7-16.5 28.7.6.2h75.6c.4 0 .7-.3.8-.7l-.1-.4-15.6-27c-.3-.5-.8-.8-1.3-.8H56Z" fill="#00BDA2"/>
  <path d="M56 28.8 39.5.2l-.5.5L1.3 66.1 1 67.3h32.9L56 28.8Zm5.5 67.3H28.3l-4.8 8.4-.3 1.2H56l5.5-9.6Z" fill="#FFC62D"/>
</svg>
