<svg fill="none" xmlns="http://www.w3.org/2000/svg" viewBox="0 0 119 93">
  <path d="M0 80.8 53.5 0v56.8m0 10.6v24.8H.2" fill="#EF4035"/>
  <path d="M107 80.8 53.5 0v56.8m0 10.6v24.8h53.3" fill="#AB0534"/>
  <path fill-rule="evenodd" clip-rule="evenodd" d="M115 80.8c1.8 0 3.2-1.4 3.2-3.2 0-1.8-1.4-3.2-3.2-3.2a3.2 3.2 0 0 0-3.2 3.2c0 1.8 1.5 3.2 3.2 3.2Zm0-.6a2.6 2.6 0 0 1-2.6-2.6c0-1.5 1.2-2.6 2.6-2.6 1.5 0 2.6 1.2 2.6 2.6 0 1.5-1.1 2.6-2.6 2.6Zm.8-2.3 1-.9-.4-.9-.9-.1h-1.7v3.4h.7v-1.5h.7l.8 1.5h.8l-1-1.5Zm-1.4-.5v-1h.9l.8.4-.7.5h-1v.1Z" fill="#AB0534"/>
</svg>
