<svg fill="none" xmlns="http://www.w3.org/2000/svg" viewBox="0 0 600 93">
  <path d="M161.5 10.2h-2.4v73.1h29.5a60 60 0 0 0 12.6-1.2c3.7-.8 7-2.1 9.7-3.7 2.7-1.7 5.2-3.9 7.5-6.8 2.3-2.8 4.1-6.4 5.5-10.7 1.4-4.3 2.1-9.2 2.1-14.6 0-6.4-1.1-12.2-3.1-17.2a31.1 31.1 0 0 0-9.6-12.7 28.7 28.7 0 0 0-12-5.4c-3.3-.7-7.8-1-13.9-1m-.2 13.2c5.6 0 9.6.4 12 1.3 3.2 1.1 5.9 3.3 8.2 6.7a27 27 0 0 1 3.4 15c0 4.8-.6 9-1.8 12.3a20.3 20.3 0 0 1-4.8 7.7 13.8 13.8 0 0 1-5.8 3c-2.6.8-6.2 1.2-10.9 1.2H174V23.3h13.2v-.1Z" fill="#003D79"/>
  <path d="M161.5 80.9V12.7h25.8a64 64 0 0 1 13.3 1c4.3.9 8 2.5 11 4.9a28 28 0 0 1 8.9 11.7 41 41 0 0 1 2.9 16.2c0 5.2-.7 9.8-2 13.8s-3 7.3-5.1 9.9a28 28 0 0 1-6.8 6.2 28.1 28.1 0 0 1-9 3.4c-3.5.8-7.5 1.2-12 1.2m-17.1-8.2h16c4.9 0 8.8-.4 11.6-1.2 2.8-.8 5.1-2 6.7-3.5 2.4-2.1 4.2-5 5.5-8.6 1.3-3.6 2-8 2-13.1a29 29 0 0 0-3.9-16.4 19.2 19.2 0 0 0-9.4-7.7c-2.7-.9-6.9-1.4-12.8-1.4h-15.7v51.9Zm145.5-62.6h-48.4v73.1H321v-13h-38.6V52h34.4V39h-34.4V23.2h36.9v-13" fill="#003D79"/>
  <path d="M271 80.9V12.6h45.9v8.1H280v20.7h34.4v8.1H280v23.3h38.5v8.1m61.7-70.7h-11.4v73.1h47.4v-13h-33.5V10.2" fill="#003D79"/>
  <path d="M371.2 80.9V12.6h9v60.2h33.5v8.1m83.9-70.7h-56.5v13h22.5v60.1h13.9V23.2H500v-13" fill="#003D79"/>
  <path d="M466.1 80.9V20.7h-22.5v-8.1h54v8.1h-22.5v60.2m90.7-70.7h-11.7l-31 73.1h14.8l7.4-20.7h31.3l7.8 20.7H600l-32.5-73.1m-6.7 17.6 2.4 7 5.8 15.5h-16.2l6.3-16.7c.7-1.8 1.1-3.8 1.7-5.8Z" fill="#003D79"/>
  <path d="m526.7 80.9 29.1-68.2h10l30.6 68.2h-10.3l-7.8-20.7h-34.7l-7.4 20.7m13.1-28.1h23.3L565.5 34c-2.1-5.8-3.7-10.5-4.9-14.3-.9 4.5-2.2 8.9-3.8 13.2l-7.5 19.9Z" fill="#003D79"/>
  <path d="M0 80.8 53.5 0v56.8m0 10.6v24.8H.2" fill="#EF4035"/>
  <path d="M107 80.8 53.5 0v56.8m0 10.6v24.8h53.3" fill="#AB0534"/>
  <path fill-rule="evenodd" clip-rule="evenodd" d="M115 80.8c1.8 0 3.2-1.4 3.2-3.2 0-1.8-1.4-3.2-3.2-3.2a3.2 3.2 0 0 0-3.2 3.2c0 1.8 1.5 3.2 3.2 3.2Zm0-.6a2.6 2.6 0 0 1-2.6-2.6c0-1.5 1.2-2.6 2.6-2.6 1.5 0 2.6 1.2 2.6 2.6 0 1.5-1.1 2.6-2.6 2.6Zm.8-2.3 1-.9-.4-.9-.9-.1h-1.7v3.4h.7v-1.5h.7l.8 1.5h.8l-1-1.5Zm-1.4-.5v-1h.9l.8.4-.7.5h-1v.1Z" fill="#AB0534"/>
</svg>
