<svg xmlns="http://www.w3.org/2000/svg" width="1186.9" height="852.5"><defs><style>@font-face{font-family:&quot;Virgil&quot;;src:url(&quot;https://excalidraw.com/Virgil.woff2&quot;)}@font-face{font-family:&quot;Cascadia&quot;;src:url(&quot;https://excalidraw.com/Cascadia.woff2&quot;)}</style></defs><g stroke-opacity=".6" fill-opacity=".6"><path d="M11.7 12l1160.6-1-1.5 828.2-1160-2.8" stroke-width="0" fill="#15aabf"/><path d="M9.7 9.7c251-.6 502.1-.8 1161 .6M10 10.3c288.3-4.4 577-5 1161 0m-.2-.1c-2.2 310.1-3.4 620 .2 827.9M1171 9.8c2.8 166.4 3 332.1.3 828.5m-1 .5c-402.3-.9-806.8-1.5-1160.2-.3m1161.4-.5c-419-1-837-1.4-1161-.1m-.7-.5c-.1-314-.3-629.1.5-828.2M9.9 838C8.4 512.5 8.7 187.3 9.6 10.3" stroke="#fff" fill="none"/></g><g stroke-opacity=".8" fill-opacity=".8"><path d="M762 488.7l222.1 55-12.3 23.6-210-55.7" stroke-width="0"/><path d="M765.4 486c77.3 21.4 152.6 38.9 218.6 61.4m-219.6-60.2c64.2 18.1 126.7 36.1 218 58m-3-1.8c-1.8 6.3-1 22-4.6 30.5m6.8-28.4c0 5.9-3.8 8.1-6.2 23m.2-.9c-79.8-14.7-158.6-36.9-217.8-51m215.5 53.8c-75.8-18.3-152.4-38-215-54.7m-.6-3.7a24.2 24.2 0 005.5-22.5m-3 24.6c1.5-9.3 4.7-21 6.5-27.6" stroke="#000" fill="none"/></g><g fill-rule="evenodd"><path d="M130 713.6l63.4 5-44 118.7-14.2.2-5.4-125.5" stroke-width="0" fill="#868e96"/><path d="M128.2 712c30.2 2.7 52.7 2.6 65.3 2m-63.3 3.7c18.2-1.9 36.6-1.4 64 .1m3.3 1.1c-13.5 29-21.2 59.4-46.1 115.6m43-117.3c-9.5 26.1-20 55.3-44.2 119.8m-1.5-2.3c-5.2-.3-12.4.6-17.4 2.9m19.2-2.8c-5.8.7-15.5 2-16.5.3m-3.5 1c2.8-25.5 3-62.2 4.7-122.4m-4.7 123.7c2-31.6 1-59 2.7-121m-1.2-.4s0 0 0 0m0 0s0 0 0 0" stroke="#000" fill="none"/></g><path d="M135.9 672.8l518 2-5 45-516.3-4" stroke-width="0" fill="#ced4da"/><path d="M133 675.6c185.9 4 370.6 3.4 518.7 1.7M131.4 676c174-3.4 347.5-3.1 520.2.2m-1.6 2c3.5 10.9 1.7 15.6-.8 34m4-37.7c-1 16.3-3.7 31.3-1 43m-1-2c-114.4-1-227.5-.3-517.8 1.1m518.8-.8c-155.8-1.9-309.5-2.5-520.6.6m3 3.6c.6-19.3.9-30-5.1-43.2m3.6 37.4c-.5-7.6.7-15-1.4-39.1" stroke="#000" fill="none"/><path d="M641.6 675l442.6-105.6 12.3 34.1-450.7 110.9" stroke-width="0" fill="#ced4da"/><path d="M640.5 675.8c87.7-21.7 178.6-41.4 446-112.6m-447 113.6c170.8-42.4 342.1-85.3 446.3-111.3m2.5 2.6c0 9.2.7 21 9.2 32m-10.3-34.9c1 13.2 6.2 25.2 6.8 37.4m.5 1.4c-117.9 29-234.8 58.3-445.2 110m446-109.6c-107 24.7-216.2 53-445.7 110.6m2.1-3.6c-3-10.6-10.6-17.8-15.7-36.9m13.6 40c-2.6-13.3-8-28.7-8.1-40" stroke="#000" fill="none"/><g fill-rule="evenodd"><path d="M659 658.8l-67.4 73 70.8-11.7 2.6-65.8" stroke-width="0" fill="#868e96"/><path d="M659.5 652c-17.4 27.1-35 41.6-65.2 76.8m66-73c-21.6 23-43 46.2-68.3 75.2m-1.6-.5c24.5-7.1 56.5-10.2 76-6m-77.2 8.5c19-2.1 34.2-7.5 76.1-12m0 2.6c4.1-18-.5-40.5-5.6-67.8m8.3 65.3c-3.2-16.3-3.2-36.5-6-64.8m0-1.3s0 0 0 0m0 0s0 0 0 0" stroke="#000" fill="none"/></g><path d="M13.4 838c385.7 6.1 774.4 6 1159.6-.6m-1158.6-1c291.6 5.4 584.1 6.4 1157.3-.5" stroke="#000" fill="none"/><g fill-rule="evenodd"><path d="M875 635.3l109.8 202.2 30 4-35-238.7L876.3 635" stroke-width="0" fill="#ced4da"/><path d="M875.4 634.6A5858.2 5858.2 0 00990.1 835M873.5 638.8c29.5 52.9 61.2 110.4 112 197.8m.8 1.8c8-.2 16.2-3.4 21.8 3.6m-20.5-2.2c8.1.6 15.8.5 22.3.3m2-1.4C999.6 763.6 992 691 977.5 605.5m35 233.5c-11-73.5-21.7-146.5-34.1-233.3m1.7 2.5c-42.5 6.8-86.5 22.1-107.2 26.5M976.2 605c-23.2 11-50.3 16.2-99.5 34.2M875 638s0 0 0 0m0 0s0 0 0 0" stroke="#000" fill="none"/></g><path d="M987.8 499.7c12.2.4 26.6 4 37.5 10.6a101.7 101.7 0 0127.5 29.2 116.4 116.4 0 0117.3 35.8c3 12.3 2.7 25.4 1.2 37.6a88 88 0 01-10.2 35.8c-6.7 10.7-19 21-29.5 28.6a109 109 0 01-33.5 16.5 96.3 96.3 0 01-39.3 4.6c-12.7-2-25.4-9-36.8-16.2a134.1 134.1 0 01-31.6-27 79 79 0 01-15.2-32c-2.9-12-4.4-26.7-2-39.7 2.3-12.9 9.3-26.9 16.2-38 6.8-11 15.2-20.4 25-28.2 9.8-7.8 15.5-17.7 33.6-18.7 18.2-.9 58.5 7.2 75.1 13.1 16.6 6 25.7 21.2 24.6 22.7m-151.6-4c7.4-10.1 23-15.6 34.6-21.6 11.4-6 22-13 34.4-14.2a86.7 86.7 0 0139.4 6.4c12.3 5 24.4 14.8 34.4 23.5 10 8.6 20 17.6 25.7 28.3a86.6 86.6 0 018.3 35.5c1 13.3 1.5 32-2.3 44.5a74.2 74.2 0 01-20.4 30.4c-9 9.4-22 20.1-34 25.7a94 94 0 01-38.2 7.6c-12.7.2-26-3.3-38-6.8-12-3.6-24-6.5-33.8-14.5-9.8-8.1-18.9-22-24.8-33.8a83.8 83.8 0 01-11-36.8c-.1-13.2 4.9-30.4 9.8-42.3 5-11.8 16.6-23.4 20.1-28.8 3.5-5.4-.4-4.1.7-3.6" stroke-width="0" fill="#ced4da"/><path d="M1048.4 527c9.4 8 14.8 21.9 19.1 33.8a105.3 105.3 0 01-1.6 77 105.2 105.2 0 01-23 31.8c-9.4 9.1-21 18-33.2 22.9-12.3 5-27.6 6.9-40.4 6.6a87 87 0 01-36.7-8.3 116.5 116.5 0 01-32.8-25.4c-9-10-17.5-22.3-21.8-34.4a101.5 101.5 0 01-3.8-38.5 103 103 0 0164.5-91 103 103 0 0139.3-4.2c13 .5 25.6-.3 38.6 7.1 13 7.4 31.6 28.5 39.4 37.4 7.7 9 8.4 15.4 7 16.4m-106-59.7a62 62 0 0135.7-1c12.5 2.7 28.3 8.9 38.8 16.7 10.5 7.8 17 19.6 24.4 30.3 7.3 10.7 17.1 21.3 19.5 34 2.3 12.7-2.1 29.6-5.4 42.2a102.3 102.3 0 01-14.1 33.1c-7.1 10.6-18 22.9-28.2 30.3a77.8 77.8 0 01-33.6 14.5 117 117 0 01-44.7-.6 96 96 0 01-35.2-20c-10-8.2-17.8-18.8-24.8-29-7-10-15-19.2-17-31.8-2.2-12.7 1.4-31 4.6-44 3.1-13.1 6.8-24.6 14.2-34.5 7.4-10 19.4-18.4 30-25.3 10.8-6.9 27.8-13.7 34.1-16.2 6.3-2.6 3-.8 3.7 1" stroke="#000" fill="none"/><path d="M925.2 539.1c7-8 17.2-13.3 27.7-15.8a92 92 0 0135.7 1.2c10.6 2.2 19.7 6 28 12.2a84 84 0 0122 24.8c5.6 9.7 11 22.3 11.3 33.4a71.7 71.7 0 01-29.8 56.6 81.4 81.4 0 01-28.7 16.6 83.6 83.6 0 01-36.2.8 61 61 0 01-27-15.3 94.3 94.3 0 01-23.3-28.6 73.9 73.9 0 01-3.8-33c.5-11 .8-22.5 6.7-32.7 5.8-10.2 21.4-23 28.4-28.4 7-5.6 12.5-6.2 13.6-4.7m-36.6 28.2c5.2-9 16.2-18.4 25.6-23.4 9.5-5 20.4-6 31.2-7s23.6-2.7 33.7 1.2a73.3 73.3 0 0127.3 22 78 78 0 0116 30.5 79.8 79.8 0 01-.1 36.1 73 73 0 01-17.2 27.4c-7 8.2-16 17.5-25.2 21.8a61.4 61.4 0 01-29.4 4.3c-10.9-.3-25.8-1-36-6.1-10.1-5-18.5-15-24.9-24.2a88.1 88.1 0 01-13.7-31c-2.2-10.4-2-23 .6-31.6 2.5-8.6 12-16.7 14.7-20.3 2.8-3.7 1.3-1.7 2-1.7" stroke-width="0"/><path d="M1036.8 556c6.7 8.3 8.7 21.7 10 32 1.2 10.2.7 19.7-2.5 29.6-3.2 10-9 22.6-16.7 30.2a76.5 76.5 0 01-30 15.9 79.6 79.6 0 01-33.3 4.5 72 72 0 01-30.1-13 87.6 87.6 0 01-22.4-23.8 77.4 77.4 0 01-13-30.7 63.7 63.7 0 015.6-32.2 81.7 81.7 0 0120.9-27.2A98.7 98.7 0 01957 523a56.1 56.1 0 0130.3-1c10.5 2.4 24 7 33 15s16.6 25.3 21 32.8c4.3 7.5 5.9 12 4.9 12.1m-115.7-43c7.5-7 17.3-12.1 28.2-14.3 11-2.1 27.2-1.3 37.7 1.3a54.6 54.6 0 0125.2 14.4c7.5 7 15.3 17.4 20 27.3a65 65 0 017.4 31.8c-1 10.5-7.4 21.8-13.4 31.3s-13.9 19-22.7 25.7a68.5 68.5 0 01-30.2 14.4A64.6 64.6 0 01951 664a105.2 105.2 0 01-29.8-19.3 77.4 77.4 0 01-19.6-27.8 63.7 63.7 0 01-2.6-33.2c2.1-10.6 10.3-22.2 15.7-30.5a93.3 93.3 0 0116.5-19c3.2-2.4 1.7 3.2 2.8 4.5" stroke="#000" fill="none"/><g stroke-opacity=".8" fill-opacity=".8"><path d="M970.5 530.3c9.3-1 21.7 5.5 30.7 10 9 4.7 17.3 9.6 23.5 17.6 6 7.9 12 19.8 13.2 30.1 1.3 10.3-1.6 22-5.5 31.9-4 9.8-10.6 20-18.2 26.9a67 67 0 01-27.4 14c-9.4 2.4-20 3.3-29.3.4a76.8 76.8 0 01-27-17.6c-7.4-7-13.7-15-17.2-24.5a73.7 73.7 0 01-3.8-32.7 67 67 0 0112.2-29.6c6-8 12.4-15.7 24.1-19.1 11.8-3.5 35.5-2.9 46.4-1.7 11 1.3 20 7.9 19.5 9m-17.7-9.2a67.6 67.6 0 0126.1 17.7 69 69 0 0115.4 26c3 9.5 5.2 20.3 2.6 30.7a77.9 77.9 0 01-18 31.8c-7.5 7.5-18.3 10-27.3 13.2-9 3.1-17.2 6.9-26.5 5.9s-20.6-6.1-29.3-11.9a65.7 65.7 0 01-22.6-22.7 77 77 0 01-5.9-33.3c.1-10.6 1.3-22 6.6-30.5a67.5 67.5 0 0125.3-20.5 94.3 94.3 0 0129.7-8c9.4-1.4 22.9-1 27.1-.2 4.2.8-1.5 4-1.7 5.1" stroke-width="0" fill="#ced4da"/><path d="M981.6 530.9c9.8 0 21 6.8 29.4 13a69 69 0 0120.8 24.4c4.5 9.5 7 22.4 6.3 32.5a64 64 0 01-10.4 28.2 75.8 75.8 0 01-21 23.4 56.6 56.6 0 01-27.7 8c-10.1.6-23.6.1-33.2-4a74.4 74.4 0 01-37.6-49.7c-2-9.8-2-20.7 1.4-30A73.2 73.2 0 01929 551c7.9-7.2 14.7-15.6 27.7-17.5 13-1.8 39 1.7 50.6 6.2a39 39 0 0119.2 21.1m-105 2.7c4.4-9 9.9-20.6 18.4-25.8 8.4-5.3 21.4-5.7 32.3-5.8 11-.2 24.1 0 33.3 4.7a56 56 0 0121.8 23c4.9 9 6.3 20.3 7.5 31 1.2 10.6 3.2 23.5-.4 32.8-3.5 9.4-13 17.2-21 23.2a70 70 0 01-27.7 12.8c-9.5 1.7-19-.2-29.1-2.9-10-2.7-24.3-6.9-31.5-13.3-7.1-6.4-9-15.7-11.5-25a85.3 85.3 0 01-3.4-30.5c1.2-9.4 9.4-21.6 10.8-25.7 1.3-4.2-3.4.2-2.6.8" stroke="#000" fill="none"/></g><g stroke-opacity=".8" fill-opacity=".8"><path d="M123 821.8l29.4.6 4.3 16.5-28.2-3.4" stroke-width="0"/><path d="M121.1 828.1c11.6.3 19.6-2.9 36.3-2.5m-31.1-.4c7.5 1.5 15.4-1.1 30.1 1.1m-.8-2.4c-.2 6.6-.5 13.8 2.1 15.1m-2.8-14.2c2.2 3.6.4 8 1.5 13m2.3.5a131.9 131.9 0 00-30.2-2.1m29.2 2.1c-8.3.4-15.6-.7-31.6-2.2m1.3 4.2c-3.8-6.6-1.9-12-3-15.6M126 838c0-3.7-.6-7.7-.8-13.2" stroke="#000" fill="none"/></g><g stroke-opacity=".8" fill-opacity=".8"><path d="M129 667.6l9-2.4 2.7 13.6-13.4 3.8" stroke-width="0"/><path d="M129.2 670.2c4.6-3 11-.7 11.8-2.2m-11.4 0c2.8.3 5.7 1.4 11.4-.2m1 1.7c.7 4.5-.8 9-3 13m3.6-14.7a32.7 32.7 0 00-1.3 13.2m.4 2.7c-4.9-1-10.3-1.7-12.4-3.4m12.4 1.5c-1.8-1.2-5.8-1.5-12.3.6m1.8-2c.6-4.8-2.2-11-2.6-9.8m.5 10c1.2-1.2.8-5.4-.4-13" stroke="#000" fill="none"/></g><g stroke-opacity=".8" fill-opacity=".8"><path d="M371.4 646.2l93-1.5-4.4 21.8-90.4 3.6" stroke-width="0"/><path d="M368.4 650.8c23.4-5.5 44.8-6 97.8-6.7m-97.5 4.7c32.7 0 60.7-2 93-1.5m.5-2.5c-1.8 9.4 4 15.7-.8 22.2m-.2-19.3c2.2 5.5 2 11.2 1.3 20.2m-.6 2.6c-36.9-.5-74.8 0-88.5-3.8m90-.3a427.2 427.2 0 01-92.4 2.3m1.2-3.5c.5-5.7-2.9-7.2-1.6-17m.1 19.5c.4-8.2.1-16-1-22.2" stroke="#000" fill="none"/></g><g stroke-opacity=".8" fill-opacity=".8"><path d="M720.4 629.8c1.6-1.5 6.4-2.5 8.9-2.1 2.5.4 4.8 2.8 6.2 4.5 1.4 1.7 2.4 3.6 2.1 5.6-.3 2-2.7 5.4-3.8 6.7-1 1.3-.9.8-2.7 1.3-1.9.4-6.5 2-8.5 1.2-2-.7-2.6-3.5-3.5-5.9-1-2.3-2.9-6-2-8 .8-2 5.8-3.4 7.1-4.4 1.4-1 1-1.7 1-1.5m6.2 3.8c2.4.3 4.8-2 6-1.2 1.2.7 1.5 3.7 1.1 5.8-.3 2.1-1.7 4.7-3.2 6.7-1.4 2-3 5.2-5.4 5.5-2.5.3-7.2-2.3-9.5-3.8s-4-3.2-4.3-5.1c-.2-2 2.1-5.1 3-6.4.9-1.4.4-.7 2.3-1.5 1.9-.9 8.2-2.5 9-3.4.7-1-3.9-2-4.7-2.1" stroke-width="0"/><path d="M724.2 629.8c2.3-.8 5.3-1 6.8-.4 1.6.7 1.8 3.1 2.6 4.5.8 1.3 2.5 1.7 2.4 3.7 0 2-1.4 6.7-2.9 8.3-1.5 1.7-4 1.8-6 1.5-2-.3-4.4-1.8-5.9-3.2-1.5-1.5-2.4-4-3-5.4-.8-1.4-3.2-1.6-1.2-3.4 2-1.8 10.3-6.5 13.2-7.6 2.8-1 4.2 1.2 3.8 1m-2.2 1.5c2 1.2 3.8 1.3 4.3 3s-.4 5.3-1.2 7.3c-.8 2-2 4.3-3.7 5-1.5.6-4-.9-5.9-.9-1.8 0-4 1.7-4.9.7-1-.9-.7-3.8-.8-6.2 0-2.5-1-6.6.4-8.4 1.5-1.8 6.2-2.3 8.4-2.3s4.5 2 5 2.1c.4 0-2.1-1.8-2.6-1.7" stroke="#000" fill="none"/></g><path d="M735.5 638c37.7-9.7 73.3-18.3 129-35m-132.3 32.6A1804 1804 0 01860 607.7" stroke="#000" fill="none" stroke-opacity=".8" fill-opacity=".8"/><g stroke-opacity=".8" fill-opacity=".8" fill-rule="evenodd"><path d="M382.3 675.4l63.4-8.1-6.4 22H406l-19.3-19.8" stroke-width="0"/><path d="M383 669.8c21.7.9 41.4 2 66.4.6m-64.5 1c18.3 1.2 39.8 1.6 65.2.3m2.5 1c-4.5-.1-14.2 8.5-16.5 20.8m14.3-25.1c-4.6 8-9.9 14-13.6 23m-1 .5c-10.2 0-18.2-4.1-29.7-.6m29.8-2.8c-4.3 3-12.4 2.2-30.7 2.7m3.2-1.6c-11-1-14.2-10-28.2-19.1m24 21.3c-5.4-5.7-10.8-12-18.5-17m-1.8-1.4s0 0 0 0m0 0s0 0 0 0" stroke="#000" fill="none"/></g><g stroke-opacity=".8" fill-opacity=".8" fill-rule="evenodd"><path d="M904.5 573.6L882 584.2l24.9 5.3 1.5-15" stroke-width="0"/><path d="M906.6 572.7c-9.6 7.7-13.5 12.4-23.1 10.8m26-8.5c-8.2 4.3-11.3 3.7-25.5 11m4.5 1.5c6.1 3 17.2-.6 22.5 4.4m-24.3-5.6c6.3 2.6 15.8 6.2 19.3 4.8m-1 4.8c5-5.1 5.8-11.7 4-21.2m-1 19.5c1.8-6.6-.5-12.4.8-17.2m-.6-1s0 0 0 0m0 0s0 0 0 0" stroke="#000" fill="none"/></g><g stroke-opacity=".8" fill-opacity=".8"><path d="M753.8 437.8l7.2.2 2.6 57-10 1.4" stroke-width="0"/><path d="M752.8 439c2.3-.9 3.6-.4 9-.2m-8.7-.5c3.6 0 6.2.5 9.3.2m1 .9c.3 18 .7 36.2.6 54.2m-2.3-55.8c1.3 22.1-.4 45.6 0 57m1.7 1c-2.5 0-5.4.3-9.3-.8m8.2.4c-1.6-.1-3.5.5-9 .3m-1.7.7c1.8-18.9 1.3-40 .8-58.3m.9 57.8c1-21.8 1.2-42 .4-56.4" stroke="#000" fill="none"/></g><g stroke-opacity=".8" fill-opacity=".8"><path d="M756.5 455.3h16.8l-.9 32.8-15.6-.2" stroke-width="0"/><path d="M757.5 455.1c2.5.7 6 1 15 1.6m-13.9-1.4c3.3 1 6.7.5 13.8.4m1 .5c.6 9 .5 16.2.7 30m-1-31.3a151.1 151.1 0 00-1.4 31.4m1.4 1.5c-4.8.4-7.4-1.3-16.5 0m15.7-1c-5.5 1-11.1.7-14 1m0 .3c-.1-11.4-1.1-19.3.9-33.7m-.7 32c.2-10.4-.2-19.5-.3-31" stroke="#000" fill="none"/></g><g fill-rule="evenodd"><path d="M860.4 507.3l1 113.6.3 15.2 2 1.9 8.1-5.7-.8-5 2.8-34.3 3.6-25.1 4.3-6.7 8.4-19 9.2-7.3 6.1-6.6-2.3-4.5-6.6-3.3-34.4-13" stroke-width="0" fill="#ced4da"/><path d="M859.8 509.8c-.2 20.2-1 99.4 1 119.5 1.9 20 9 3.5 10.8.8 1.8-2.7-.4-11.1-.2-17a234.8 234.8 0 014.2-37.9 113.7 113.7 0 0113.4-33c3.7-5.8 18-12 13.4-17.5-4.6-5.4-34-12.5-41-15.1m.2-.3c.1 20.4 0 101.5 1.4 121.3 1.5 19.8 6.3 0 7.6-2.6 1.3-2.7-.2-8.2.5-13.6s2.7-12.3 3.7-18.9c1-6.6 1-14.7 2-20.8 1-6.1 1.8-10.9 4.2-15.8 2.4-5 6.3-8 10.1-14 3.8-5.8 18-15.7 12.7-21.6-5.4-5.9-37.7-11.6-44.9-13.8" stroke="#000" fill="none"/></g><path d="M853.7 531.5l7.8-2-1.8 90.3-7.8-2.8" stroke-width="0"/><path d="M853.2 531.5c2.6 0 6.3.4 8 .4m-8-1c2.6.7 5.3.4 8.4.3m-.8.5c-.6 18 3 37.6-1.1 87.1m2.5-87c0 29-1.5 58.1-.3 87m-.1-.4c-2.6-.7-5.4.5-8-.7m7.8.4c-2.6-.2-5.1.1-8.2.3m2.1-.4c-2.9-28.6-2.7-60-1.1-86.2m-1.3 86c.7-28.7 0-56.6 1-85.9M906.5 597.6c23.2-.2 114-.5 137-.5m-139.8-1c22.8.2 113.8-2.7 136.8-3.1" stroke="#000" fill="none"/><path d="M930.2 544.2c15.6 16.9 78.5 84.4 93.6 102m-96.6-103.6c15.3 17 80.6 89 95.8 106" stroke="#000" fill="none"/><path d="M1000.4 534.5c-9.6 20.9-46.6 105.3-55.9 126.1m59.6-121.3c-10 20.3-52 98.2-62.2 117.5" stroke="#000" fill="none"/><path d="M980.5 587.2c1.6 1.5 4.3 4.7 4.6 7.1.2 2.5-2 6.1-3.2 7.7-1.2 1.6-2 1.8-4.1 2a22 22 0 01-8.6-.7 9.7 9.7 0 01-5.3-5c-1-2.2-2-6.8-1.1-9 .9-2.1 4-2.7 6.4-3.8 2.5-1.2 5.5-3.6 8.1-2.9 2.7.8 6.3 5 7.7 7.2 1.4 2.1 1.3 5.4.8 5.7m-19.7-9.2c1.5-1.6 3.9-3.6 6.7-3.6 2.7 0 7.6 1.7 10 3.6 2.5 1.9 4.6 5 4.5 7.8 0 2.7-2.7 6.5-4.7 8.7-2 2.2-5.3 4.6-7 4.6-1.8 0-1.2-3.4-3.3-4.5-2.1-1.1-7.9-.5-9.3-2.2-1.5-1.6.3-5 .6-7.8.3-2.7.5-7.7 1.2-8.8.6-1 2 2 2.9 2.5" stroke-width="0"/><path d="M969.6 582.9c2-1.5 5-1.7 7.6-.5a23 23 0 018 8.1c1 2.4-1.5 4.2-2 6-.5 2 .8 3.8-1 5.4-1.8 1.6-7.2 4-9.7 4.5-2.5.4-3.6 0-5.2-1.9a36.5 36.5 0 01-3.9-9.6c-.6-2.3-1.3-2 .2-4.3 1.4-2.2 6.8-7.6 8.5-8.9 1.7-1.3 1.8.5 1.8 1.2m6.5.4c2 1.1 5.2 7.9 5.4 10.1.2 2.2-3 1.7-4.2 3.2-1.3 1.4-1.4 4.7-3 5.7-1.7 1-5 .5-7.1 0-2.1-.4-4.7-1.7-5.6-2.7-1-1.1 0-2-.3-3.7-.3-1.9-3-4.8-1.6-7.2a22 22 0 0110.4-7c2.9-.4 5.8 4 6.9 4.7 1 .6-.2-.6-.4-.7" stroke="#000" fill="none"/><g stroke-opacity=".8" fill-opacity=".8"><path d="M983.7 827.5l34.2-2.5-3.9 11.8-29 4.1" stroke-width="0"/><path d="M980.9 823.9c14.7-1.5 26.9-2.4 32.5 2.1m-30.5.2c8.4 0 20.2-2.7 30.6-.5m-.3-1c2 5.1 1.3 9.4-.6 13.8m1.7-14.6c.2 7 .6 10 .8 13.5m-4.5-2.6l-23.4 3.6m26.4-.7c-10 .6-17.7 1.1-29.6.6m-1.4 1c-1.6-6.1 1.4-9.3 2.8-13.4m-2.8 11.8c1.7-3.4.4-6.8.6-11.8" stroke="#000" fill="none"/></g><path d="M1014.7 812.5a12 12 0 017.3-1.8c2.1.1 4 1.3 5.2 2.7a8.8 8.8 0 011.6 6c-.2 2.5-1.2 6.6-2.7 8.6-1.4 2-4.2 2.4-6 3.1-2 .7-3.4 2-5.4 1.3a15 15 0 01-6.4-6.2c-1-2.2-.4-5 1-7.4 1.5-2.5 5-6.3 7.7-7.3 2.6-1 7.7 1.6 8.2 1.4m-.2-2.2c2 1 1 3.8 1.7 5.9.7 2 2.5 4.8 2.2 6.8-.4 2-2.7 3-4.2 5-1.5 1.9-2.1 6.2-4.7 6.4-2.6.2-8.8-3.3-10.7-5.3-2-2-1.4-4.8-.8-6.8.5-2 2.7-3.3 4.2-5 1.5-1.7 3.5-4 5-5 1.3-1 2.5-.6 3.3-1.3.8-.7 1-3.4 1.6-2.9" stroke-width="0"/><path d="M1019.6 811.7c1.9 0 5.2-.6 7 .7 1.7 1.3 2.9 4.5 3.6 7 .7 2.4 1.5 5.4.6 7.8-1 2.3-3.7 5.6-6.3 6.3-2.5.7-6.3-1-8.8-2-2.5-1-5.4-2.1-6.3-4-.9-2 .6-4.8.9-7.4.3-2.6-1.6-6.8 1-8.4 2.6-1.6 12-1.6 14.5-1.1 2.5.4 1 3.7.6 3.9m-5.1-6.4c2.2.5 3.3 5.3 4.6 7 1.2 1.7 2.2 1.5 2.9 3.2.7 1.8 2.8 5.4 1.5 7.3-1.3 2-7.3 3.8-9.2 4.5-2 .6-.7.2-2.2-.5-1.5-.8-4.8-3-6.9-4.1-2-1.1-5.3-.9-5.4-2.7 0-1.8 2.5-6.2 5-8.2 2.4-2.1 8.4-3.9 9.8-4.2 1.5-.4-1 1.7-1.2 1.8" stroke="#000" fill="none"/><g stroke-opacity=".8" fill-opacity=".8"><path d="M1079.3 554.2l16 4.4 11 47-15.4.5" stroke-width="0"/><path d="M1077.6 558.7c3.6-2.4 7.6-5 11.1-3.4m-11 2.3c3.3 0 6.5-2.1 15.4-1.1m-.3-3.9c2.6 23 6.6 36.3 9.3 48m-9.4-43.8c-.3 12.8 4.4 26.2 11.2 47m-1.8-2.3c-8 3.6-7.9 2.5-16.3 6m15.7-4c-2.1.8-8.4 1.2-12.8 3.5m-4.6-2c-.8-18.7-9-38-5-48m7 50.7a231 231 0 00-11.1-48" stroke="#000" fill="none"/></g><g stroke-opacity=".4" fill-opacity=".4" fill-rule="evenodd"><path d="M717.5 664.2L683.2 677l-6.8 3-1.2 6.7 4.3 7.1 11.4 2 31.9-9.7-.6-1.3-7.4-3.3-3-4 1-3.4 1.8-9.6" stroke-width="0" fill="#82c91e"/><path d="M715 665.1c-5.4 1.4-23.5 6.7-30.2 10-6.7 3.3-8.8 6.8-10.1 9.8-1.3 3-.3 6.3 2.3 8.2 2.5 1.8 5.6 3.9 13 3 7.3-.7 27-5.4 31-7.9 3.8-2.5-6.1-4.6-7.8-7-1.6-2.4-2.6-4.8-2-7.3.5-2.4 4.4-6.4 5.2-7.5m.8.2c-5.4 1.5-26.5 3.6-33.2 6.8-6.6 3.2-5.4 9.3-6.7 12.3-1.2 3-3 3.6-1 5.5 1.9 2 5.1 6.6 12.7 6 7.5-.7 28.3-7.5 32.5-9.9 4.3-2.3-5-2-6.9-4.4-1.9-2.3-4.5-6.7-4.6-9.5 0-2.9 3.6-6.7 4.6-7.7" stroke="#000" fill="none"/></g><path d="M703.4 670.1c1 4 2.8 18.3 3.4 22m-4.2-22.7c1.3 3.7 5.3 17.1 6.4 20.8" stroke="#495057" fill="none"/><path d="M688.3 676.8c1.7-.9 5.4-2.5 7.4-2s3.8 3.2 4.7 5c.8 1.7.7 3.8.4 5.5-.2 1.7-1 3.3-2 4.6-1 1.3-2.6 3-4.3 3.3-1.8.2-4.5-.5-6.2-1.8a16.8 16.8 0 01-4.5-6.1c-.6-1.7-.4-2.3.8-4a39 39 0 016.4-6.5c1.3-.8 1.3 1.4 1.3 1.7m-.5-.2c1.7-.1 4 0 5.4.7a8 8 0 013 4.3c.8 1.8 1.6 5 1.2 6.8-.5 2-2.2 4-3.8 4.7-1.7.7-4.1 0-6.3-.5-2.1-.4-5.6-.5-6.7-2.2-1-1.7-.3-6 .3-8.2a7.9 7.9 0 013.4-4.6c1.5-1 4.9-1 5.6-1 .6 0-1.6.7-1.7.5" stroke-width="0" fill="#ced4da"/><path d="M687.7 676c1.3-1.1 4.3-.7 6-.4 1.7.3 3.2 1 4.4 2.3 1 1.3 2 3.6 2.4 5.2.3 1.7.4 3.3-.3 4.9-.7 1.6-1.9 4.1-3.8 4.8-2 .6-6-.2-7.8-1.2-1.8-.9-2-3-2.7-4.5-.8-1.6-1.8-3-1.6-5 .2-1.8 2.1-5.4 2.8-6.2.7-.8 1.2 1 1.5 1.3m1.5-1.2c1.5-1 3-1.8 4.8-1.4 1.8.3 5 2 5.9 3.4.8 1.4-.3 2.9-.7 5-.3 2.2-.5 6.3-1.4 8-.9 1.5-2 1.5-4 1.7-1.9.2-5.6.6-7.4-.5-1.7-1.1-2.4-4-3-6-.7-2.1-1.8-4.6-1-6 .8-1.5 5-2.1 5.8-2.7.8-.7-1-1-1-1.1" stroke="#495057" fill="none"/><text y="24" font-family="Virgil, Segoe UI Emoji" font-size="20.9" fill="#fff" style="white-space:pre" transform="rotate(-13.7 3098.4 -2646)" stroke-opacity=".7" fill-opacity=".7">concept 2</text><g stroke-opacity=".8" fill-opacity=".8"><path d="M668.4 637.8l3.9 3-75.8 87.9-5.4-4.4" stroke-width="0"/><path d="M668 637c1 1 2.6 2.8 3.6 3.6m-3.3-3.5c.8.7 1.7 2 3.3 3.4m.6.2c-20.6 24-43.4 50-77.1 87.5m76.4-88.5c-17.6 20.8-34.3 41.6-75.7 87.5m.3 1.4c-1.7-1.2-2.7-2.6-3.6-3.3m3.4 3c-.8-1-2.1-2-3.5-3.4m-1.8.4c31.1-35.6 60-68.7 78.4-87.9m-77.1 88c21-24 43-49.8 76.4-89.1" stroke="#000" fill="none"/></g><path d="M982 541.1c9 .3 19.2 5.6 26.4 11.4a60 60 0 0121.1 51.2c-1.4 9.2-6.6 19.9-12.5 27.2a55.3 55.3 0 01-51.3 20.2c-9.3-1.6-20.3-7-27.6-13-7.2-6-13-14.1-16-22.7-3.2-8.7-4.1-19.8-2.5-29a59.7 59.7 0 0112-26.1 48 48 0 0123.2-17.7c10-2.8 29.2-.2 36.8.6 7.6.8 9.2 3.4 8.8 4.2m-18-8c8.6.4 17.7 7 25 13.3a69.3 69.3 0 0119.4 23.9 54.2 54.2 0 011.9 28.7 52.9 52.9 0 01-11.7 24.6c-6 7-15.7 14.2-24.4 17.4a55 55 0 01-28.3 2.3 60.2 60.2 0 01-24.5-12.4 56.9 56.9 0 01-18.8-21.3c-3.6-8.8-4.6-21.9-3-31.5a52.4 52.4 0 0112.7-26.3 61 61 0 0125.1-13.6c8.5-2.7 21.5-2.1 26-2.6 4.3-.4.6-.6.4 0" stroke="#fff" fill="none" stroke-opacity=".6" fill-opacity=".6"/><path d="M995.5 552.8a46.3 46.3 0 0119.5 17.7 48 48 0 018.1 25c0 8.6-4 19.1-8.7 26.3a47.6 47.6 0 01-46 21c-8.6-1.5-19-6.7-25.4-12.4a45.5 45.5 0 01-13.6-21.8c-2.2-8.1-2-18.7.4-26.9s8-16.5 14.3-22.2a40.7 40.7 0 0123.8-12.1c9.6-.6 27.2 6.3 33.6 8.3 6.4 2 5.3 3.5 4.8 4m-24-13c7.9.6 16.2 7 22.8 13a60 60 0 0116.6 23.2 46.8 46.8 0 01-15.6 47.3 57 57 0 01-25.2 11.7 46.9 46.9 0 01-26-4.2 53.4 53.4 0 01-18.3-17.8 47 47 0 01-9.9-23.1 56.7 56.7 0 016.9-28.4 43.9 43.9 0 0120.3-17.7c8-3.2 22.8-1.2 27.4-1.3 4.6 0 .1.3.2 1" stroke="#fff" fill="none" stroke-opacity=".6" fill-opacity=".6"/><path d="M982.3 556.5c7.5.8 17.1 5.5 22.6 11.2 5.4 5.6 8.8 15 9.9 22.9 1 7.9 0 17.2-3.5 24.2a41 41 0 01-17 17.9 48.4 48.4 0 01-25.5 3.3c-8-1-16.1-4.5-21.8-9.7a44.7 44.7 0 01-12-21.7 44.4 44.4 0 012.3-24.5c3-7.4 8.7-15.8 15.6-19.8 7-4.1 18.9-4.5 25.6-4.7 6.8-.2 11.2 1.7 15 3.4 3.7 1.8 8 6 7.6 6.9m-24.2-10c7.6.5 18.8 4.9 25 10 6.2 5 10.2 13.4 12 20.6a37.9 37.9 0 01-1.1 22.8 49 49 0 01-16.1 20 41.3 41.3 0 01-23.1 6.5 43.6 43.6 0 01-21.6-8.1c-6.3-4.3-13.8-10-16.7-17.5-3-7.5-3.1-19.5-.9-27.4 2.2-8 7.8-16.1 14.2-20.5 6.5-4.4 19.5-4.8 24.4-5.8 4.9-1 4 0 4.9 0 .9 0 .7-.7.6-.2" stroke="#fff" fill="none" stroke-opacity=".6" fill-opacity=".6"/><path d="M985 564c6.4 1.5 13.1 7.9 17 13.7 4 5.8 6.8 14.2 6.4 21.2a34 34 0 01-8.7 20.5c-5 5-14 8.1-21 9-7 .8-15.2-.4-21-4a36.5 36.5 0 01-13.6-17.6 35.3 35.3 0 0113.8-40.2c6.2-3.5 17.9-2.8 23.4-2.9 5.5 0 7.5 1.4 9.8 2.6 2.3 1.1 4.6 3.6 4.3 4.3m-18.5-7c6.7.6 17.1 4.9 22.3 9.7a32.8 32.8 0 013.8 39.4 41.2 41.2 0 01-18.3 14.3 33.3 33.3 0 01-21.6-1c-6-2.6-11.5-9-15-14.6-3.5-5.7-6.9-12.4-6.2-19.3.6-7 5-17 10-22.1 5.2-5.1 16.6-7.5 20.8-8.4 4.3-1 4 2.1 4.8 2.7.9.6.2.3.3.6" stroke="#fff" fill="none" stroke-opacity=".6" fill-opacity=".6"/><path d="M981.5 571c5 1.1 11.4 5.2 14.7 9.5a26.8 26.8 0 015 16.8 27 27 0 01-8.4 14.6 28.5 28.5 0 01-14.8 8.3c-5.2.6-12-1.4-16.5-4.5-4.5-3-8.7-8.4-10.3-13.8a28.9 28.9 0 01.6-18.3c2.4-5 8-9.1 13.6-11.2 5.6-2 16.6-1.3 20.3-1.2 3.7.2 2.2 1.6 2 2.2m-11.2-3c5.2.5 13.7 3.9 17.7 7.7 3.9 3.8 5.7 10.3 6 15.3.3 5-1 10.4-4.2 14.6-3.2 4.2-9.6 9-14.8 10.5-5.2 1.4-12 .5-16.5-1.8-4.4-2.4-8-7.8-10.3-12.2-2.4-4.5-4.8-9.3-4-14.5.9-5.3 4.8-13.3 9-16.9 4.4-3.6 13.8-4.5 16.7-4.7 3-.3.9 2.3 1 3.1" stroke="#fff" fill="none" stroke-opacity=".6" fill-opacity=".6"/><path d="M973.2 576.6c3.8-.6 9.4 1.3 12.5 3.3 3 2.1 5.1 5.4 6.1 9.2 1 3.7 1.2 9.7-.2 13.4-1.5 3.7-5.1 7.1-8.7 8.8a19.8 19.8 0 01-12.8 1.4c-4-1.1-8.9-5-11-8.2a15.5 15.5 0 01-2-11c.6-3.9 1.8-9.2 5.2-12.1a36.7 36.7 0 0114.9-5.2c3.3-.4 4.6 2.2 4.7 2.6m-14.3.8c3.3-1.8 7.4-2.2 11-1.7 3.5.5 8.2 2 10.5 4.8 2.2 2.8 3 8.5 2.8 12.3-.3 4-2 8.2-4.3 11a15.8 15.8 0 01-9.1 5.4c-4 .9-10.6 2-14.4-.2-3.7-2.2-6.9-8.4-8.1-12.6a18 18 0 01.7-12.6c1.7-3.1 7.9-5.5 9.6-6.5 1.6-1 .1.2.4.3" stroke="#fff" fill="none" stroke-opacity=".6" fill-opacity=".6"/><g stroke-opacity=".8" fill-opacity=".8" fill-rule="evenodd"><path d="M636.2 679.7l19-21-10-13.3-8.8 32.4" stroke-width="0"/><path d="M635.6 678.2c7-3.3 10-7.9 21.5-21.8m-20.9 22.3c6.5-6 11.7-12.5 20.6-21.5m1.3-.8c-4.5-1.9-7-2-13-7.9m12 9.2c-3.6-3.1-8.1-7.5-11.9-10.7m.8 0c-5.8 11.9-5.5 23-9 30.5m9-29.4c-3 10.3-6.6 22.2-10.4 30.7m.4.4s0 0 0 0m0 0s0 0 0 0" stroke="#000" fill="none"/></g><g stroke-opacity=".8" fill-opacity=".8" fill-rule="evenodd"><path d="M609.6 704.8l-25 13 13.8 4.6 12.5-19.7" stroke-width="0"/><path d="M608.3 702.3c-8.1 5.4-17.9 12.5-23.3 14.7m24.5-13.3c-10.2 5-20 11-25.4 13.3m-1.2.9c5.2 2.9 8.9 3 14.6 5.5m-13.3-5.3c5.7 2.2 11.4 5 14.3 5.5m1 1.1c-.4-4.5 3.3-11.4 9.8-19.7m-10.8 20.1c2.6-5.8 6.2-11.1 10.8-21.7m.2-.3s0 0 0 0m0 0s0 0 0 0" stroke="#000" fill="none"/></g><g stroke-opacity=".8" fill-opacity=".8" fill-rule="evenodd"><path d="M733.1 654l20.8-6.6-4-22-15.4 27.4" stroke-width="0"/><path d="M734.7 653.6c5-1 9.3-2 20.3-3.4m-22.2 2.5c6.3-1.5 10.8-1.8 21.6-4.6m-1.3.6c.9-7.8-3-16.5-3-23m5 22.3c-2-6.5-4.9-14.6-7-22.5m.8 0c-6.1 9.3-13.2 21.9-15.6 25.1m15.9-25c-4.4 7.6-9.3 17-16.6 26.4m1 .3s0 0 0 0m0 0s0 0 0 0" stroke="#000" fill="none"/></g><path d="M1173.4 837.4c5-236 4-469.8.7-737.5m-2.1 736.3c-.6-194.5-1.3-389.7.8-736.9" stroke="#495057" fill="none"/><g stroke-opacity=".8" fill-opacity=".8"><path d="M1109.9 243.3l61.8-1-1.6 52-61-2" stroke-width="0"/><path d="M1109 241.5c25.3 8 46.2 2 66 7.1m-65-2c16.2-.2 33-1.4 62-.4m3.7-2.9c.8 16.3-2 32-5.4 50m4.8-48c0 16.6 1.3 33.4-3 46.6m3.2-2a450 450 0 01-69.2-1.4m66.6 3.7c-10.8-.3-28 .8-61.6 1.4m-.5-3.5c3.2-7.4.7-18-.4-44.6m-2 48.7c2.9-16.8 3-30.9 2.3-47.3" stroke="#000" fill="none"/></g><path d="M1133 241l20.5-.3-5.6 55.2-15.5-.2" stroke-width="0"/><path d="M1130.8 240c5.6-1.5 9.5 2.4 18-2.4m-16.5 1.6c5 0 11.4.8 18.4 3.2m2.6 1c-6.1 11-6.9 28.6-4.8 56.1m2.5-58.6c.2 17.6 1.8 34.3 1.7 56.1m-.8 1.4c-5.5-4.4-11.9-5.2-21.3-.9m19.2-2.3c-2.7 2.1-8.2 1.7-14.8 0m.3-1c-2.6-11.1-3.8-23.1-1-55.2m.7 57.3c-.2-15.8-.7-30.7-1.7-57.3" stroke="#000" fill="none"/><path d="M1097.3 129.9l12.2 7.1 14.6 294.2-11 2.8" stroke-width="0"/><path d="M1092.7 133.4c4.1.3 10.4.7 16.5-.2m-14.5.7c3 0 6.5-.3 14 .3m-2.5.4c7.3 85.8 12.3 179 16.4 296.6m-14.3-297.1c2.1 68.4 7.3 141 15.7 297.8m3.7-2c-7.2.5-10.7 2.5-18.3 1.2m16.6 1.6a24.5 24.5 0 01-14.7-.2m-2.5 3.1c-3.4-90.6-7.3-171.6-17.2-300m20 297.7c-4.2-71.2-9.5-141.2-17.2-300.4" stroke="#000" fill="none"/><path d="M133 677c-2.2 2.7-1.7 4.9-5.7 8.5m4.2-8c-1.6 3-3 7-4 9.4m-1.2-2.3c2.6 5.8-1.5 18.7.4 27.4m1.9-26c-1.6 6.5 0 11-.6 25.6m1.3 3.3c-2 36 0 68.7-1.5 107.9m-.9-110.2c1 30.4.2 61 2.6 104.8M752.1 437.5c-.4 5.8-.5 9.1-4.2 16.5m4.6-15.4a85.1 85.1 0 00-2.7 16.5m-.1 1.2c-1.9 10.5-.8 20.9-1.2 25.5m1.3-28c-1 11-1.1 22 1.2 29.8m-.2.4c0 2.1 2.5 8.1 2.7 10m-3-11c.9 3.7 2.3 6.8 3 11.5" stroke="#000" fill="none" stroke-opacity=".8" fill-opacity=".8"/><g stroke-opacity=".8" fill-opacity=".8" fill-rule="evenodd"><path d="M1099 134.7l-14.6 56.1 13.2 210.7 19.7 29-20.6-295.3" stroke-width="0" fill="#868e96"/><path d="M1095.7 136c1.1 8.8-1.3 22.4-7.8 53m8.7-54.7c-3.1 17.4-5.5 34.7-10.4 55.5m-1.7 1.3c2.9 48 8 93.9 13.5 209m-12-209.6c2.6 79.5 7.6 159.5 10.4 211.3m.6-2c4 9.2 11.4 21.2 18.4 31.7m-17.8-29.6c4.4 6.1 7.3 11.8 18.1 30.7m0-.3c-6.3-99-12.6-196.8-18.6-298.1m18 298.4c-1.7-61-5.9-122.4-17.3-298m-.4 0s0 0 0 0m0 0s0 0 0 0" stroke="#000" fill="none"/></g><path d="M138.3 461.2l180.4 1.2 3 100.2h-186" stroke-width="0" fill="#fff"/><path d="M135.6 461.7c63.7-2.3 127.3-2.7 186-2.5m-184.9 1.2c71.2-1.3 140-.2 184.4.8m.4-2c-1.5 31.8.3 57.6-1.1 104m-.2-101.3c0 21.9 1.2 44.4-.5 99.8m-.3-.2c-55 .3-109.7-1.6-182.4-.8m184.2 2c-43.4-2-85.2-1.3-185.6-.1m.4 1c.3-38.8 1-78.3.6-102.4m.1 102.3c-.8-34.7-.8-70 .1-103" stroke="#000" fill="none"/><path d="M136 482l179-1.2M136 482l179-1.2M138.1 493.6l179-1.2m-179 1.2l179-1.2M136.4 505l179-1.2m-179 1.2l179-1.2M140 516l179-1.2M140 516l179-1.2M138.1 530l179-1.2m-179 1.2l179-1.2M138.7 542.7l179-1.2m-179 1.2l179-1.2M139.3 553.7l179-1.2m-179 1.2l179-1.2" stroke="#495057" fill="none" stroke-opacity=".3" fill-opacity=".3"/><path d="M148.7 521.7l5-2-1.4 37.5-4.3.7" stroke-width="0" fill="#868e96"/><path d="M148.5 520c.7.3 2.7 0 5.5.4m-5.2-.2c1-.3 2.2-.4 4.7-.3m-1-1c2.5 14.4.1 26.8-.2 38.5m1.7-37.9c-1.1 12.7.4 25.6-.5 36.8m.3.5c-1.2-.1-1.9.1-5.5.4m5.7-.1c-1.4-.4-2.8 0-5.3-.2m1 .8c-.1-11.6-.1-21-1.6-37.4m.6 36.2c-1.2-8.8.6-16.9.8-36.9" stroke="#000" fill="none"/><path d="M153.6 530.3l4 .5 1 27.1-5-2.1" stroke-width="0" fill="#868e96"/><path d="M153.3 530.9c3-.2 4.8 0 5.4-.8m-4.8.4c1.6-.2 3 0 5.3.3m.7.2a43.6 43.6 0 00.1 26m-1.8-27.1c1.5 10 .7 19.8 0 27.7m.8-1c-1.2.3-3.5.6-5.5-.1m5.7.2c-2.1.5-3.7.2-5.5.1m.9-1.6c-.1-9.8-1.4-17-2.3-24.4m.5 25.2a81.1 81.1 0 001.1-24.6" stroke="#000" fill="none"/><path d="M157.6 530.8l6.2.7.4 24.3-3.1 1.4" stroke-width="0" fill="#868e96"/><path d="M159.5 530.7c1.3.2 2.4-.6 5 .4m-5.4-.7c1.8 0 4.2.4 5.3 0m-1.6 0c.1 7 2.6 12.9 3 27M165 530c-1 6.7-1.7 14.7-.4 27m.2 0c-2 .1-3.6-.5-5.3.3m4.9-.2a12 12 0 00-5 0m.6-2a51.8 51.8 0 010-24.2m0 25.3c.4-6.3-.5-11.8-.9-25.8" stroke="#000" fill="none"/><path d="M163.8 515.6l5.7-2 2.1 43.6-5.3.8" stroke-width="0" fill="#868e96"/><path d="M164.5 515c1.4-.7 3.8.2 5.6 0m-6-.4c1.8.4 3 0 5.4.2m-1.4.3c2.2 13.2 2.7 27.2.7 40m.6-41c-.4 11 .7 20.4 0 42.7m0 .4c-1.4-.7-2 0-4.8 0m5.2-.3c-1.3 0-2.1.3-5.3.2m-.6.2c-1.2-9 1-17.9-.4-44.6m1.8 43.9c-1.2-7.5-1.4-17.2-1.7-41.8" stroke="#000" fill="none"/><g><path d="M169.5 524l7.4 1.5V558l-7-.2" stroke-width="0" fill="#868e96"/><path d="M169.3 524.8c2.1 1 4.2.7 5.4.5m-5 .2c1.2-.4 2.2-.1 5.3-.4m.9.1c.3 9.8-2 17-2.3 33m.4-32.3c1 7.2.6 14.8.4 31.7m.2-1.1c-.9.8-2.5.6-5.5.2m5.7.1c-1.6.3-3.6.3-5.4.3m-1.3 0c2.4-6.2.7-15-.3-30.2m2 31c-.5-8.3-1.2-15.2-.4-32.2" stroke="#000" fill="none"/></g><g><path d="M177 509.6l5.1.8-1.7 47.4-6.5-1.6" stroke-width="0" fill="#868e96"/><path d="M175 510c2.4-.3 3.7-.5 4.8-1m-4.8.2c1.2.3 2.8 0 5.2 0m1.5.6c-2.1 13-2.6 31.3-2.6 46.6m1.3-47c-.8 11-1.2 23-.3 47.2m.4.7c-1.9-.2-4.4-.6-5.2 0m5-.2c-1.4 0-3 0-5.6-.2m1 .4c-1.3-17.4-2.3-28.8-2.2-46m1.4 45.5c-.7-12.2-.3-24.4 0-48" stroke="#000" fill="none"/></g><g><path d="M182.1 521l3.6-.2-1.2 35.4-3.8 2.6" stroke-width="0" fill="#868e96"/><path d="M180.7 520.2c.5-.2 1.4-.8 4.6 0m-5.2-.1c2.3-.3 4.3-.3 5.5 0m-1-2c-.1 14 0 23.3-.4 37m1-35.2a593 593 0 00.7 36.5m-.2.7c-1.8-.3-2 .2-5.7-.4m5.6.4l-5.3-.3m-1-1.8c-1.1-7.8-.7-19 .2-34.8m0 36.9c.5-13.9.7-29 1.7-37" stroke="#000" fill="none"/></g><g><path d="M185.7 520.8l4-1.6 1.6 39.6-5.8-1" stroke-width="0" fill="#868e96"/><path d="M185.3 520c2-.5 4.2.2 6 0m-5.7-.2c1.1 0 2.4.3 5.2.4m-1.3 1c0 10-.2 20.5 2.5 36.1m-1.8-36.6c.4 10.2.9 21.3-.3 36.8m.4-.8c-1 .6-3.5 0-5.1.6m5.4-.2c-2-.2-3.5-.3-5 0m-2 1.5c.6-11.5 1.3-25 3.6-38.8m-2 37.6c.5-11.6 1.6-21.5 1.2-37" stroke="#000" fill="none"/></g><g><path d="M189.8 519.2l6.8 2.7-.5 35.9-4.5-.4" stroke-width="0" fill="#868e96"/><path d="M190.4 519.5c2 .7 4.5.5 5.3.2m-5 0c2 .5 3.7.5 5.4.2m-1.1-.5c-.5 6.5 2 16.3 1.2 37.1m-.2-37c.2 10.5-1 22.3.7 37.8m-.3 0c-2.3-.6-4.1 0-5.3-.1m4.7-.3c-1.5-.1-3.3.2-5 0m-1.5 2c1.1-9.1 3.5-17 1.2-40.4m.2 37.9c1.2-10.8 1.1-22 .2-36" stroke="#000" fill="none"/></g><g><path d="M196.6 537.7l4.8-1 .8 20.7-7.5-2.4" stroke-width="0" fill="#868e96"/><path d="M195.9 536c2.3 0 3-.4 5.7 0m-5.5 0l5-.3m-1-1.7c2.3 9.7 1.2 16.5 1 21.9m.6-20.7c-1.3 9 .2 16.5 0 20.8m-.5.7c-1.5.6-2.3.5-5-.2m5.2.3c-1.8.3-3.6 0-5.6 0m-.5.4c2.6-8.5.7-17.9 1-21.9m.8 21.8c0-7-1-14.4-1.5-21.7" stroke="#000" fill="none"/></g><g><path d="M201.4 531.4l6-.4-2.1 24-3.2 3.5" stroke-width="0" fill="#868e96"/><path d="M201.8 530.6c.3-.4 2 0 4.4 0m-4.9.1c1.3-.3 2.2-.3 5.5-.3m1 .5a72 72 0 00.2 25.9m-2.3-25.7c1.6 6.7 1.3 12.2.5 26.5m0-.3c-1.2-.2-3.2-.8-4.6-.8m5 .6c-1.4-.3-3.2-.4-5-.3m1.4 0a99 99 0 01-.7-26.4m0 27a96.1 96.1 0 01-.7-26" stroke="#000" fill="none"/></g><g><path d="M207.5 515.2l3-2.5 2.2 45.8-7.2-3.4" stroke-width="0" fill="#868e96"/><path d="M206.3 514.4c2.4.4 3.6.3 5.2.4m-4.8-.2h5.1m.2-.4c0 8.3 1.5 18-.9 43.5m1.4-42.6c-.7 8.7-1.4 20.5 0 41.5m-.3.6c-1.4-.7-2.7-.7-5.7-.1m5.5-.3h-5.1m-.5-1.3c.1-12.2.8-24.8-1-38.8m1.3 40.7c-1-14-.2-25.7 0-42.3" stroke="#000" fill="none"/></g><g><path d="M210.6 518l7.4 3.5-2 33.6-4.5 1.9" stroke-width="0" fill="#868e96"/><path d="M212.1 520.1l5.4-.1m-5.8-.2c2.3 0 4.1 0 5.3.3m0-1.2c1.6 12.6-.6 25.3-1 36.3m1.5-36.2c-.5 14.8.5 27-.8 37.3m.7.2c-1.9 0-4.1.6-5.9.5m5.4-.3c-1.3 0-3 .1-5 .5m.2-.8c.8-10.3-1.3-19 0-34.5m-.7 34.7c.7-11.6.5-25 1-36.4" stroke="#000" fill="none"/></g><g><path d="M218 511l3.4-3.5.7 49.5-3.4 1" stroke-width="0" fill="#868e96"/><path d="M216.8 509.4l6 .1m-5.4-.2c1 0 2.3.3 5.1.1m1.3-.2a168.8 168.8 0 00-.2 49m-1.5-48.1c1.1 15 0 30.7 1 47.4m-.4-1c-2.1.5-4.2.5-5.3.6m5.3-.3c-1.3 0-2.9.3-5.5.1m1 0c-2.2-8.7-.8-19.7 0-47.3m-.8 48.3c0-16.7.5-33-.9-49.5" stroke="#000" fill="none"/></g><g><path d="M221.4 518l6 2 1.8 38-4.8-2.5" stroke-width="0" fill="#868e96"/><path d="M222 520.1c2.4-.1 4.3 0 5.5-.6m-5 .3c1 .4 2.5.2 5.2.2m-.7.7c-.2 6.5 2.1 18.6 1.5 36.8m-.1-37.9c-1.3 7.2-.2 15.8-.3 37.8m-.4-.3c-1.4-.1-2 0-5.5-.7m5.8.5c-1.3.3-2.4 0-5.7.1m-1 2c1.2-10.2 2-22 2-40m-.8 38.4c.3-9.8-.8-20.7.4-36.6" stroke="#000" fill="none"/></g><g><path d="M227.3 514.7l7.2 1 .5 39.8-5.5 3.3" stroke-width="0" fill="#868e96"/><path d="M228 514.7c1.7 0 2.7-.5 4.7.3m-5.2-.1c1.6-.1 2.8-.2 5.4 0m-1-2c2.1 15.3 1.7 26.8-.8 43.2m1.4-42c1.4 16.7 1.2 32-.3 43.3m.5-.4c-.5 0-2-.5-5.4.4m5.8-.2c-1.3-.3-2.6-.2-5.4-.1m.3 1.8c1-14.1.8-27.7-1-43.7m1.2 42c-1.1-17.8 0-32.7-1-43.4" stroke="#000" fill="none"/></g><g stroke-opacity=".3" fill-opacity=".3"><path d="M309.8 449l17.8 18.9-5.4 5.1-17.8-18.9" stroke-width="0" fill="#fab005"/><path d="M309.8 449l17.8 18.9m-17.8-19l17.8 19m0 0l-5.4 5.1m5.4-5.1l-5.4 5.1m0 0l-17.8-18.9m17.8 19l-17.8-19m0 0l5.4-5.1m-5.4 5.1l5.4-5.1" stroke="#495057" fill="none"/></g><g stroke-opacity=".3" fill-opacity=".3"><path d="M128.8 471.6l15.3-21 6 4.3-15.2 21" stroke-width="0" fill="#fab005"/><path d="M128.8 471.6l15.3-21m-15.3 21l15.3-21m0 0l6 4.3m-6-4.4l6 4.4m0 0L135 476m15.3-21l-15.3 21m0 0c-2-1.3-3.9-2.7-6-4.3m6 4.4l-6-4.4" stroke="#495057" fill="none"/></g></svg>