<svg width="35" height="35" viewBox="0 0 24 24" fill="none" xmlns="http://www.w3.org/2000/svg">
  <path d="M18.98 3H5.06C3.92 3 3 3.92 3 5.06v13.92c0 1.13.92 2.05 2.06 2.05h13.92c1.13 0 2.05-.92 2.05-2.05V5.06c0-1.14-.92-2.06-2.05-2.06Z" fill="#4D77B3"/>
  <path d="M15.9 7.11c.47 0 .95.21 1.3.55.34.35.54.9.54 1.37v6.18c0 .48-.2.96-.55 1.37-.34.34-.82.55-1.37.55H7.6c-.48 0-.96-.21-1.3-.55-.34-.41-.55-.9-.55-1.37V9.03c0-.48.2-1.02.55-1.37.34-.34.82-.55 1.37-.55h8.23Zm1.09 3.02L11.9 13.3a.34.34 0 0 1-.27 0h-.07l-5.14-3.16v5.08c0 .27.14.61.34.82.2.2.48.34.76.34h8.22c.35 0 .69-.14.83-.34.2-.2.34-.55.34-.82v-5.08h.07Zm-1.1-2.26H7.66c-.34 0-.68.14-.82.34-.2.2-.34.55-.34.82v.21l5.28 3.22 5.2-3.22v-.2c0-.28-.13-.62-.33-.83a1.1 1.1 0 0 0-.76-.34Z" fill="#fff"/>
</svg>
