<svg width="35" viewBox="0 0 35 35" fill="none" xmlns="http://www.w3.org/2000/svg">
  <rect x="4" y="4" width="26.3" height="26.3" rx="3" fill="#4d77b3"/>
  <path d="M22.8 10c.7 0 1.4.3 1.9.8s.8 1.3.8 2v9c0 .7-.3 1.4-.8 2-.5.5-1.2.8-2 .8h-12c-.7 0-1.4-.3-1.9-.8-.5-.6-.8-1.3-.8-2v-9c0-.7.3-1.5.8-2s1.2-.8 2-.8h12Zm1.6 4.4L17 19a.5.5 0 0 1-.4 0h-.1L9 14.4v7.4c0 .4.2.9.5 1.2.3.3.7.5 1.1.5h12c.5 0 1-.2 1.2-.5.3-.3.5-.8.5-1.2v-7.4Zm-1.6-3.3h-12c-.5 0-1 .2-1.2.5-.3.3-.5.8-.5 1.2v.3l7.7 4.7 7.6-4.7v-.3c0-.4-.2-.9-.5-1.2-.3-.3-.7-.5-1.1-.5Z" fill="#fff"/>
</svg>
