<svg xmlns="http://www.w3.org/2000/svg" fill="none" viewBox="0 0 1770 1379">
  <path fill="#fff" d="m1770 0-535 1379H0L1383 0h387Z"/>
  <path fill="#FC544D" d="m1435 863-125 323-481 193H485s-7-97 291-223c297-126 659-293 659-293Z"/>
  <path fill="#010103" d="m1435 863-125 323-481 193H485s-7-97 291-223c297-126 659-293 659-293Z"/>
  <path fill="#FB0B02" d="m1046 572-561 807H141s244-302 423-472c179-169 482-335 482-335Z"/>
  <path fill="#FB0B02" d="m1046 572-561 807H141s244-302 423-472c179-169 482-335 482-335Z"/>
  <path fill="#01811F" d="M1047 570s207-136 372-239 318-243 318-243l-176 450-775 409 261-377Z"/>
</svg>
