<svg fill="none" xmlns="http://www.w3.org/2000/svg" viewBox="0 0 133 174">
  <path d="M85 14c-3 3-4 7-4 12v38c0 3-2 6-3 8l-8 7h4l13-13c3-3 5-8 5-13V16c0-3 2-7 4-10l7-6h-4L85 14ZM57 153l14 12h9c9 0 18-4 24-10s8-13 8-20v-20c0-5-2-9-6-12l-4-5v16l5 5c4 5 4 13-9 25-2 2-9 9-18 9H57Z" fill="#D72027"/>
  <path d="M96 71c-2 2-3 6-3 9v8h7c3 0 7-3 8-4v-8l4 5c1-1 8-10 14-10 9 0 7 12 3 16l-9 8c-4 5-12 3-12-9l-10 9-5 6v20c0 10-4 13-6 16l-13 12h-4l8-7c1-2 3-5 3-10v-31H32c-17 0-21-19-21-24V58c0-3-2-8-5-10h5c0 1 3 2 3 13v15c0 5 5 12 12 12h55c0-1 1-7 4-10l15-14h3l-7 7Zm18 11 4 6c6 5 9 0 5-6-1-2-8-1-9 0Z" fill="#D72027"/>
  <path d="M54 118c0 3-8 10-9 10 0-3-2-6-9-12l10-9c6 6 8 7 8 11ZM71 11c2 2 6 7 3 10l-5 5-4-4v10l-1 5s7 8 7 17v10c0 2 0 4-2 5l-8 9-6 2H29c-4 0-8-3-8-7v-9c1 1 3 3 6 3l6-3 19-20-14-12c-3-2-7 0-7 3-2 8 0 19 0 19l-8-7c-2-3-2-9 1-13 1 0 6-6 13-6h10c7 0 14 7 14 7l1-2V19c-5-5-6-10-3-13l6-6s0 6 6 11ZM38 63l-5 5h29c8 0 6-5 5-7-3-6-12-15-12-15L38 63Z" fill="#D72027"/>
  <path d="M5 90H0s5 3 5 10v23c0 15 13 29 28 29h13c7 0 10-2 14-6l5-5c3-3 6-5 6-13v-7c0-7-4-10-6-12l-4-4v16l4 4c7 5 2 14-5 14H32c-10 1-24-8-24-24v-12c0-13-3-13-3-13Z" fill="#D72027"/>
  <path d="M35 118c0 3-8 10-9 10 0-3-2-6-9-12l10-9c6 6 8 7 8 11Zm5 56c3 0 6-3 6-6-1-4-3-6-7-6-3 0-6 2-6 6 0 3 3 6 7 6Z" fill="#D72027"/>
</svg>
