<svg fill="none" xmlns="http://www.w3.org/2000/svg" viewBox="0 0 1215 490">
  <path d="m929 4 71 14 4 1-17 19a1390 1390 0 0 1-304 219 785 785 0 0 1-181 70l-2 1c0 1-1 2-3 2l-8 1-14 1c-3 0-6 1-8-2l33-6c34-7 66-20 97-36 56-29 105-65 153-104 35-30 69-62 102-95" fill="#D21C2D"/>
  <path d="M467 330c11-1 22 0 33-2l10-1 32-3h1c1 1 0 1-1 2l-7 1-18 4a1083 1083 0 0 1-161 14 2154 2154 0 0 1-230-5L8 332l-4-1v-49a2551 2551 0 0 0 367 48l82 1 14-1Z" fill="#AB1B2C"/>
  <path d="m1097 30 25 2 77 7 12 1-4 3a1609 1609 0 0 1-422 224c-73 25-147 45-223 57l-45 7 22-6 3-1 29-6c58-12 114-31 168-55 83-36 159-82 232-135" fill="#D21C2D"/>
  <path d="m680 429 1 9c5 31 40 47 65 29 16-11 21-27 19-46-4-25-28-41-52-35-20 5-33 22-33 43Zm34 57-7-2c-25-8-41-30-39-59 1-27 23-50 50-51 31-2 55 17 59 46 5 32-16 61-45 65l-1 1h-17Zm99-55 37-1c5 0 10-2 14-4 8-4 11-11 10-19 0-9-5-15-12-18l-13-2h-36v44Zm45 9 33 44h-14c-2 0-3-2-3-3l-28-36c-1-3-3-3-6-3h-27v42h-12V376l1-1 52 1 12 2c14 5 21 16 21 31-1 14-9 25-23 29l-6 2Zm-750-65h10l4 3 50 64 16 20v-87h11v108c-5 2-9 1-13-4l-63-80-3-4v89h-12V375Zm135 97h32c22-2 37-18 38-41 1-21-13-40-34-43-10-2-20-1-30-1h-6v85Zm-13-43v-50c0-3 1-4 4-4l42 1c22 2 38 13 46 33 8 21 5 40-10 57a55 55 0 0 1-41 18h-37c-3 0-4-1-4-4v-51ZM17 386v37h58v12H16v33c0 4 1 5 5 5h62v11H4V375h78v11H17Zm335-11h78v11h-66v37h59v12h-59v34c0 3 1 4 4 4h62v11h-78V375Zm149 14-24 55h49l-25-55Zm-55 95 17-37 31-69c1-3 3-3 6-4 5 0 8 2 10 7l45 100 1 3h-11l-3-3-10-23c-1-2-2-3-4-3h-53c-3 0-4 1-5 3l-10 23c-1 2-2 3-5 3h-9Zm159-16 11-26 27-64c1-2 2-3 5-3h9l-1 4-43 102c-2 3-3 4-7 4-8-1-5 1-9-7l-42-99-2-4h12l3 3 31 75 6 15Zm504-85v48h42l12-3c10-5 15-14 13-25-1-10-8-18-19-19l-48-1Zm79 101h-1c-6 1-10-1-14-6-8-13-18-24-27-36-2-2-3-3-6-3h-32v45h-8V375c20 1 39-2 59 2 8 1 15 5 20 12 10 14 6 34-9 42l-16 7 34 46Zm-179-38-29-62-28 62h57Zm26 37-1 1c-8 0-8 0-11-7l-9-20c-1-3-3-4-5-4h-58c-2 0-3 1-4 4l-10 21c-3 7-3 7-11 5l10-20 39-84c2-5 3-6 8-4l3 3 33 72 16 33Zm32 1h-8V375h8v109Z" fill="#002D52"/>
</svg>
