<svg fill="none" xmlns="http://www.w3.org/2000/svg" viewBox="0 0 1213 307">
  <path d="M114 7C36 7 3 69 3 117c0 57 37 109 108 109 60 0 81-37 98-70l-7-5c-18 18-43 31-76 31-44 0-71-23-73-68h161C210 36 168 7 114 7Zm-5 26c26 0 48 16 50 51H54c8-36 29-51 55-51Zm205 189h-56V79c0-26-6-34-18-34l-2-3 71-38c3-2 5-1 5 1v33c11-12 37-31 76-31 28 0 73 12 73 74v141h-57V92c0-23-9-46-45-46-27 0-47 18-47 45v131Zm305 0h-34L499 35c-5-10-12-15-21-17v-4h71c3 0 4 1 5 5l60 140 60-145h47v4c-10 3-19 11-25 25l-77 179ZM831 7c-67 0-114 46-114 110 0 52 31 109 110 109 78 0 116-52 116-111C943 53 902 7 831 7Zm-4 26h2c29 0 54 27 54 86 0 58-22 81-49 81-32 0-57-34-57-89 0-56 25-78 50-78Z" fill="#260E62"/>
  <path d="M1045 222 958 35c-5-10-12-15-20-17v-4h70c4 0 4 1 6 5l59 140 22-54 44-23-63 146c-15 32-25 44-36 55-10 9-31 21-66 21l-21-1v-27l21 1c18 0 27-2 40-11 12-9 23-27 31-44Z" fill="#260E62"/>
  <path d="m1110 71 24-57h76v4l-100 53Z" fill="#A71A2D"/>
</svg>
