<svg fill="none" width="100px" xmlns="http://www.w3.org/2000/svg" viewBox="0 0 600 274">
  <g clip-path="url(#a)">
    <path d="m482.6 62.6 24 26.4 23-26.4H579l-48.1 54.1 48.8 54.6h-51.3l-23.7-26.6-23.6 26.6h-49.5L480 117l-48.4-54.3h51Zm-51.1 0v36.7h-54.8V133h54.8v38.3h-95V0h95v38.2h-54.8v24.4h54.8Z" fill="#FF5900"/>
    <path d="M296.3 0v70.1h-.4A40.7 40.7 0 0 0 263 56.4 55.5 55.5 0 0 0 209.8 98c-8-26.1-28.5-42.1-58.9-42.1-24.7 0-44.2 11-54.3 29.1V62.6h-51V38.2h55.6V0H0v171.3h45.5v-72H91c-1.4 5.3-2.1 11-2.1 17 0 35.7 27.3 60.8 62.1 60.8 29.3 0 48.6-13.8 58.9-38.9h-39c-5.3 7.6-9.3 9.8-19.9 9.8a23.4 23.4 0 0 1-22.7-23.3h79.4c3.4 28.4 25.5 52.9 55.9 52.9 13 0 25-6.5 32.4-17.4h.4v11.1h40.1V0h-40ZM129.4 99.8c2.6-10.9 11-18 21.5-18a21 21 0 0 1 21.8 18h-43.3ZM272 145.2c-14.8 0-24-13.7-24-28.1 0-15.4 8-30.2 24-30.2 16.5 0 23.1 14.8 23.1 30.2 0 14.6-7 28.1-23.1 28.1ZM336.4 257v-61.4h34v4.6H342v22.6h27.2v4.6H342v25h29.6v4.6h-35.2Zm39.3 0 16.5-22-15.7-21h6.4l12.8 17.1 12.5-17h6.4l-16 20.8 16.7 22h-6.5l-13.7-18.2-13 18.3h-6.4Zm50.3 16h-5v-46c0-4.3 0-8.6-.3-12.8h5.1l.2 6.4a15 15 0 0 1 13.8-7.4c13.2 0 18.9 10.9 18.9 22.4 0 11.6-5.7 22.5-18.9 22.5a15 15 0 0 1-13.7-7.2V273Zm27-37.5c0-9.1-3.7-18.1-13.9-18.1-9.6 0-13 7.9-13 18.1 0 10.3 3.4 18.2 13 18.2 10.2 0 14-9 14-18.2Zm32.2-17.5c-8.6 0-11.6 7.3-11.6 14.7V257h-5.1v-30.3l-.3-12.6h5.1l.4 6.2c2.5-5 6.8-7.2 12.4-7.2l2.4.1v5.2c-1.2-.2-2.1-.3-3.3-.3Zm9.6 18.5c0 9.6 4.6 17.6 14 17.6 7.3 0 10.7-4.8 12-9.7h4.9c-2.3 9-7.8 13.6-17.6 13.6-13 0-18.8-9.7-18.8-21.7 0-12.3 6-23.2 19.5-23.2 13.7 0 17.3 12 17.3 23.4h-31.3Zm.2-4h25.6c0-8.3-4-15.5-12.1-15.5-7.4 0-12.5 5.5-13.5 15.6Zm51.3 25.5c-8.8 0-15.4-4.2-15.4-13.6h5.2c0 6.5 4.2 9.7 10.5 9.7 5.8 0 10.4-2.8 10.4-8.6 0-5.1-5.3-6.5-11-8.1-6.7-2-14-4-14-12.4 0-9.2 7.6-12 14.8-12 8.3 0 14.5 3.3 14.8 12.2h-5.2c-.2-5.1-3.9-8-9.4-8-4.3 0-9.6 1.7-9.6 7.3 0 5.1 5.3 6.5 10.9 8 6.8 2 14.2 4 14.2 12.3 0 9.6-7.5 13.2-16.2 13.2Zm35.9 0c-8.8 0-15.5-4.2-15.5-13.6h5.2c0 6.5 4.3 9.7 10.5 9.7 5.9 0 10.5-2.8 10.5-8.6 0-5.1-5.4-6.5-11-8.1-6.8-2-14.1-4-14.1-12.4 0-9.2 7.7-12 14.9-12 8.3 0 14.5 3.3 14.7 12.2h-5.1c-.3-5.1-4-8-9.4-8-4.4 0-9.6 1.7-9.6 7.3 0 5.1 5.2 6.5 10.8 8 6.8 2 14.3 4 14.3 12.3 0 9.6-7.5 13.2-16.2 13.2Z" fill="#2A007C"/>
  </g>
  <defs>
    <clipPath id="a">
      <path fill="#fff" d="M0 0h600v273.1H0z"/>
    </clipPath>
  </defs>
</svg>
