<svg fill="none" xmlns="http://www.w3.org/2000/svg" viewBox="0 0 224 102">
  <path d="m180.2 23.4 9 9.8 8.5-9.8h18.4l-18 20.2L216.4 64h-19.2l-8.8-10-8.8 10H161l18-20.3-18-20.3h19Z" fill="#FF5900"/>
  <path d="M161.1 23.4V37h-20.5v12.6h20.5V64h-35.5V0h35.5v14.3h-20.5v9h20.5Z" fill="#FF5900"/>
  <path d="M110.6 0v26.2h-.1A15.2 15.2 0 0 0 98.2 21c-9.8 0-17.3 6.7-19.9 15.6-3-9.8-10.6-15.7-22-15.7-9.2 0-16.5 4.1-20.3 10.9v-8.4H17v-9.1h20.8V0H0v64h17V37h17c-.6 2-.9 4.2-.9 6.4a22.4 22.4 0 0 0 23.2 22.7c11 0 18.2-5.1 22-14.5H63.7c-2 2.8-3.4 3.7-7.4 3.7-4.5 0-8.5-4-8.5-8.7h29.7c1.3 10.6 9.5 19.7 20.9 19.7 4.8 0 9.3-2.4 12-6.4h.2V64h15V0h-15ZM48.3 37.3c1-4 4.1-6.7 8-6.7 4.4 0 7.4 2.5 8.2 6.7H48.3Zm53.2 17c-5.5 0-9-5.2-9-10.6 0-5.7 3-11.2 9-11.2 6.2 0 8.7 5.5 8.7 11.2 0 5.5-2.6 10.5-8.7 10.5ZM125.6 96V73h12.7v1.8h-10.6v8.4h10.1V85h-10.1v9.4h11V96h-13Zm14.7 0 6.1-8.2-5.8-7.8h2.3l4.8 6.3 4.7-6.3h2.4l-6 7.8L155 96h-2.4l-5.1-6.8-4.9 6.8h-2.3Zm18.7 6h-1.9V80h1.8v2.4a5.5 5.5 0 0 1 5.3-2.8c4.9 0 7 4 7 8.4 0 4.3-2.1 8.4-7 8.4-2.3 0-4-.9-5.1-2.7v8.3Zm10.2-14c0-3.4-1.5-6.8-5.3-6.8-3.5 0-4.8 3-4.8 6.8s1.3 6.7 4.8 6.7c3.8 0 5.3-3.3 5.3-6.7Zm11.9-6.6c-3.2 0-4.3 2.7-4.3 5.5v9H175V84.8l-.1-4.7h2v2.3c1-1.9 2.6-2.7 4.7-2.7h.9v2l-1.3-.2Zm3.6 6.9c0 3.6 1.7 6.6 5.3 6.6 2.7 0 4-1.8 4.4-3.6h1.9c-.9 3.4-3 5-6.6 5-4.9 0-7-3.5-7-8 0-4.6 2.2-8.7 7.3-8.7 5 0 6.4 4.4 6.4 8.7h-11.7Zm.1-1.4h9.6c0-3.2-1.5-5.9-4.6-5.9-2.7 0-4.6 2.1-5 5.9Zm19.2 9.5c-3.3 0-5.8-1.6-5.8-5.1h2c0 2.4 1.5 3.6 3.9 3.6 2.1 0 3.8-1 3.8-3.2 0-2-2-2.4-4-3-2.6-.8-5.3-1.6-5.3-4.7 0-3.4 2.9-4.4 5.6-4.4 3 0 5.4 1.2 5.5 4.5h-2c0-1.9-1.4-3-3.5-3-1.6 0-3.6.7-3.6 2.8 0 1.9 2 2.4 4 3 2.6.7 5.4 1.4 5.4 4.5 0 3.6-2.8 5-6 5Zm13.3 0c-3.2 0-5.7-1.6-5.7-5.1h2c0 2.4 1.5 3.6 3.8 3.6 2.2 0 4-1 4-3.2 0-2-2-2.4-4.1-3-2.6-.8-5.3-1.6-5.3-4.7 0-3.4 2.8-4.4 5.5-4.4 3.1 0 5.5 1.2 5.5 4.5h-1.9c0-1.9-1.4-3-3.5-3-1.6 0-3.6.7-3.6 2.8 0 1.9 2 2.4 4 3 2.6.7 5.4 1.4 5.4 4.5 0 3.6-2.8 5-6 5Z" fill="#2A007C"/>
</svg>
