<svg xmlns="http://www.w3.org/2000/svg" fill="none" viewBox="0 0 1770 1379">
  <path fill="#E40014" d="m1770 0-535 1379H0L1383 0h387Z"/>
  <path fill="#EDE952" fill-rule="evenodd" d="m960 421 156-155a111 111 0 0 1-155 155ZM843 538l38-38 27 23c50 40 109 70 172 78 40 5 84-1 117-25 30-21 47-55 52-90 7-48-6-97-27-141l-20-37c21 30 38 64 49 100 14 43 20 91 7 135-9 35-32 65-63 83-35 20-77 24-116 20-51-6-100-26-144-52l-35-24c-12-8-24-17-37-24-6-4-13-7-20-8Zm-42 42c30 4 57 21 81 38h1c44 29 92 53 143 68 46 13 97 18 144 5 42-12 80-41 100-80 21-40 24-87 17-131a430 430 0 0 0-93-203c14 15 25 31 36 48l2 2c38 59 67 125 75 194 6 48 2 97-20 140-22 42-61 75-107 88-49 15-101 10-150-2a605 605 0 0 1-161-66c-23-12-46-25-71-34-17-7-36-11-55-9l58-58ZM675 706 481 899a340 340 0 0 1 250-50c54 9 106 28 156 49 34 15 70 28 106 37 60 15 123 21 184 8 45-9 87-31 121-62 28-25 49-57 62-91 18-46 23-95 20-143-4-59-20-116-42-169-35-84-87-161-148-228 62 71 111 154 133 245 14 59 17 122-4 179-16 45-48 84-89 108-49 28-107 35-162 30-60-6-119-26-173-52l-1-1c-50-24-102-49-158-56-20-3-41-2-61 3Zm245 319c-20-41-52-75-91-98-47-29-103-43-158-46-74-4-150 13-214 50 42-9 86-11 129-9 39 2 78 9 114 23 35 13 67 34 90 62 15 20 27 44 26 69-1 19-10 38-27 49-17 10-41 9-56-5a47 47 0 0 1-11-55c9-19 32-30 52-26-16-7-33-10-50-6-30 5-56 26-67 54-10 25-8 54 3 78 25 58 90 96 153 88a146 146 0 0 0 128-141c1-31-7-61-21-87Z" clip-rule="evenodd"/>
</svg>
