<svg fill="none" xmlns="http://www.w3.org/2000/svg" viewBox="0 0 254 229">
  <path d="m80 5 34-5C93 2 72 8 54 19c-11 8-21 18-26 31-4 10-5 21-1 32 5 12 14 22 25 29 9 7 19 11 29 15 11 3 21 7 31 12 6 4 12 9 15 16 2-5 6-9 10-12 10-8 23-12 34-16 13-4 25-10 36-18 9-8 17-18 21-30 3-10 2-21-3-31-5-12-15-21-26-29-18-11-39-16-59-18 20 1 40 6 58 13 12 5 23 12 33 21 8 7 15 15 19 25 3 8 4 16 4 24-1 11-4 20-10 29-7 11-18 20-30 27l-23 10c-11 5-22 10-32 17a72 72 0 0 0-32 47c-3-14-10-26-19-36-12-13-28-21-44-27-11-4-22-9-32-17-11-7-21-17-27-29-5-12-7-27-3-40 5-13 14-24 25-33C42 18 61 10 80 5Z" fill="#E60012"/>
  <path d="m98 5 11-1c-13 1-27 6-39 13-9 6-18 14-22 24-4 8-4 19-1 27 4 10 11 17 20 22 12 8 26 13 40 16 7 1 15 3 20 8 6-6 13-7 21-8 11-3 22-6 33-12 9-5 18-12 23-21 5-8 7-19 4-28-3-10-10-18-18-24a95 95 0 0 0-46-17l14 2c15 3 30 9 42 19 8 7 15 15 18 25s2 22-3 31c-6 10-15 17-24 22-8 5-17 9-26 12l-26 8c-5 2-9 5-12 10-3-5-7-8-12-10-9-4-20-6-30-9-13-5-26-12-37-22-7-6-12-15-14-25-1-9 1-18 6-26s11-15 19-20C71 13 84 8 98 5Z" fill="#E60012"/>
  <path d="M76 18c8-5 18-9 28-11-9 3-18 6-26 12-6 4-12 11-14 18s-2 15 2 22c5 9 13 15 22 20a93 93 0 0 0 88-6c7-6 13-13 15-22 1-8-1-16-6-23-6-8-16-14-26-18l-9-3 24 9c9 4 17 11 22 20 3 7 5 15 2 23-2 8-8 15-15 21-9 7-20 11-31 14l-19 3-6 4c-4-4-10-4-15-5-13-2-26-6-37-14-8-5-14-11-18-19-3-8-3-17 0-24 4-9 11-16 19-21Z" fill="#E60012"/>
  <path d="M124 14c6-1 13 1 17 5a25 25 0 0 1-12 44c-7 0-13-2-18-6a24 24 0 0 1 13-43ZM45 162c12-2 25 0 36 6a85 85 0 0 1 45 53l-17-20c-9-7-18-14-29-17-8-3-17-4-24-1-5 1-8 3-11 7-2 3-3 7-2 11s5 7 10 7 9-3 10-8c1-4-1-9-4-11l10 8c3 6 3 14 0 20-3 5-8 8-13 10a33 33 0 0 1-39-13c-4-7-6-17-4-25 2-7 6-13 12-18s13-7 20-9Zm142 1c9-2 20-2 29 1 6 2 12 6 17 11 4 5 7 11 8 17a33 33 0 0 1-44 35c-6-3-11-7-13-12-2-6-2-14 2-19 2-3 6-6 9-7-4 3-6 8-4 12 1 4 6 7 10 7 5 0 9-3 10-8 1-4-1-8-4-12s-9-6-14-6c-8-1-17 0-24 3l-22 14-19 22c5-16 14-30 26-41 10-8 21-14 33-17Z" fill="#E60012"/>
</svg>
