<svg fill="none" xmlns="http://www.w3.org/2000/svg" viewBox="0 0 534 534">
  <path d="M0 0h533v533H0V0Z" fill="#3A469D"/>
  <path d="m516 415 1 9h-2v-3l-1 3-1 1h-1v-1l-1-3v3h-2v-9h2l2 6 1-6h2Zm-16 0h8v2h-3v7h-2v-7h-3v-2Z" fill="#fff"/>
  <path d="M461 513c-25 0-45-21-45-47-1-26 20-48 45-48s45 20 46 46c1 27-21 49-46 49Zm1-79c-16-1-29 14-29 31s12 32 28 32 29-15 29-33c0-16-12-30-28-30Zm-124 81c-35-2-63-31-64-68-1-38 28-70 66-70 11 0 31 1 53 24l-13 14c-19-19-33-20-40-20-34 1-48 31-48 52 1 32 27 50 47 51 24 0 46-19 47-43h-45v-18h64c3 52-32 80-67 78Zm-314-4V378h20v133H24Zm160 2c-29-1-43-24-44-47-2-26 19-48 45-48 6 0 12 2 16 3l6 4v19l-2-3c-3-3-13-7-21-7-16 0-27 13-27 29-1 19 10 33 27 34 2 0 28-1 28-32v-87h18v87c0 24-18 49-46 48Zm-72-2v-48c0-27-13-27-20-28-9-2-22 8-22 24v53H54v-52c0-28 19-42 38-42 10 0 37 8 37 41v52h-17Zm129-113c1-14 21-13 21 0-1 15-21 13-21 0Zm3 113v-92h17v92h-17Z" fill="#fff" stroke="#fff" stroke-width="1.7" stroke-miterlimit="10"/>
  <path d="M354 227a8 8 0 1 0 0-15 8 8 0 0 0 0 15Zm0-20a8 8 0 1 0 0-15 8 8 0 0 0 0 15Zm-40-21a8 8 0 1 0 0-15 8 8 0 0 0 0 15Zm20 0a8 8 0 1 0 0-15 8 8 0 0 0 0 15Zm17-77a8 8 0 1 0 0-15 8 8 0 0 0 0 15Zm20 0a8 8 0 1 0 0-15 8 8 0 0 0 0 15Zm21 0a8 8 0 1 0 0-15 8 8 0 0 0 0 15Zm20 0a8 8 0 1 0 0-15 8 8 0 0 0 0 15Zm20 81a8 8 0 1 0 0-15 8 8 0 0 0 0 15Zm0-21a8 8 0 1 0 0-15 8 8 0 0 0 0 15Zm0-20a8 8 0 1 0 0-15 8 8 0 0 0 0 15Zm0-20a8 8 0 1 0 0-16 8 8 0 0 0 0 16Zm-78 57a8 8 0 1 0 0-15 8 8 0 0 0 0 15Zm16-15a8 8 0 1 0 0-15 8 8 0 0 0 0 15Zm13-13a8 8 0 1 0 0-15 8 8 0 0 0 0 15Zm15-15a8 8 0 1 0 0-15 8 8 0 0 0 0 15Zm14-15a8 8 0 1 0 0-15 8 8 0 0 0 0 15Zm20-19a8 8 0 1 0 0-15 8 8 0 0 0 0 15Zm14-14a8 8 0 1 0 0-16 8 8 0 0 0 0 16Zm15-15a8 8 0 1 0 0-15 8 8 0 0 0 0 15Z" fill="#fff"/>
</svg>
