<svg xmlns="http://www.w3.org/2000/svg" width="1781" height="1385" fill="none">
  <path fill="#fff" d="m1777 3-535 1379H7L1390 3h387Z"/>
  <path fill="#01236B" stroke="#fff" stroke-miterlimit="10" stroke-width="1.7" d="M1552 234a73 73 0 0 1-101-7 74 74 0 0 1 2-104c29-25 74-23 101 6 29 30 28 79-2 105Zm-81-93c-19 16-19 47-1 67s47 23 65 7c20-17 19-48 1-68-18-19-46-22-65-6Zm-59 224c-42 35-105 31-144-11-41-44-42-110 2-150 14-12 37-31 87-28l-1 29c-41-2-59 12-68 20-37 36-23 85 0 109 35 37 83 30 107 10 28-24 35-70 10-99l-52 47-19-20 74-67c58 57 46 126 4 160Zm-366 325L906 536l23-20 140 154-23 20Zm187-166c-35 29-75 19-100-8a71 71 0 0 1 1-103c7-6 16-10 22-12l11-3 20 22-6-1c-5 0-22 5-32 14-18 17-16 44 0 63 18 22 46 26 67 9 2-1 32-30-1-66l-91-101 20-18 92 101c25 28 30 76-3 103Zm-85 74-51-56c-28-31-44-18-53-11-12 8-16 32 0 50l56 61-20 17-54-60c-29-31-21-68 1-88 11-10 51-30 86 8l55 61-20 18Zm31-266c-14-18 9-38 23-22 15 18-11 38-23 22Zm121 128-97-107 20-18 97 106-20 19Z"/>
  <path fill="#01236B" d="m1491 733-250 647H625s295-291 492-424c198-132 374-223 374-223Z"/>
  <path fill="#84C4F2" d="m1710 168-136 352s-234 150-364 246c-131 96-695 614-695 614h-78s551-614 734-787c184-172 539-425 539-425Z"/>
</svg>
