<svg fill="none" xmlns="http://www.w3.org/2000/svg" viewBox="0 0 1093 358">
  <path d="M34 0h41v41H34V0Zm0 82h41v219c0 34-25 56-59 56H0v-38h12c14 0 22-6 22-22V82Zm235 117v-34c0-52-39-85-84-85-39 0-83 25-83 104 0 83 48 103 90 103 27 0 53-9 73-33l-30-25a64 64 0 0 1-44 20c-28 0-49-17-49-50h127Zm-127-34c1-31 19-47 43-47s42 16 43 47h-86ZM301 20h41v62h29v31h-29v118c0 11 4 15 14 15h15v39h-21c-28 0-49-18-49-50V113h-20V82h20V20Zm202 18c31 0 46 19 46 41 0 23-15 41-46 41h-62V38h62ZM397 285h120c43 0 80-32 80-81 0-29-16-58-47-66 33-15 42-38 42-62 0-44-29-76-84-76H397v285Zm110-127c32 0 46 21 46 43 0 23-14 43-46 43h-66v-86h66ZM620 0h41v232c0 10 5 14 15 14h14v39h-18c-30 0-52-13-52-49V0Zm87 82h41v121c0 27 17 43 40 43s40-16 40-43V82h41v203h-41v-22a65 65 0 0 1-53 24 68 68 0 0 1-68-70V82Zm351 117v-34c0-52-38-85-83-85-39 0-84 25-84 104 0 83 49 103 90 103 27 0 53-9 73-33l-29-25a64 64 0 0 1-45 20c-28 0-48-17-48-50h126Zm-126-34c1-31 19-47 43-47s41 16 43 47h-86Zm138-70h2c3 0 6 0 6-3s-2-3-5-3h-3v6Zm-4-9h8c5 0 8 2 8 6s-3 6-6 6l6 9h-4l-6-9h-2v9h-4V86Zm7 25c8 0 14-6 14-14 0-9-6-15-14-15s-14 6-14 15c0 8 6 14 14 14Zm0-32a18 18 0 1 1 3 36 18 18 0 0 1-3-36Z" fill="#232D62"/>
</svg>
