<svg xmlns="http://www.w3.org/2000/svg" fill="none" viewBox="0 0 1770 1379">
  <mask id="a" width="1770" height="1379" x="0" y="0" maskUnits="userSpaceOnUse" style="mask-type:alpha">
    <path fill="#fff" d="m1770 0-535 1379H0L1383 0h387Z"/>
  </mask>
  <g mask="url(#a)">
    <path fill="#00B2E3" d="M1084 22a200 200 0 1 0 399-1 200 200 0 0 0-399 1Z"/>
    <path fill="#0083D4" d="M884 222a199 199 0 1 0 398 0 199 199 0 0 0-398 0Z"/>
    <path fill="#0033A1" d="M1483 22a200 200 0 1 0 399-1 200 200 0 0 0-399 1Z"/>
    <path fill="#00205C" d="M1283 222a200 200 0 1 0 399-1 200 200 0 0 0-399 1Z"/>
    <path fill="#00B2E3" d="M1084 421a200 200 0 1 0 399-1 200 200 0 0 0-399 1Z"/>
    <path fill="#00205C" d="M685 421a199 199 0 1 0 398 0 199 199 0 0 0-398 0Z"/>
    <path fill="#0083D4" d="M1483 421a200 200 0 1 0 399-1 200 200 0 0 0-399 1Z"/>
    <path fill="#0033A1" d="M1283 621a200 200 0 1 0 399-1 200 200 0 0 0-399 1Zm-798 0a199 199 0 1 0 398 0 199 199 0 0 0-398 0Z"/>
    <path fill="#8DC6E8" d="M884 621a199 199 0 1 0 398 0 199 199 0 0 0-398 0Z"/>
    <path fill="#00B2E3" d="M685 820a199 199 0 1 0 398 0 199 199 0 0 0-398 0Z"/>
    <path fill="#0083D4" d="M1084 820a200 200 0 1 0 399-1 200 200 0 0 0-399 1Zm-796 0a199 199 0 1 0 398 0 199 199 0 0 0-398 0Z"/>
    <path fill="#00B2E3" d="M1283 1020a200 200 0 1 0 399-1 200 200 0 0 0-399 1Z"/>
    <path fill="#00205C" d="M884 1020a200 200 0 1 0 399-1 200 200 0 0 0-399 1Zm-795 0a200 200 0 1 0 399-1 200 200 0 0 0-399 1Z"/>
    <path fill="#0033A1" d="M488 1020a200 200 0 1 0 399-1 200 200 0 0 0-399 1Zm596 199a200 200 0 1 0 399-1 200 200 0 0 0-399 1Zm-1198 0a200 200 0 1 0 399-1 200 200 0 0 0-399 1Z"/>
    <path fill="#0083D4" d="M685 1219a200 200 0 1 0 399-1 200 200 0 0 0-399 1Z"/>
    <path fill="#00B2E3" d="M288 1219a200 200 0 1 0 399-1 200 200 0 0 0-399 1Z"/>
    <path fill="#00205C" d="M1283 1419a200 200 0 1 0 399-1 200 200 0 0 0-399 1Z"/>
    <path fill="#8DC6E8" d="M887 1419a200 200 0 1 0 399-1 200 200 0 0 0-399 1Z"/>
    <path fill="#0033A1" d="M488 1419a200 200 0 1 0 399-1 200 200 0 0 0-399 1Z"/>
    <path fill="#0083D4" d="M86 1419a200 200 0 1 0 399-1 200 200 0 0 0-399 1Z"/>
  </g>
</svg>
