<svg fill="none" width="150px" xmlns="http://www.w3.org/2000/svg" viewBox="0 0 597 103">
  <path d="M71 41h-1c-.2.4-.5 1-1 1.6 7.4 0 14 .6 21.4 2l-2 2a102 102 0 0 0-19.3-1.7h-1.4l-1.4 1.8h3.5c5.8 0 11.2.3 17 1.3l-2 2a101.3 101.3 0 0 0-20.3-1l-1.8 2a76.5 76.5 0 0 1 20.5.5l-2 2c-2.9-.3-6.3-.5-9.3-.5-7.8 0-14 1.6-20.3 5.5a36 36 0 0 0 25.6 10.6h.9l-3.4 3.2a111.3 111.3 0 0 1-40.7-17C22.2 47.3 18 45 8.8 41v-2.4l6.2 2.7 2.1-1.7L37.5 49l-1.3 1-10.5-4.5-1 .8 5.4 3c4.6 2.6 8.1 3.7 11.3 3.7 7.1 0 13.4-5 17.5-13.8A132 132 0 0 1 94.1 41L92 43a124 124 0 0 0-21-2ZM51 99.2A48 48 0 1 1 51 3a48 48 0 0 1 0 96.2ZM51 0a51 51 0 1 0 0 102.2A51 51 0 0 0 51 0Zm135.1 71.5h29.4v13.7h-45.1V17h15.7v54.5ZM251 36h14.7v49.1H252v-5.6c-2 3.8-6.3 7-14 7-12.5 0-19-5.6-19-21.7V36h14.7v28c0 6.6 2.8 9.5 8.7 9.5 5.4 0 8.7-2.9 8.7-9.4v-28Zm26-1.8c0-11.9 7.5-18.2 19.3-18.2 3.8 0 6.2.6 6.2.6v11.8l-3.8-.2c-4.5 0-7 1.6-7 5.9v2h10.8v12h-10.8v37H277v-37h-7.4v-12h7.4v-2Zm51.4 1.8h11.2v12h-11.2v19.1c0 5.3 2.8 6.6 7 6.6 1.8 0 4.2-.3 4.2-.3v11.8s-3.4.8-7 .8c-11.8 0-18.9-5.4-18.9-17.2V48h-7.4V36h7.4V21.8h14.7v14.3Zm43.8-1.4c12.5 0 19 5.6 19 21.8v28.7h-14.7v-28c0-6.6-2.8-9.5-9-9.5-5.5 0-8.8 3-8.8 9.5v28H344v-68h14.8v23.7c2.5-3.6 6.5-6.2 13.4-6.2ZM428.7 66c0 5.4-5 9.4-12.9 9.4-3.8 0-6-1.8-6-5 0-2.6 1.6-4.8 6.5-5.4l8.5-1.2c1.5-.2 3-.5 3.9-.8v3Zm-8.2-31.4c-14.5 0-21.5 5.5-22.1 16h14.3c.2-2.8 1.8-4.8 7.8-4.8 5.4 0 7.9 1.7 7.9 4.4 0 2.3-1.5 3.2-5 3.6l-9.4 1c-12.7 1.3-18.4 6.6-18.4 16.1 0 8.9 5.4 15.7 17 15.7 8 0 12.6-2.5 16.7-7.6v6.1h13.4V53c0-13.6-7.9-18.3-22.2-18.3Zm56.2 0c12.8 0 19.3 5.6 19.3 21.8v28.7h-14.7v-28c0-6.6-2.8-9.5-9-9.5-5.5 0-8.8 3-8.8 9.5v28h-14.7v-49h13.8v5.6c2-3.8 6.2-7.1 14.1-7.1ZM527 54.4c12.5 1.7 18.7 5.6 18.7 15.8 0 10.4-7.3 16.5-22.7 16.5-16.9 0-22.8-6.7-23.1-16.6h14.5c.4 3.6 2.9 5.4 8.6 5.4 5.7 0 8-1.4 8-4.1 0-2.5-2-3.7-7-4.4l-5.1-.7c-10.9-1.4-17-5.6-17-15.4 0-9.3 6.8-16.2 21.3-16.2 13.5 0 20.7 5.3 21.4 16h-14.3c-.5-2.9-2-4.6-7-4.6s-6.8 1.6-6.8 3.8c0 2.1 1.2 3.3 5.4 3.9l5.1.6Zm55.6 11.7c0 5.4-5.1 9.4-12.9 9.4-3.8 0-6-1.8-6-5 0-2.6 1.5-4.8 6.5-5.4l8.5-1.2c1.4-.2 3-.5 3.9-.8v3Zm-8.2-31.4c-14.5 0-21.5 5.5-22.1 16h14.3c.2-2.8 1.7-4.8 7.8-4.8 5.3 0 7.9 1.7 7.9 4.4 0 2.3-1.5 3.2-5 3.6l-9.4 1c-12.7 1.3-18.5 6.6-18.5 16.1 0 8.9 5.5 15.7 17 15.7 8 0 12.7-2.5 16.7-7.6v6.1h13.5V53c0-13.6-7.9-18.3-22.2-18.3Z" fill="#0A1D3D"/>
</svg>
