<svg xmlns="http://www.w3.org/2000/svg" width="1781" height="1385" fill="none">
  <path fill="#151B55" d="m1777 3-535 1379H7L1390 3h387Z"/>
  <path fill="#FFB301" stroke="#141C55" stroke-width="30" d="M1346 753a245 245 0 1 1-490 0 245 245 0 0 1 490 0Z"/>
  <path stroke="#FFB301" stroke-width="30" d="M1101 1028a275 275 0 1 0 0-550 275 275 0 0 0 0 550Z"/>
  <path fill="#151B55" d="M1192 742h-22l7-11h11c38 0 66 2 92 6l12-11c-29-5-64-8-100-8h-8l5-11h10c37 0 71 3 103 10l13-12a618 618 0 0 0-173-8c-20 43-53 69-89 68-14 0-32-6-55-18l-22-13 7-6 49 22 11-8-100-46-15 12-36-15 1 15c48 22 68 34 118 70 66 47 124 72 206 89l21-21h-5c-54 0-102-17-130-47 23-15 52-21 92-21l41 2 12-12a483 483 0 0 0-96-2l9-11a588 588 0 0 1 98 3l11-11c-21-3-51-5-78-5Z"/>
</svg>
