<svg fill="none" xmlns="http://www.w3.org/2000/svg" viewBox="0 0 103 103">
  <path d="M71 41h-1c-.2.4-.5 1-1 1.6 7.4 0 14 .6 21.4 2l-2 2a102 102 0 0 0-19.3-1.7h-1.4l-1.4 1.8h3.5c5.8 0 11.2.3 17 1.3l-2 2a101.3 101.3 0 0 0-20.3-1l-1.8 2a76.5 76.5 0 0 1 20.5.5l-2 2c-2.9-.3-6.3-.5-9.3-.5-7.8 0-14 1.6-20.3 5.5a36 36 0 0 0 25.6 10.6h.9l-3.4 3.2a111.3 111.3 0 0 1-40.7-17C22.2 47.3 18 45 8.8 41v-2.4l6.2 2.7 2.1-1.7L37.5 49l-1.3 1-10.5-4.5-1 .8 5.4 3c4.6 2.6 8.1 3.7 11.3 3.7 7.1 0 13.4-5 17.5-13.8A132 132 0 0 1 94.1 41L92 43a124 124 0 0 0-21-2ZM51 99.2A48 48 0 1 1 51 3a48 48 0 0 1 0 96.2ZM51 0a51 51 0 1 0 0 102.2A51 51 0 0 0 51 0Z" fill="#0A1D3D"/>
</svg>
