<svg xmlns="http://www.w3.org/2000/svg" fill="none" viewBox="0 0 1770 1379">
  <path fill="#fff" d="M1769.5 0 1235 1379H0L1382.5 0h387Z"/>
  <path fill="#5C0931" d="M506.4 1002.6C402.6 1114.2 425 1109 394 1170.3c-6 11.8 6.1 27.8 14.6 30.5 8.4 2.7 16.6 3.6 38-5.3 21.3-9 28.6-25.2 36.5-25.2 8 0-1.5 28.3-12.6 37.2-11 9-38.8 11-38.8 11l87.3 87.3s32.7-7 76.3-41c43.7-33.8 89.7-133.3 111-169.5 21.2-36.1 67.7-181.8 67.7-181.8s-36 5.5-48.2 0c-12.3-5.5 0-31 32.7-55.5 32.8-24.5 45.4-26.3 45.4-26.3l21.4-76.9s18.7 46.5 23.2 76.9c4.5 30.3 9 81.8 9 81.8s38.5-84.7 48.2-81.8c9.8 2.8 22.8 151.8 9.8 196.8s-65.5 82-92.5 103-101 84.5-97.2 87c3.7 2.5 11 .5 28.6 0s57.7-15.4 70.9-17.7a177 177 0 0 1 43.2 0c7.5 1.2 18.7 9.8 26.3 17.7 7.7 8 114.1 160.5 114.1 160.5l226.1-.5 14-36.5-42-.3s-24.5.8-25-1.7 25-7.4 25-7.4l50.5-12.1 39.5-102s-121-10-127.5-10-23-3-24.7-7.7c-1.7-4.7 10.7-9.3 19.7-12.3s150.5-16 150.5-16l38.5-99-184-14s-14.3-1-14.3-5c0-4.2 16.8-8 28.8-10s187-16 187-16l43.5-112.5s-96-28.5-145.2-58c-49.2-29.5-89-76.4-89-76.4s-19.4-21.5-12.3-26.8c7-5.3 24.5 0 24.5 0s61.5 1 98.2-10.9c19.4-6.3 25.3-5.4 47.8-21.4 22.5-16 30.8-39 30.8-39S1112.1 670 1100.6 670s-17 2-20.2-4.3c-3.3-6.3 18.1-21.3 18.1-21.3s179.3-111.9 301.3-169.6C1505 425 1621.1 383 1621.1 383l29-74.5s-207.5 74.5-291.6 107.6c-84.1 33.2-344.4 191-360.9 197.8-10.4 4.3-26.5 13.6-29.5 10.1s1-11.5 12-22 207.4-145.5 355.2-228.5c147.8-83 359.3-180 359.3-180l35-90.5s-144.5 59.5-394.3 211.3S1168.1 396 895 614c-273 217.8-284.9 277-388.6 388.6Z"/>
</svg>
