<svg fill="none" xmlns="http://www.w3.org/2000/svg" viewBox="0 0 1838 510">
  <g clip-path="url(#a)">
    <path d="m277 29 30-1-25 18 10 28-24-18-24 18 9-28-25-18 31 1 9-29 9 29Zm0 435h30l-25 18 10 28-24-17-24 17 9-28-25-18h31l9-28 9 28ZM414 85l9-29 9 29h30l-24 17 9 28-24-17-24 18 10-29-25-17h30ZM98 85l9-29 10 29h30l-25 17 10 28-25-17-23 18 9-29-25-17h30Zm316 315 9-29 9 28h30l-24 18 9 28-24-17-24 17 10-28-25-17h30Zm-316 0 9-29 10 28h30l-25 18 10 28-25-17-23 17 9-28-25-17h30ZM30 244l9-29 9 29h30l-24 18 9 28-24-18-24 18 9-28-24-18h30Z" fill="#BCBEC0"/>
    <path d="M247 308h-19l30-148h54c27 0 39 14 39 35 0 23-15 44-39 49l21 64h-21l-19-62h-32l-14 62Zm54-80c14 0 23-7 26-20l2-15c0-10-5-16-19-16h-36l-11 51h38Zm57 36c0-36 23-69 58-69 19 0 37 10 37 30 0 24-24 36-75 37l-1 8c0 14 8 24 25 24 13 0 24-6 33-17l12 11a56 56 0 0 1-46 22c-27 1-43-16-43-46Zm23-22-1 6c44-2 53-8 53-22 0-12-9-15-19-15-16 0-29 12-33 31Zm106-44h19l-5 24h1c9-18 19-27 35-27 20 0 33 16 33 42 0 35-19 74-53 74-14 0-26-7-29-21h-1l-12 61h-19l31-153Zm59 65 4-16 1-11c0-14-6-23-20-23-10 0-16 4-22 11s-11 14-14 26l-4 23c-3 10 6 22 22 22 18-1 30-12 33-32Zm81-65-14 67-1 12c0 11 4 17 15 17 8 0 14-3 20-9 7-7 12-16 14-26l12-61h19l-19 94h15l-4 16h-15c-10 0-16-5-16-14l1-6 1-2h-1c-8 17-18 25-34 25-18 0-27-12-27-30l1-15 14-69 19 1Zm112-47h19l-15 71h2c8-18 19-26 35-26 20 0 33 16 33 41 0 35-19 74-53 74-14 0-26-7-29-20h-1l-4 18h-19l32-158Zm50 112 3-16 1-11c0-14-6-23-19-23-10 0-16 4-22 11-7 6-11 14-14 26l-5 23c-2 10 6 22 23 22 18-1 29-12 33-32Zm59 45c-10 0-16-6-16-14l1-5 28-138h19l-29 141h16l-3 16h-16Zm57 0c-11 0-16-6-16-14v-4l19-92h19l-19 94h15l-4 16h-14Zm7-141 1-6c1-6 5-10 13-10s11 4 11 8l-1 6c-2 5-5 10-13 10s-11-4-11-8Zm33 98c0-38 22-70 55-70 20 0 33 11 38 26l-16 7c-3-10-10-16-22-16-16 0-26 11-30 29l-4 18-1 10c0 14 7 25 24 25 11 0 19-6 26-21l15 7c-9 19-24 30-43 30-25 1-42-16-42-45Zm243 43-5-42h-56l-22 42h-21l79-148h26l20 148h-21Zm-15-130h-1l-36 70h45l-8-70Zm76 130c-10 0-16-6-16-14l1-4 18-92h19l-19 94h15l-3 16h-15Zm8-141 1-6c2-6 5-10 13-10s11 4 11 8l-1 6c-1 5-5 10-13 10s-11-4-11-8Zm30 141 22-110h19l-4 22h1c6-11 15-22 33-22h6l-4 19h-7c-20 0-31 11-34 27l-13 64h-19Zm89-110h19l2 51 1 40h1l16-35 26-56h19l4 53 3 38h1l16-37 24-54h18l-50 110h-22l-5-55-2-30h-1l-13 29-27 56h-23l-7-110Zm234 110c-10 0-16-5-16-14l1-5 1-5h-1c-8 18-19 26-35 26-20 0-33-15-33-41 0-35 19-74 53-74 14 0 26 7 29 20h1l4-18h19l-19 94h15l-4 16h-15v1Zm-22-25c7-7 11-14 13-26l5-23c2-10-6-22-23-22s-28 11-32 32l-3 15-1 11c0 14 6 24 19 24 9 0 16-5 22-11Zm144-85h20l-73 134c-8 14-14 19-27 19h-16l3-16h19l12-22-17-115h19l8 52 4 41h1l20-41 27-52Zm15 93 13-12c7 10 17 16 30 16 14 0 24-7 24-19 0-7-4-12-15-14l-9-2c-17-3-29-11-29-29 0-19 14-36 42-36 16 0 28 6 37 17l-13 12c-5-8-13-12-26-12-15 0-22 7-22 17 0 7 3 12 15 14l8 2c18 3 29 11 29 29 0 22-16 37-42 37-17 0-33-7-42-20Z" fill="#00263A"/>
  </g>
  <defs>
    <clipPath id="a">
      <path fill="#fff" d="M0 0h1838v510H0z"/>
    </clipPath>
  </defs>
</svg>
