<svg xmlns="http://www.w3.org/2000/svg" fill="none" viewBox="0 0 1770 1379">
  <path fill="#00263A" d="m1770 0-535 1379H0L1383 0h387Z"/>
  <g fill="#fff" clip-path="url(#a)">
    <path d="m628 988 12-17v21l19 7-20 6v20l-12-17-20 6 13-16-12-17 20 7Zm239 184 12-16v21l19 6-20 6v21l-12-17-20 6 13-17-12-17 20 7ZM717 936l-12-16 19 6 13-16-1 21 20 6-20 6v21l-12-17-20 6 13-17Zm-134 174-12-17 20 7 12-17v21l19 6-20 7v20l-12-17-20 6 13-16Zm306-40-12-17 20 7 13-17-1 21 19 7-19 5-1 21-12-17-19 6 12-16Zm-133 173-12-17 19 7 13-17-1 21 20 7-20 6v20l-12-17-20 6 13-16Zm-115-28-11-18 19 7 13-16-1 21 20 6-20 6v21l-12-17-20 6 12-16Zm128-93-9 11-68-79 23-30c11-15 24-15 35-6 13 10 18 26 11 42l44 15-9 12-42-16-14 17 29 34Zm-21-63c5-7 5-15-1-22l-7-8c-5-4-11-4-17 3l-15 20 24 28 16-21Zm43-16c-19-15-27-42-13-61 8-10 21-16 32-7 13 10 10 28-12 56l4 4c8 6 17 6 24-4 6-7 7-15 5-25l11-2c3 15 0 26-7 35-11 15-27 17-44 4Zm-2-22 3 3c18-25 18-33 10-38-6-5-12-2-16 4-7 8-6 21 3 31Zm21-77 8-10 11 13v-1c-6-12-6-22 0-31 9-11 23-11 37 0 19 15 33 42 18 61-6 7-15 11-23 7h-1l28 33-8 10-70-82Zm60-5-7-9-5-5c-8-5-16-6-22 1-4 5-4 11-3 17s3 12 9 18l10 13c5 5 15 6 22-3 7-10 6-22-4-32Zm-1-72 31 36 6 6c6 5 11 5 16-1 3-4 4-9 3-15-1-7-4-13-8-19l-29-32 8-10 44 50 6-8 8 8-7 9c-4 5-9 6-14 2l-3-3-1-1v1c6 11 6 20-1 29-8 10-18 10-28 2l-8-7-31-36 8-11Zm21-81 8-10 34 38v-1c-6-12-6-22 1-31 8-11 22-11 36 0 19 15 33 41 18 60-5 8-14 11-23 8h-1l9 10-8 10-74-84Zm83 20-7-9-6-5c-7-6-15-6-21 1-4 5-4 11-3 17s3 12 8 18l11 13c4 5 14 6 21-4 8-10 6-20-3-31Zm50-13c-4 5-10 6-14 2l-3-2-64-74 8-10 65 75 7-9 8 9-7 9Zm24-31c-4 5-10 6-15 2l-2-2-42-49 8-10 43 50 7-8 7 9-6 8Zm-75-64-2-4c-3-2-4-6 0-11 3-4 6-4 9-2l2 3c3 3 4 7 0 11-3 4-6 4-9 3Zm69 23c-22-16-30-41-16-60 9-10 20-13 31-9l-3 12c-8-3-14-2-19 4-7 9-5 20 4 30l8 9 5 5c8 6 17 6 23-3 5-6 6-13 0-23l10-5c7 13 6 26-2 36-10 14-26 16-41 4Zm126-115-25-15-24 31 14 29-9 12-48-106 11-14 90 52-9 11Zm-78-47v1l23 49 19-24-42-26Zm104 13c-5 6-10 7-15 3l-2-2-42-49 8-10 43 50 6-8 8 8-6 8Zm-74-64-3-3c-3-3-4-7 0-11 3-4 6-4 9-3l3 4c2 2 3 6-1 11-3 4-6 4-8 2Zm90 44-51-59 8-11 10 12h1c-4-9-6-18 1-28l3-3 9 10-3 4c-9 11-7 22 0 30l30 34-8 11Zm-23-96 8-10 29 20 22 17 1-1-13-24-19-38 8-10 30 20 22 15 1-1-14-24-19-36 8-10 39 74-10 12-32-21-17-11h-1l11 20 19 39-10 12-63-43Zm159-81c-4 5-9 6-14 2l-3-3-2-2c6 13 6 22-1 31-8 11-22 11-36 0-19-14-33-41-18-60 5-8 14-11 23-7l1-1-9-10 8-10 44 50 6-8 7 9-6 8v1Zm-23 1c0-7-3-12-8-18l-11-13c-4-5-14-6-21 3-8 10-7 21 3 32l7 8 6 5c7 6 15 7 21-1 4-5 4-10 3-16Zm15-115 8-11 43 97c4 10 4 15-1 22l-7 9-8-8 9-11-8-16-69-39 7-10 32 18 24 15 1-1-14-28-17-37Zm57 31-1-12c9 0 16-3 21-10 6-8 6-16 0-21-4-3-8-3-14 2l-5 4c-9 8-18 12-28 4s-14-23-2-38c7-9 15-13 25-13l1 12c-6-1-12 2-18 9-6 8-5 15 1 19 3 3 7 4 13-2l5-4c9-8 18-11 29-4 11 10 13 25 2 39-8 10-18 16-29 15Z"/>
  </g>
  <defs>
    <clipPath id="a">
      <path fill="#fff" d="m495 1128 778-1009 280 216-778 1008z"/>
    </clipPath>
  </defs>
</svg>
