<svg xmlns="http://www.w3.org/2000/svg" fill="none" viewBox="0 0 1770 1379">
  <path fill="#213D86" d="m1770 0-535 1379H0L1383 0h387Z"/>
  <path fill="#F4CA35" d="M1316 508c41 14 84 24 128 29l31 1 1-1c19 0 32-8 50-12 2 0 7-1 9 1 1 4-1 7-5 10-22 17-48 29-73 39v-1l-25 8c-30 9-65 15-98 13-62-4-116-26-171-24a153 153 0 0 0-165 129c1 22 33 31 45 50 7 11 10 23 15 35 13 24 26 47 42 70 9 15 25 28 42 37 23 16 44 37 56 59l-1 1c14 22 22 44 32 67l14 40c2 1 2 3 2 5 4 11 7 22 12 32-2 2 1 2 1 4 0 6 6 15-2 19-11-10-17-25-23-36-14-23-29-46-46-69h1l-33-41c-50-54-122-87-174-139h-1c-5-4-7-9-11-14l-16-29c-16-25-32-51-42-76-3-12-6-22-7-35l-2-4c1-12-28-19-12-42 10-11 49-24 63-45 0-3 1-7-2-9 0-3-2-5-4-7-7-10-27-2-27-16 2 0 0-2 1-3-1-6-1-11 1-17 4-11 8-24 7-35 1-4 5-7 9-9l24-4 1 1c19-2 42 0 55 15 5 11 1 24-2 36-1 7-8 12-7 19 3 2 8 2 11 1 29-18 54-42 75-66 19-18 48-25 74-21 53 4 97 22 146 34h1Z"/>
  <path fill="#F4CA35" d="M1179 604c8 10-2 18-5 27-31 47-42 100-62 150-2 2-5 2-7 2-6-4-6-11-5-16 4-55 18-106 41-154 6-8 15-17 27-15 4 1 8 3 11 6Zm82 14c4 18-9 32-14 48-30 61-67 120-85 185 0 2-2 5-4 6-2 0-5-1-5-3-6-26 1-52 7-77 17-54 38-110 67-160 4-3 4-5 8-6 10-1 21 0 26 7Zm87 3c9 6 4 18 1 25-35 79-92 146-116 229-7 17-11 35-16 53-1 3-6 3-9 3-3-8-2-17-2-26 7-66 23-130 55-188l44-83c5-8 12-15 22-17 8-1 16 1 21 4Zm97 4c6 10 0 20-2 29-23 63-65 116-98 173-29 48-48 100-68 151-6 16-9 33-17 48l-4 1c-5-5-4-11-5-16 4-64 28-122 51-180 29-65 68-127 95-194 3-8 11-18 22-22 11-1 20 3 26 10Z"/>
</svg>
