<svg fill="none" xmlns="http://www.w3.org/2000/svg" viewBox="0 0 141 140">
  <path d="M93.4 7.6c9 3 18.3 5.3 28 6.4h6.6l.2-.2c4 .1 7-1.6 10.9-2.5.4 0 1.4-.3 1.8.2.2.8 0 1.6-1 2.2a60.2 60.2 0 0 1-15.7 8.3v-.1a29 29 0 0 0-5.5 1.7 60 60 0 0 1-21.2 2.7c-13.6-.7-25.2-5.5-37.2-5A33 33 0 0 0 31 34.1a36 36 0 0 0-6.6 15c.4 5 7.3 6.8 9.8 10.9 1.5 2.4 2.2 5.1 3.4 7.7 2.8 5 5.6 10.2 9.1 15v.1c2 3.3 5.3 6 9.1 8 5 3.5 9.4 8 12 12.9 2.9 4.8 4.6 9.7 6.9 14.6 1 3 2.1 5.7 3 8.7.3.3.3.7.5 1.1.8 2.3 1.5 4.8 2.5 7-.5.3.3.4.2.7 0 1.4 1.3 3.3-.4 4.2-2.4-2.2-3.7-5.4-5-7.7-3-5.2-6.3-10.1-10-15h.2c-2.2-2.8-4.7-6-7.2-8.9-10.7-11.8-26.3-19-37.8-30.2v.1c-1-.9-1.7-2-2.5-3v-.1c-1.3-2-2.1-4.2-3.5-6.2l.1-.1c-3.5-5.3-7-11-9.2-16.5-.5-2.5-1.4-4.6-1.6-7.5l-.2-.9c.1-2.6-6.3-4-2.7-9 2.2-2.4 10.7-5.4 13.6-9.8 0-.7.2-1.5-.3-2.1 0-.5-.5-1-.9-1.5-1.6-2-6-.4-6-3.4.5 0 .1-.4.4-.6a7 7 0 0 1 0-3.7 20 20 0 0 0 1.6-7.7c.2-.9 1.1-1.4 2-1.8 1.9-.5 3.5-.7 5.3-1l.2.2c4.1-.3 9 0 11.8 3.2 1.2 2.5.3 5.4-.4 8-.2 1.3-1.8 2.5-1.4 4 .5.6 1.7.5 2.4.2 6.2-3.8 11.6-9 16.2-14.3 4.1-4 10.3-5.3 16-4.5C73 1.2 82.7 5 93.4 7.6Z" fill="#F4CA35"/>
  <path d="M63.9 28.3c1.6 2.2-.6 4.1-1.2 6-6.7 10.1-9 21.6-13.5 32.5-.4.3-1 .5-1.5.3-1.2-.8-1.2-2.3-1-3.5.8-11.8 4-22.8 9-33.3 1-1.7 3-3.6 5.6-3.2 1 .2 1.9.5 2.6 1.2Zm17.7 3.1c.9 3.9-1.9 7-3.1 10.5C71.9 55 64 68 60.2 82c-.2.4-.4 1-1 1.2-.5.2-1-.1-1.1-.5A35 35 0 0 1 59.7 66c3.7-11.7 8.2-23.8 14.5-34.7.8-.6.9-1 1.8-1.3 2.2-.2 4.4 0 5.6 1.5Zm18.9.6c1.8 1.4.9 4 .2 5.5C93 54.5 80.6 69.2 75.5 87c-1.5 3.8-2.4 7.7-3.6 11.5-.2.7-1.2.7-1.9.6-.7-1.7-.5-3.7-.5-5.5 1.7-14.3 5-28.3 12-40.8 3.2-6.2 6.3-11.8 9.7-18A7.5 7.5 0 0 1 96 31a9 9 0 0 1 4.5 1Zm21 1c1.3 2 0 4.3-.5 6.3-4.9 13.7-14 25-21.3 37.5C93.4 87 89.3 98.4 85 109.5c-1.4 3.4-2 7-3.7 10.3-.1.3-.6.1-.9.2-1-1-1-2.2-1.2-3.4.9-14 6.2-26.5 11.2-39 6.3-14 14.8-27.5 20.5-42 .8-1.8 2.4-4 4.8-4.7 2.4-.4 4.3.5 5.7 2Z" fill="#F4CA35"/>
</svg>
