<svg fill="none" xmlns="http://www.w3.org/2000/svg" viewBox="0 0 555 580">
  <path fill-rule="evenodd" clip-rule="evenodd" d="M431 60c-12 7-39 10-50-1-12 18 11 36 37 26 16-6 32-13 49-15 17-3 38 0 46 7-65 4-149 40-212 84-49 34-79 65-115 114-5 7-5 12 4 8 43-22 98-40 146-52 38-10 79-18 118-8 19 5 37 18 44 38 9 25 2 55-28 59-15 3-25-3-30-11-3-4-4-4-6-3l-39 12c-2 0-5 3-3 7 3 9 11 21 21 28 24 18 57 20 85 9 38-15 59-56 53-99-5-39-34-72-71-84-37-13-88-7-129 8-11 4-13 5-7 0 29-24 87-51 136-65 33-9 64-12 73-4 9-56-37-92-94-78 20-13 5-40-24-40-47 0-92 22-137 27-25 2-54-3-73-13-4 39 43 68 89 58 31-6 61-22 90-28 26-6 40 10 27 16ZM182 515c-25 38-39 36-62 33-5 0-5 1-7 4l-6 10c-3 4-3 5 3 7 44 19 83 15 115-33l146-220c15-22 21-34 42-35 13-1 22 8 24 18 1 5 4 5 7 5l38-12c3 0 4-3 4-7 1-11-6-28-16-36-29-23-74-15-106-8-53 10-118 31-173 58-15 7-31 15-40 28L77 439c-28 37-40 36-63 33-3 0-4 0-6 3l-6 11c-3 4-3 5 1 6 44 19 82 19 115-30l70-105c10-15 27-25 40-29l-99 148c-25 38-38 37-61 34-5 0-5 0-7 4l-7 10c-2 3-3 4 3 7 47 19 84 14 115-33l122-184c6-10 21-18 36-21L182 515Z" fill="#CC0327"/>
</svg>
