<svg xmlns="http://www.w3.org/2000/svg" fill="none" viewBox="0 0 1770 1379">
  <path fill="#CC0327" d="m1770 0-535 1379H0L1383 0h387Z"/>
  <path fill="#A27F3F" fill-rule="evenodd" d="m1270 1290-18 44c-22-6-44-21-63-50l-179-271-3-5c-16-24-24-36-48-37-15-1-26 9-29 22-2 6-6 6-9 5l-47-14c-2 0-4-4-4-8-1-14 7-35 20-44 35-28 90-19 130-11 64 13 143 38 211 72l4 2c17 8 35 17 45 32l23 35 34 53-25 65-77-116a98 98 0 0 0-49-36l117 176-24 62c-9-8-17-17-25-29l-149-226c-8-12-26-21-44-25l181 271c10 16 19 26 28 33ZM998 698c-13 14-46 10-61 2s1-27 33-20c17 4 35 10 52 17 19 7 39 14 59 18 55 11 114-24 109-72-24 13-60 19-90 16-24-3-47-9-71-16-32-8-64-17-97-17-35 0-54 34-30 49-69-18-126 27-115 95 11-9 49-6 90 6 60 17 131 51 167 79 6 6 5 5-2 2l-7-2c-50-18-113-25-158-10-45 16-81 56-87 104-7 53 18 103 65 121 35 14 74 11 105-11 11-9 21-23 25-34 2-5-1-8-4-9l-47-15c-3-1-4 0-8 4-7 10-19 17-37 14-37-6-46-42-34-73 8-24 31-40 54-46 48-13 98-2 144 9 59 15 126 37 179 64 11 5 12-1 6-9-45-60-82-98-142-140-76-54-179-98-259-103 9-9 35-13 56-9 17 2 33 8 48 14l12 4c32 12 60-9 45-32Z" clip-rule="evenodd"/>
</svg>
