<svg fill="none" xmlns="http://www.w3.org/2000/svg" viewBox="0 0 600 137">
  <path d="M579 126c0-6 5-11 10-11 6 0 11 5 11 11s-5 10-11 10c-5 1-10-4-10-10Zm10 9c5 0 9-4 9-9s-4-9-9-9c-4 0-8 4-8 9s4 9 8 9Zm-2-3h-2v-12h5c3 0 4 1 4 3 0 3-1 3-3 4l4 5h-3l-3-5h-2v5Zm2-7c2 0 3 0 3-2l-2-2h-3v4h2Zm-349 12 3-3 8-13 2-4-1-1h4l3 11c1 5 2 10 4 10h-5l-2-9h-8l-4 8 1 1h-5Zm14-18-5 8h7l-2-8Zm30 17 1-1 2-10 1-8-1-2h6l-1 1-2 9-1 9 1 2h-6Zm36 0 1-1 2-10 1-8-1-2h8c5 0 7 1 7 5s-4 6-6 7l5 7 2 2h-5l-4-7-1-2h-3l-1 7 1 2h-6Zm8-10 5-1 2-4-1-3-5-2-2 1-2 9h3Zm54 6-2 5-2-1h-12l1-1 2-10 1-8-1-2h6l-1 1-2 9-1 10h2l6-1 2-2h1Zm27 4 1-1 2-10 1-8-1-2h6l-1 1-2 9-1 9 1 2h-6Zm35 0 1-2 2-4 2-12-1-1-1-2h5l6 10 7 7 2-14-1-2v-1l2 1 3-1v1h-1l-2 9-3 11h-1l-14-17-1 16v1h-5Zm71-4-2 5-7-1h-10l2-1 2-10 1-8-1-2h17l-2 5-1-2-6-1h-4l-1 8h2l6-1 1-1h1l-1 5h-1l-1-1a25 25 0 0 0-7-1l-2 9h10l4-3Zm44-12c0-2-2-4-6-4l-3 1-1 3c0 2 2 4 5 5 5 1 6 2 6 4s-1 4-3 5c-2 2-5 3-7 3l-7-1 1-6h1l1 3 5 2c3 0 5-1 5-4s-3-4-6-5-5-2-5-5c0-2 1-3 3-4l7-2h6l-1 5h-1ZM226 39l-22 54 3-18-2-41-30 3-23 2-25 28 8-15 14-52-34 5-26 101h32l4-15 11-10 3 25h33l-8-49 12-11 9 53 1 6c0 11-7 11-13 11h-7l-10 20 22 1c9 0 21 0 30-10 5-4 7-10 10-15l4-6 38-71-34 4Zm-124-8v-5C102 8 85 3 61 3c-7 0-20 0-31 7-12 7-17 18-17 29 0 16 12 21 21 25l10 4 12 6 2 6c0 4-3 11-12 11-5 0-9-3-10-5l-2-6 1-3-35 4v1c0 21 18 27 43 27 10 0 26-1 39-12 9-8 13-17 13-27 0-18-12-23-20-26l-10-4c-9-3-11-3-13-5-1-1-3-3-3-6 0-4 3-9 12-9 4 0 10 2 10 9l-1 6 32-4Z" fill="#004998"/>
  <path d="m264 32-13 1 3-28 35-5-7 56-6 24 34-76 29-4-4 52v1l-4 27 28-75 37-5-45 106h-44l3-38 2-18-6 15-19 41h-44l5-44 16-30Zm152 54c-2 6-5 9-11 9-5 0-8-3-7-8l2-8 49-6 2-15c0-18-14-25-34-25-25 0-35 9-41 20-4 8-8 22-8 31 0 3 0 12 9 18 3 3 8 4 13 5l12 1c13 0 27-1 35-9 6-5 8-11 10-17l-31 4Zm0-40c4 0 7 2 7 7l-3 12-18 2c3-10 5-21 14-21Zm90 15-9-3c-7-2-12-3-12-8 0-3 4-5 8-5s7 2 7 6l-1 5 28-4 1-2c0-13-14-17-35-17-8 0-16 1-24 4-10 5-15 14-15 22 0 13 10 17 17 19l9 4c6 2 10 3 10 7 0 3-3 6-8 6-3 0-8 0-8-6l1-3-29 3v2c0 9 7 15 18 16l17 1c7 0 19 0 27-6 8-5 13-14 13-22 0-14-10-17-15-19Zm48-14-18 3-8 29-2 12c0 6 2 11 10 15l12 1 20-2 4-16h-5c-2 0-7 0-7-5l2-9 7-28h11l3-12h-11l5-19-34 4-3 15h-8l-3 12h25Z" fill="#004998"/>
</svg>
