<svg xmlns="http://www.w3.org/2000/svg" width="1781" height="1385" fill="none">
  <path fill="#11356F" d="m1777 3-535 1379H7L1390 3h387Z"/>
  <mask id="a" width="1146" height="893" x="401" y="413" maskUnits="userSpaceOnUse" style="mask-type:luminance">
    <path fill="#fff" d="m1547 646-991 660-155-233 991-660 155 233Z"/>
  </mask>
  <g fill="#F9F9F9" mask="url(#a)">
    <path d="m829 884 23 115-14-34-50-68-48 40-37 30-11 76-2-35-36-104-52 46 70 202 56-36-11-30 6-30 34 40 56-38-69-75 8-33 74 81 9 10c12 18 2 25-9 33l-13 8 7 44c10-4 18-9 38-22 15-10 36-24 41-52 2-12 0-24-1-36l-1-15-16-163-52 46Zm-220 125-5-9c-20-30-55-19-96 8-12 8-34 25-45 48-11 25-8 50 4 68 19 28 45 23 64 19l21-4c16-4 21-6 28-4 4 1 8 3 11 7 5 8 7 23-9 34-9 6-18 5-23 2-4-2-6-5-9-8l-3-6-54 47 1 1c24 36 61 25 103-3 17-12 44-31 53-65 6-22 3-43-8-60-20-29-47-24-64-21l-22 5c-17 5-21 5-27 4-3 0-8-2-11-6-5-7-5-18 9-28 7-4 19-8 27 4l5 11 50-44Z"/>
    <path d="m885 827-20 18-28-51 56-48 50 103 18 48-29-168 45-40 53 94 24 52-37-161 56-49 44 231-74 49-38-67-17-33 7 31 14 92-74 50-43-80-7-71Zm276-147c7-4 13-4 18 4 4 5 8 17 10 23l-28 24c-7-19-16-40 0-51Zm44 67c4 14 2 22-8 29-8 5-16 4-21-5l-6-16 76-66c-1-5-5-17-13-28-20-31-53-27-86-5-44 29-50 56-47 81 2 19 12 47 22 61 4 6 14 21 35 22 10 1 19-2 28-6l23-13c22-15 42-32 48-55 4-15 1-27-4-40l-47 41Zm124-143-18 5c-13 4-23 7-28 0-4-6 0-13 7-17 7-5 13-6 18 1l4 9 44-38-2-4c-15-22-43-13-78 9-14 10-27 21-36 36-12 21-9 41 0 54 14 21 36 17 50 14l19-5c13-3 21-5 25 2 4 5 3 13-6 19-4 3-14 8-21-3l-3-5-43 38 2 3c10 15 27 18 47 8 15-7 26-15 31-17 13-9 32-24 40-42 7-18 6-39-4-53-15-23-36-17-48-14Zm66-78-27 25 20 59c3 8 6 15 10 21 7 10 16 18 34 14 8-2 16-6 23-10 12-9 22-18 30-27l-11-32-8 7c-3 2-12 8-17-1l-8-18-20-56 18-12-8-24-18 12-13-38-53 46 11 29-13 8 8 25 42-28Z"/>
  </g>
</svg>
