<svg fill="none" width="150px" xmlns="http://www.w3.org/2000/svg" viewBox="0 0 600 89">
  <path d="M164.8 70.3c-2.5.6-5.6.9-8.7.9-9 0-11-3.1-11-9v-34h-16.8v36c0 16 9 23.3 27 23.3 8.7 0 16.9-1.7 26.7-4V28.1h-17.2v42.2Zm54.9 1.7c-6.2 0-7-2.8-7-7.6v-22h14V28.2h-14V11.3h-17V28h-8.4v14h8.5v23.2c0 10 2 21.9 18.8 21.9 5 0 9.3-1.1 14-2.5l-1.6-14c-2.5.8-4.8 1.4-7.3 1.4ZM42.2 40.2l-10.4-3.4c-9.9-2.8-13-4.2-13-8.7 0-5 3.7-7.6 12.7-7.6 7.3 0 13.8 2 20.3 4.3l3.6-16.4a64.4 64.4 0 0 0-23.3-5.3C11.8 3 .6 14.6.6 28.4.6 38.8 5 45.6 15.2 49.8c2.8 1.1 6.5 2.2 10.1 3.4 11 3.3 14.4 5 14.4 9.2 0 5.1-4.3 8-13 8-7.9 0-15.2-2.3-22.8-5.7L0 81.6a68.7 68.7 0 0 0 26.7 5.6c20.8 0 31.5-11.5 31.5-25.6 0-11.2-6.4-17.7-16-21.4Zm221.7-14.9a52 52 0 0 0-14.7 2.5V0h-16.9v87.2h17V43.6a30 30 0 0 1 10.6-2.2c6.5 0 9 2.5 9 8.7v37.1h16.9V48.1c0-15.5-7-22.8-22-22.8Zm-171-.3c-17.2 0-31 12.1-31 31a30.3 30.3 0 0 0 31 31.5c17 0 30.9-12.4 30.9-31.5 0-19.2-13.8-31-31-31Zm0 45.6c-7.4 0-13.3-5.3-13.3-14.9 0-9.6 5.6-14.6 13.2-14.6S106 46 106 55.7c0 9.8-5.9 14.9-13.2 14.9Zm378.8-19.4c-2.5-.8-5-1.7-8.1-2.5-6-1.7-8.2-2.6-8.2-5.1 0-2.5 2.3-4.2 7.6-4.2 5.6 0 10.7 1.1 16.3 2.8l2.8-14.6a82.3 82.3 0 0 0-18.8-2.6c-16 0-24.8 8.2-24.8 19.4 0 8 4 13 11.9 16.4 2.2.8 4.7 2 7.8 2.8 6.2 1.7 9.3 2.5 9.3 5.3s-3.6 4-8.7 4c-6.2 0-11.8-1.2-17.7-3.4L438.5 84a81 81 0 0 0 21.7 3.4c16.9 0 24.5-8.7 24.5-19.7-.3-7.6-3.4-13.2-13-16.6ZM408.4 25c-17.7 0-30.3 12.4-30.3 32.1 0 18.3 11 30.4 30.6 30.4a56 56 0 0 0 23-5.6l-2.4-14.1a42.6 42.6 0 0 1-18 4.5c-10.2 0-14.4-4.2-15-10.4h38s.6-6.8.6-8.2c0-16-8.7-28.7-26.5-28.7Zm-11.8 25.6c1.1-5 3.7-11.5 11-11.5s9.6 7.3 9.6 11.5h-20.6ZM518 72c-6.2 0-7-2.8-7-7.6v-22h14V28.2h-14V11.3h-17V28h-8.7v14.4h8.8v23c0 10.2 2.5 22 19.4 22 5 0 9.2-1.1 14-2.5l-2-14.1c-2.8.5-5 1.1-7.5 1.1Zm11-68.6c-4.2 0-7.3 3.4-7.6 7.6-.3 4.2 3.4 7.6 7.3 7.6 4.3 0 7.6-3.4 7.6-7.6 0-4.2-3-7.6-7.3-7.6Zm0 13.8c-3.4 0-5.9-2.6-5.9-6.2a6 6 0 0 1 6.2-6.2c3.4 0 6.2 2.5 5.9 6.2-.3 3.6-2.8 6.2-6.2 6.2Zm.9-6c1.4-.2 2.2-.8 2.2-2.2 0-1.4-1.1-2.5-2.8-2.5h-2.8v8.7h1.7v-3.7c.5 0 .8.3 1.1.9l2 2.8h2l-1.8-2.8a5.3 5.3 0 0 1-1.6-1.1Zm-1.2-.8h-.8V8h1.1c1.1 0 1.4.5 1.4 1.1 0 1.1-.8 1.4-1.7 1.4ZM362.3 28.1l-10.7 32.4L341 28h-14.6l-11 32.4L304.6 28h-18.2l21 59.1H323l10.7-32 10.7 32h15.5l21-59h-18.5Z" fill="#304CB2"/>
  <path d="M581.2 24.8c-5.7 0-10.5 2-14.1 3.9-3.7-2-8.2-4-14-4-11.6 0-19 7.4-19 20.3 0 15.5 15 30.7 33 43C585 76 600 60.8 600 45c0-13-7.6-20.2-18.8-20.2Z" fill="#CCC"/>
  <path d="M535.9 45.3c0 15.7 16.8 30.6 31 40.5 4.1-2.8 8.3-6.2 12.3-9.6-18.9-15.7-36.9-30-43-35.1 0 1-.3 2.5-.3 4.2Z" fill="url(#a)"/>
  <path d="M597 52.6a243.6 243.6 0 0 0-31-22.5 27 27 0 0 0-12.7-3.7c-5 0-9.6 1.7-12.7 4.8-2 2-3.3 4.5-3.9 7.6 7 5 26.5 18.9 45.9 34.3a54.7 54.7 0 0 0 14.3-20.5Z" fill="url(#b)"/>
  <path d="M593.2 31.2a17 17 0 0 0-12.3-4.8c-5.4 0-9.3 1.7-12.4 3.4 5.3 3.1 16.9 9.6 29 18.6.3-1.1.3-2.5.3-3.7a18 18 0 0 0-4.6-13.5Z" fill="url(#c)"/>
  <defs>
    <linearGradient id="a" x1="536" y1="63.2" x2="579.5" y2="63.2" gradientUnits="userSpaceOnUse">
      <stop stop-color="#3656CC"/>
      <stop offset=".3" stop-color="#304CB2"/>
      <stop offset=".7" stop-color="#283B80"/>
    </linearGradient>
    <linearGradient id="b" x1="542.2" y1="28.9" x2="591.3" y2="63.3" gradientUnits="userSpaceOnUse">
      <stop offset=".3" stop-color="#E61C23"/>
      <stop offset=".8" stop-color="#C3161C"/>
    </linearGradient>
    <linearGradient id="c" x1="572.6" y1="24.4" x2="600.7" y2="44.1" gradientUnits="userSpaceOnUse">
      <stop stop-color="#FDBC11"/>
      <stop offset=".3" stop-color="#FCB415"/>
      <stop offset=".8" stop-color="#F89E1C"/>
    </linearGradient>
  </defs>
</svg>
