<svg fill="none" xmlns="http://www.w3.org/2000/svg" viewBox="0 0 66 65">
  <path d="M47.2.8c-5.7 0-10.5 2-14.1 3.9-3.7-2-8.2-4-14-4C7.4.8 0 8.2 0 21c0 15.5 15 30.7 33 43 18-12 33-27.2 33-43C66 8 58.4.8 47.2.8Z" fill="#CCC"/>
  <path d="M1.9 21.3c0 15.7 16.8 30.6 31 40.5 4.1-2.8 8.3-6.2 12.3-9.6-18.9-15.7-36.9-30-43-35.1 0 1-.3 2.5-.3 4.2Z" fill="url(#a)"/>
  <path d="M63 28.6A243.6 243.6 0 0 0 32 6.1a27 27 0 0 0-12.7-3.7c-5 0-9.6 1.7-12.7 4.8-2 2-3.3 4.5-3.9 7.6 7 5 26.5 18.9 45.9 34.3a54.7 54.7 0 0 0 14.3-20.5Z" fill="url(#b)"/>
  <path d="M59.2 7.2A17 17 0 0 0 47 2.4c-5.4 0-9.3 1.7-12.4 3.4 5.3 3.1 16.9 9.6 29 18.6.2-1.1.2-2.5.2-3.7.3-5.6-1.4-10.4-4.5-13.5Z" fill="url(#c)"/>
  <defs>
    <linearGradient id="a" x1="2" y1="39.2" x2="45.5" y2="39.2" gradientUnits="userSpaceOnUse">
      <stop stop-color="#3656CC"/>
      <stop offset=".3" stop-color="#304CB2"/>
      <stop offset=".7" stop-color="#283B80"/>
    </linearGradient>
    <linearGradient id="b" x1="8.2" y1="4.9" x2="57.3" y2="39.3" gradientUnits="userSpaceOnUse">
      <stop offset=".3" stop-color="#E61C23"/>
      <stop offset=".8" stop-color="#C3161C"/>
    </linearGradient>
    <linearGradient id="c" x1="38.6" y1=".4" x2="66.7" y2="20.1" gradientUnits="userSpaceOnUse">
      <stop stop-color="#FDBC11"/>
      <stop offset=".3" stop-color="#FCB415"/>
      <stop offset=".8" stop-color="#F89E1C"/>
    </linearGradient>
  </defs>
</svg>
