<svg xmlns="http://www.w3.org/2000/svg" fill="none" viewBox="0 0 1770 1379">
  <path fill="#FFEC00" d="m1770 0-535 1379H0L1383 0h387Z"/>
  <path fill="#231F20" d="m1259 433 29-29-34-54 56-55 34 55 37-36 28 44-37 36 44 69c10 16 14 15 29 0l19-20 27 42c-10 13-24 29-40 45-37 35-59 39-82 2l-53-83-29 28-28-44Zm-76 73 56-54 109 172-56 54-109-172Zm-38-60 56-54 26 40-56 55-26-41Zm-109 204 109 172 54-53-109-172-54 53Zm112-121c-25 24-40 87-8 141l7 12v-1c-10-26 0-56 27-82 7-7 16-14 24-19l-39-61-11 10ZM957 727l56-54 109 172-56 54-109-172Zm-38-60 56-55 26 41-56 54-26-40Zm6 302c25-25 30-54 12-82-19-29-42-30-68-5s-28 55-12 82c17 27 42 30 68 5Zm-178-37 54-53 15 23c1-29 15-58 37-80 51-50 105-48 142 12 32 49 27 119-25 170-25 24-50 33-68 30l49 78-56 54-148-234Zm-60 250c5 6 10 9 17 7 7-1 16-7 28-18 12-12 24-28 16-40-6-10-13-7-28 5l-54 41c-36 27-61 29-80 0-29-47-5-94 48-146 38-37 91-75 125-29l-63 61c-5-7-12-8-19-5-7 2-15 9-22 16-16 15-23 29-15 41 3 5 10 6 25-6l52-40c42-33 70-37 91-3 26 40 5 91-54 148-39 39-98 82-132 32l65-64Z"/>
</svg>
