<svg fill="none" xmlns="http://www.w3.org/2000/svg" viewBox="0 0 1325 369">
  <path d="M1099 77h44l14-68h83l-14 68h55l-12 55h-55l-18 85c-4 20 0 22 22 22h30l-11 52c-17 2-40 3-64 3-54 0-74-13-64-59l22-103h-44l12-55Zm-113 0h83l-45 213h-83l45-213Zm16-75h83l-11 51h-83l11-51ZM765 77l-45 213h81l45-213h-81Zm177-10c-37 0-96 37-112 102l-4 15h2c11-28 41-43 81-43 11 0 23 1 33 3l16-76-16-1ZM648 77h83l-45 213h-84l46-213Zm16-75h83l-11 51h-83l11-51ZM442 238c38 0 63-19 70-54 8-36-9-54-47-54-39 0-64 21-71 54s9 54 48 54ZM334 77h80l-5 28c23-21 55-34 88-34 76 0 116 42 100 116-13 62-69 111-147 111-37 0-63-12-74-28l-21 97h-83l62-290ZM100 223c0 8 1 15 8 18 7 5 18 7 36 7s38-3 42-19c2-11-5-14-25-17l-73-9c-47-6-68-23-61-59 13-58 66-76 146-76 56 0 126 10 117 71h-93c1-9-3-15-11-18-8-4-18-5-29-5-24 0-39 6-42 20-2 7 3 13 23 15l70 8c56 6 81 24 72 66-11 50-63 73-152 73-59 0-136-10-124-75h96ZM1306 94l2-1 1-2-1-2-2-1h-2v6h2Zm-7-9h7l5 1c2 1 2 3 2 5v3l-3 2 4 6h-5l-3-5h-2v5h-5V85Zm7 23a13 13 0 0 0 9-4l3-4 1-6-1-6-3-4-4-3-5-1-5 1-4 3-3 4-1 6 1 6 3 4a12 12 0 0 0 9 4Zm0 3a17 17 0 0 1-12-4l-4-6-1-7 1-7a16 16 0 0 1 16-10 17 17 0 0 1 12 4l3 6 2 7-2 7a16 16 0 0 1-15 10Z" fill="#231F20"/>
</svg>
