<svg fill="none" width="150px" xmlns="http://www.w3.org/2000/svg" viewBox="0 0 600 95">
  <g clip-path="url(#a)">
    <path d="M35 48.5c4-14.8-.5-30.3-11.2-38.5A44.3 44.3 0 0 0 10 71c11.4-3 21.5-9 25-22.5m19.8 42.7a44.3 44.3 0 1 0-28-83C48 15.6 59.3 26.6 60.1 37.8c.4 7-2.8 12-7 16l30-2c.9 0 1.2 1 .1 1.2L11.6 73.5a44.4 44.4 0 0 0 43.2 17.7M52.4.7a47 47 0 1 1-9.9 93.5A47 47 0 0 1 52.4.7" fill="#fff"/>
    <path d="M3.7 54.8A44 44 0 0 0 10 71.1C21.4 68 31.5 62 35 48.5c4-14.8-.5-30.3-11.2-38.5a44.3 44.3 0 0 0-20 44.8Zm87.5-14.7a44.3 44.3 0 0 1-79.6 33.4l71.7-20.6c1-.3.8-1.3 0-1.2l-30.1 2a20 20 0 0 0 7-16C59.4 26.5 48 15.5 26.7 8.3a44 44 0 0 1 25.4-5 44.3 44.3 0 0 1 39 36.8Z" fill="#C70A0C"/>
    <path d="M337.9 65.9V50.4h-15.5V66h-8.5V29h8.5v14.6h15.5V29.1h8.6v36.8h-8.6ZM154.6 29v23.1c0 2.6.4 4.8 1.1 6.6a11.6 11.6 0 0 0 8.2 6.9 24.5 24.5 0 0 0 12.8 0 11.1 11.1 0 0 0 7.7-6.9c.7-1.8 1-4 1-6.6v-23h-7.9v22.8c0 2.3-.6 4.2-1.7 5.6-1.2 1.4-3 2-5.5 2-2.4 0-4.3-.6-5.5-2a8.4 8.4 0 0 1-1.7-5.6V29h-8.5ZM130 65.9v-30h-10v-6.8h28.6v3.3c0 2-1.6 3.6-3.5 3.6h-6.5v29.9H130ZM266.8 29h8.5v37h-8.5V29Zm-28.4 19.7.3.4 10.9 14a7.2 7.2 0 0 0 5.7 2.8h6.8l-15.6-19.8-.2-.3.2-.3 12.8-16.4h-8.8l-11.8 15.8-.3.4V29.1H230v36.8h8.5V48.7ZM201.8 46h5c1.8 0 3.1-.6 4-1.5 1-1 1.4-2.2 1.4-3.7s-.5-2.8-1.3-3.7c-1-1-2.3-1.5-4.1-1.5h-5v10.3Zm17 19.9a7.3 7.3 0 0 1-6.2-3.5l-6.6-11h-4.2V66h-8.5V29h15.2c3.9 0 7 1 9 3 2.2 2 3.2 4.7 3.2 8.1 0 1.8-.4 3.5-1.3 5.3-1 1.6-2.5 3-4.8 4l-.5.3 10.4 16h-5.7Zm63.4-1.6v-7a24 24 0 0 0 9.9 2.5c4.1 0 6.2-1.5 6.2-4.2 0-3.2-2.8-3.5-8.5-6-3.8-1.7-7.5-4.4-7.5-10.5 0-7.2 5.5-10.6 13-10.6 4 0 7.5 1 9.4 1.7V37c-1.9-1-5.3-2-8.7-2-3.8 0-5.5 1.4-5.5 3.7 0 2.5 2.1 3.3 5.9 4.7 4.9 2.4 10.5 3.5 10.5 11.8 0 7.2-5.7 11.1-13.3 11.1-4.7 0-8.5-.8-11.4-2ZM545 65.9V29h23v3.3c0 2-1.5 3.6-3.5 3.6h-11v7.9h12.4V50h-12.4v9H568v7h-23Zm-84.1 0V29h4.1c2.4 0 4.4 2 4.4 4.4v25.8H483v6.6h-22.1Zm-52.7 0V29h8.6v36.8h-8.6ZM433 46h5c1.8 0 3.2-.6 4-1.5 1-1 1.4-2.2 1.4-3.7S443 38 442 37s-2.3-1.4-4-1.4h-5v10.3Zm17 19.9a7.3 7.3 0 0 1-6.1-3.5l-6.7-11h-4.1V66h-8.5V29h15.1c3.9 0 7 1 9 3 2.2 2 3.3 4.7 3.3 8.1a11 11 0 0 1-1.4 5.2c-1 1.7-2.5 3.1-4.7 4.2l-.5.2 10.3 16h-5.6Zm-71-13.4 3.3-9.3 2-6h.2a57 57 0 0 0 1.9 6l3.2 9.3H379ZM389.5 29h-9.8L366 65.9h6.1c1.6 0 3-1 3.4-2.5l1.4-4.3h15l2.1 6.8h9.3L389.5 29Zm185.4 35.3v-7c2.7 1.2 6.2 2.5 9.8 2.5 4.1 0 6.2-1.5 6.2-4.2 0-3.2-2.8-3.5-8.4-6-3.9-1.7-7.6-4.4-7.6-10.5 0-7.2 5.5-10.6 13-10.6 4.1 0 7.5 1 9.5 1.7V37c-2-1-5.4-2-8.8-2-3.7 0-5.5 1.4-5.5 3.7 0 2.5 2.1 3.3 6 4.7 4.8 2.4 10.4 3.5 10.4 11.8 0 7.2-5.7 11.1-13.3 11.1-4.7 0-8.4-.8-11.3-2ZM504.7 29h5.3c2.5 0 4.8 1.4 6.2 3.5L526.4 49c1.2 1.8 2.5 4.2 3.3 6h.2l-.2-5.7V29.1h7.5v36.8h-9.3l-12.5-20c-1.2-1.7-2.4-4-3.3-5.6l.1 5.3v20.3h-7.5V29Zm-16.2 36.9V29h8.5v36.8h-8.5Z" fill="#000"/>
  </g>
  <defs>
    <clipPath id="a">
      <path fill="#fff" d="M0 0h600v94.9H0z"/>
    </clipPath>
  </defs>
</svg>
