<svg xmlns="http://www.w3.org/2000/svg" fill="none" viewBox="0 0 1770 1379">
  <path fill="#035990" d="m1770 0-535 1379H0L1383 0h387Z"/>
  <mask id="a" width="1770" height="1379" x="0" y="0" maskUnits="userSpaceOnUse" style="mask-type:alpha">
    <path fill="#063E73" d="m1770 0-535 1379H0L1383 0h387Z"/>
  </mask>
  <g mask="url(#a)">
    <path fill="#57BFE6" fill-rule="evenodd" d="M491 330c78-14 164-8 230 28 44 22 85 64 106 108 35 68 31 161 10 233-59 210-259 402-456 490v-54l15 30c15-6 24-11 36-18l-51-103v-46c32-16 51-30 83-54 22 31 61 80 93 120 16-11 29-23 43-37-27-33-69-80-101-113 29-22 49-43 72-71l117 95c10-13 27-34 39-52-40-30-80-58-122-84 15-21 32-47 45-71 44 19 88 43 131 67 10-17 20-40 27-60-43-21-88-41-133-56 8-18 14-37 19-56 46 10 101 26 135 38 6-21 9-48 10-70-43-11-88-20-134-24 1-12 2-24 1-36 39 2 88 8 130 17-2-23-6-44-15-64-25-3-85-6-121-5-2-8-6-21-9-26 29-4 77-4 114-2-9-18-23-35-40-50-33 1-71 6-97 11-5-8-11-14-17-20 27-6 60-11 85-13-21-16-54-31-67-35-15 3-44 11-59 16l-23-12 43-14c-34-8-71-9-107-6l-4 2-28-3Zm221 6-20-9c75 9 148 27 206 77 96 77 136 191 116 312a784 784 0 0 1-220 396 977 977 0 0 1-413 264v-169s15-5 29-13c15 32 44 89 67 128 14-5 27-12 40-20 0 0-50-93-70-127 50-27 85-51 128-85 19 22 92 116 92 116 18-13 36-28 50-42 0 0-71-86-96-112 32-26 64-62 90-94 38 32 83 72 110 101 19-20 35-41 47-59-37-34-76-65-115-96 22-28 41-59 56-90 43 24 84 52 126 80 13-22 25-47 33-69-43-28-87-51-131-74 9-25 16-50 22-76 47 16 91 37 135 59 7-26 10-55 10-84-44-20-89-35-135-49l-1-43c45 9 88 23 131 38-5-29-14-57-27-83-38-10-78-17-118-23l-13-33c36 3 76 9 105 16-14-26-39-50-65-69-25-1-50-2-77-1l-24-24 48-1 12-1c-36-19-77-33-119-40l-4 1-5-2Zm245 77-28-4c-11-12-23-22-33-28 39 12 95 30 145 84a407 407 0 0 1 92 377c-55 223-232 422-429 557H575l-42-70c52-28 104-59 153-97l79 102c18-13 35-27 52-43l3-2c-27-39-64-83-82-101 38-32 74-70 106-107 30 30 61 62 90 94 20-21 36-42 52-64-31-32-62-61-94-91 29-35 50-69 69-106 33 25 65 51 97 78 13-25 26-51 36-77-32-28-65-51-99-73 12-28 24-66 29-91 32 17 71 43 98 62 8-28 10-73 9-98-23-15-62-36-96-52 0-17 0-36-3-54 32 13 62 27 92 43-5-37-18-71-35-103-26-9-53-19-80-27-6-14-12-27-20-40a576 576 0 0 1 70 20c-5-9-13-17-20-25l-4-4c-23-25-49-46-78-60Zm170 151c-7-16-15-32-24-47l26 9a442 442 0 0 1 106 387 809 809 0 0 1-187 365c-36 42-76 84-118 121h-23l-66-85c45-38 76-72 113-115a1361 1361 0 0 1 71 82c19-22 38-44 55-67-24-27-47-55-73-81 28-38 60-87 76-117 25 22 51 48 74 73 14-26 26-53 36-82-23-26-49-51-73-70 13-33 25-70 31-102 24 16 48 36 71 58 6-35 8-73 6-111-21-18-43-34-65-50-1-21-1-40-4-61l50 31 7 4c-10-45-30-87-54-127l-35-15Zm65 25 1-1c8 6 15 14 21 22l7 7a468 468 0 0 1 85 402 839 839 0 0 1-197 380H957c32-28 59-59 85-90l2-2c20 25 40 50 58 76 20-22 38-46 55-69-18-26-37-51-57-75 30-40 57-83 81-126 16 18 27 33 38 48l16 21c15-28 29-62 36-87-12-19-32-46-52-67 14-32 25-80 30-110 22 22 35 36 49 55 8-41 8-85 5-127-12-16-29-30-44-42-1-25-4-48-8-73l32 24c-17-61-49-115-91-166Zm142 284c-3-36-6-59-12-86l4 3c25 56 46 114 43 181-6 160-63 300-149 428h-8l-36-58c30-41 57-85 80-129a352 352 0 0 1 28 46c14-29 29-66 36-93l-25-44c14-40 24-77 31-117l23 29c9-44 11-86 10-127 0 0-14-21-25-33Zm54 166c-2 14-3 28-6 40Zm-6 40-7-9Zm-7-9c-7 44-18 85-33 125Zm-33 125 11 29Zm11 29c-9 30-20 61-34 94Zm-34 94c-3-10-9-22-15-31Zm-15-31c-19 38-42 78-64 112Zm-64 112h57Zm57 0c31-60 55-124 73-189Zm73-189c15-61 28-127 21-194Zm21-194h-1Zm-49 351c18-55 40-132 52-195-7 82-25 168-50 227h-29l21-45 6 13Zm-961 25c37-12 73-25 108-42l27 49H381v-7Z" clip-rule="evenodd"/>
  </g>
</svg>
