<svg fill="none" xmlns="http://www.w3.org/2000/svg" viewBox="0 0 106 105">
  <path d="M106 0v104.9H84.2a69.2 69.2 0 0 0-27.8-82.2 69.4 69.4 0 0 0-51.2-9.1l-4.2 1V0h105ZM29.9 16.4c-5.6-3-13-3.5-19.5-2.4l2.3.3.3-.2c3-.2 6.3 0 9.2.5-1 .3-2.6.8-3.7 1.3l2 1 5-1.4c1 .4 4 1.7 5.7 3-2.1.2-5 .6-7.2 1.1.5.5 1 1 1.4 1.7 2.2-.4 5.4-.8 8.2-1a15 15 0 0 1 3.4 4.3c-3-.2-7.2-.1-9.7.1.3.5.6 1.6.8 2.3 3.1-.1 8.2.1 10.3.4a18 18 0 0 1 1.3 5.4c-3.6-.7-7.8-1.3-11-1.4 0 1 0 2-.2 3 4 .4 7.7 1.1 11.4 2 0 2-.3 4.3-.8 6-3-1-7.6-2.4-11.5-3.2-.4 1.7-1 3.2-1.6 4.8 3.8 1.2 7.6 3 11.3 4.7-.6 1.7-1.5 3.7-2.3 5.1-3.6-2-7.4-4-11.1-5.6-1.1 2-2.6 4.2-3.9 6 3.6 2.2 7 4.6 10.4 7.1l-3.3 4.4-10-8c-2 2.3-3.6 4.1-6 6a183 183 0 0 1 8.5 9.6 22.5 22.5 0 0 1-3.7 3.1A224 224 0 0 1 8 66.2a39.3 39.3 0 0 1-7 4.6v4l4.3 8.6c-1 .7-1.7 1-3 1.6L1 82.5V87c16.7-7.4 33.8-23.8 38.7-41.6 1.8-6.1 2.2-14-.8-19.8a20.7 20.7 0 0 0-9-9.2M27.4 14l2.1.8h.4c3.6.5 7 1.7 10 3.4l-5 .1 2 2c2.3 0 4.5 0 6.6.2a20 20 0 0 1 5.5 5.8 72 72 0 0 0-9-1.3c.5.9.9 1.8 1.2 2.8 3.4.5 6.8 1.1 10 2a24 24 0 0 1 2.3 7 81.8 81.8 0 0 0-11.1-3.3l.1 3.7c4 1.2 7.7 2.5 11.4 4.1 0 2.6-.2 5-.8 7.2a92.5 92.5 0 0 0-11.5-5c-.5 2.2-1.1 4.4-1.9 6.4 3.8 2 7.6 4 11.2 6.3-.7 2-1.7 4-2.9 5.9-3.5-2.4-7-4.8-10.7-6.8a43.6 43.6 0 0 1-4.7 7.7c3.3 2.6 6.6 5.2 9.8 8-1 1.6-2.4 3.4-4 5.1-2.3-2.4-6.1-5.9-9.3-8.6a64 64 0 0 1-7.7 8c2.1 2.2 8.2 9.5 8.2 9.5a35.9 35.9 0 0 1-4.3 3.6l-7.8-9.9A66 66 0 0 1 6.6 86l6 10.7a28 28 0 0 1-3.4 1.8c-2-3.4-4.4-8.2-5.7-11-1.3.8-2.5 1.2-2.5 1.2V103a83 83 0 0 0 35-22.5 66.6 66.6 0 0 0 18.8-33.7c1.7-10.2-1.7-20-9.9-26.5-5-4.2-11-5.7-17.5-6.4m-4.3 6.8C17.4 15 8.7 14.5 1 16.3v.7c1.6-.4 3.7-.7 5.6-.7A20 20 0 0 0 3 19c.4 0 1 .2 1.4.4 1.7-1.2 3.4-2.3 4.8-3 1.8 0 4.1.3 5.7 1A38 38 0 0 0 7.3 21c.4.1.7.5 1 .8 2.5-1.3 6-2.8 8.8-3.7 1.4.5 2.8 1.5 3.6 2.3-3.6.8-7.1 1.8-10.6 3.2L11 25c2.5-.9 7.5-2.4 11.4-3.1.7.8 1.6 2 2 3.1-4.3.5-9.2 1.2-12.6 2.2l.5 1.6c4-.8 8.6-1.4 13-1.5.4 1.2.6 2.6.6 4-4.4-.3-9.4-.1-13.4.3l-.2 2.2c4-.1 8.6 0 13.5.5-.2 1.3-.5 3-1 4.5a84 84 0 0 0-13.2-1.9c-.1.9-.5 2-1 2.9 4.3.8 8.6 2 12.7 3.4-.5 1.4-1.2 2.7-2 4-3-1.5-8.5-3.6-12-4.6-.7 1.2-1.7 2.9-2.6 4 2.5 1.3 7.5 4.1 10.9 6.3L15 56c-3.3-2.5-6.6-5-10.1-7.2A36.8 36.8 0 0 1 1 52.6v.4l8.2 8.8L6.4 64 1 57.2v12.1A61.1 61.1 0 0 0 22.5 48c3.8-6.8 6.8-16 3-23.8a14 14 0 0 0-2.4-3.4m24.5 0 2.4.4a24.4 24.4 0 0 1 8.6 7.6l-6-1.7c.8 1.1 1.3 2.2 1.8 3.4l6.8 2.3a29 29 0 0 1 3 8.7 95.7 95.7 0 0 0-7.8-3.6c.2 1.5.2 3 .2 4.6 2.9 1.3 6.1 3.1 8.2 4.4 0 2.1-.2 6-.8 8.3a71.7 71.7 0 0 0-8.4-5.2 44 44 0 0 1-2.4 7.6 90 90 0 0 1 8.4 6.2c-.9 2.3-2 4.5-3 6.6a160 160 0 0 0-8.3-6.6c-1.7 3.1-3.4 6-5.9 9 2.7 2.5 5.4 5 8 7.7a42.3 42.3 0 0 1-4.4 5.4c-2.5-2.6-5-5.4-7.7-8a83.7 83.7 0 0 1-9 9.2c1.5 1.5 4.7 5.2 7 8.5-1.6 1.4-3 2.7-4.6 3.8l-6.8-8.6a89.3 89.3 0 0 1-13 8.3l3.6 5.9h11c16.7-11.4 31.8-28.4 36.4-47.3 2.8-11.6.2-23.4-7.8-32a26 26 0 0 0-12.3-7.2 19 19 0 0 1 2.8 2.4M1 19.8v2l1.1-.7c1 .2 2 .7 2.8 1.1-1.3.8-2.7 1.5-3.9 2.4v1.2L6 23a6 6 0 0 1 1.6 1.6c-2.2.8-5.2 2.3-6.6 3V29c2.4-1.2 5-2.4 7.6-3.2.3.6.7 1.3.8 2-2.7.5-5.8 1.7-8.4 2.6v1.2c2.7-.9 6.3-1.9 8.7-2.2.2.7.2 1.7.2 2.4-3.6.4-6 .8-8.9 1.4v1.3a70 70 0 0 1 8.8-.6c-.2 1-.4 2-.8 2.8a79 79 0 0 0-8-.3v1.8c2.4.2 5 .7 7 1.1l-1.2 2.5C5 41 2.8 40.4 1 40v3.6c1.1.5 2.8 1.3 3.3 1.7a13 13 0 0 1-1.6 1.9l-1.7-1v4.5A47 47 0 0 0 6.2 45c3.7-5.2 6.6-12 4-18.7A11.7 11.7 0 0 0 1 19.8M62.3 30c.8 1.3 1.5 2.7 2.1 4l3 1.4c2 3.3 3.7 6.9 4.6 10.7l-5-3c.3 1.8.4 3.4.4 5.3 1.9 1.3 3.8 2.6 5.6 4.2.2 3.2 0 6.4-.6 9.4-2-1.9-4-3.5-6-5-.5 2.8-1.5 6-2.6 8.7a57 57 0 0 1 6.2 6c-.8 2.4-1.8 4.8-3 7a90 90 0 0 0-6.4-6.3c-1.3 2.6-4 6.8-6.4 10 2.2 2.2 4.2 4.6 6.2 6.9-1.4 2-3 3.8-4.7 5.6l-6-6.9a78.4 78.4 0 0 1-9.6 9.8l5.6 7.2h2c3.5-3.2 7-6.7 10-10.3a68.8 68.8 0 0 0 15.8-31c2.3-12.2-.9-24-9-32.8l-2.2-.9Zm7.7 6v.1c3.4 4.3 6.2 9 7.7 14v.1l-2.8-2c.4 2 .7 4 .7 6.2a23 23 0 0 1 3.8 3.5 49 49 0 0 1-.4 10.8 40.2 40.2 0 0 0-4.2-4.7c-.4 2.6-1.4 6.7-2.6 9.4a35 35 0 0 1 4.4 5.7 48 48 0 0 1-3 7.4l-4.7-6c-2 3.7-4.2 7.4-6.8 10.8 1.7 2 3.3 4.2 4.8 6.4-1.4 2-3 4-4.6 5.8l-5-6.5a67 67 0 0 1-7.3 7.9h12.9a71.3 71.3 0 0 0 16.7-32.3c2.6-12.2.6-25-7.3-34.1-.7-.9-1.4-1.9-2.3-2.5m11 17c.5 2.3.7 4.2 1 7.3 1 1 2 2.8 2 2.8a46 46 0 0 1-.7 10.8l-2-2.4a63 63 0 0 1-2.6 9.9l2.1 3.7c-.6 2.3-1.8 5.4-3 7.9-.9-1.3-1.6-2.8-2.4-4-2 3.9-4.3 7.6-6.9 11.1l3 4.9h.8A68.7 68.7 0 0 0 85 68.6c.2-5.7-1.6-10.7-3.7-15.4l-.3-.3Zm5.8 19.5-.7 5.3-.6-.7c-.6 3.7-1.5 7.1-2.8 10.6l.9 2.5c-.8 2.5-1.7 5.1-2.9 8-.3-1-.8-2-1.3-2.7A89.2 89.2 0 0 1 74 105h4.8A84 84 0 0 0 85 89a47.3 47.3 0 0 0 1.8-16.6Zm.3 13.2a147 147 0 0 1-4.4 16.6l-.5-1.1-1.8 3.8h2.4c2.2-5 3.7-12.3 4.3-19.3m-76.9 15.2a92 92 0 0 1-9.2 3.5v.6h11.5l-2.3-4.1Zm25.2.7c-1.2.9-2.7 2.2-4.6 3.4h6.8l-2.2-3.4Z" fill="#005DAA"/>
</svg>
